<?xml version="1.0" standalone="no"?>
<!DOCTYPE svg PUBLIC "-//W3C//DTD SVG 20010904//EN"
 "http://www.w3.org/TR/2001/REC-SVG-20010904/DTD/svg10.dtd">
<svg version="1.0" xmlns="http://www.w3.org/2000/svg"
 width="960.000000pt" height="960.000000pt" viewBox="0 0 960.000000 960.000000"
 preserveAspectRatio="xMidYMid meet">
<metadata>
Created by potrace 1.14, written by Peter Selinger 2001-2017
</metadata>
<g transform="translate(0.000000,960.000000) scale(0.100000,-0.100000)"
fill="#000000" stroke="none">
<path d="M1420 8740 l0 -190 -185 0 -185 0 0 -935 0 -935 -190 0 -190 0 0
-565 0 -565 190 0 190 0 0 -935 0 -935 185 0 185 0 0 -190 0 -190 750 0 750 0
0 -185 0 -185 -185 0 -185 0 0 -565 0 -565 185 0 185 0 0 -185 0 -185 190 0
190 0 0 -375 0 -375 185 0 185 0 0 -185 0 -185 190 0 190 0 0 185 0 185 185 0
185 0 0 185 0 185 565 0 565 0 0 -185 0 -185 185 0 185 0 0 -185 0 -185 190 0
190 0 0 185 0 185 185 0 185 0 0 375 0 375 190 0 190 0 0 185 0 185 185 0 185
0 0 565 0 565 -185 0 -185 0 0 185 0 185 750 0 750 0 0 190 0 190 185 0 185 0
0 2435 0 2435 -185 0 -185 0 0 190 0 190 -3565 0 -3565 0 0 -190z"/>
</g>
</svg>
