<?xml version="1.0" standalone="no"?><!DOCTYPE svg PUBLIC "-//W3C//DTD SVG 1.1//EN" "http://www.w3.org/Graphics/SVG/1.1/DTD/svg11.dtd" ><svg xmlns="http://www.w3.org/2000/svg"><metadata></metadata><defs><font id="Founder:FZFW ZhuZi A YuanS_D" horiz-adv-x="1000"><font-face font-family="FZFW ZhuZi A YuanS D" font-weight="600" font-stretch="normal" units-per-em="1000" panose-1="2 0 7 0 0 0 0 0 0 0" ascent="909" descent="-294" x-height="0" bbox="-47 -294 1010 840" underline-thickness="50" underline-position="-100" unicode-range="U+0020-ff5e" /><missing-glyph horiz-adv-x="1000"  /><glyph glyph-name="" unicode="!" d="M232 665 q0 -66 -6 -236 q-6 -175 -5 -213 q0 -23 -14 -35 q-13 -11 -30 -10 q-31 2 -34 41 q2 74 -12 453 q0 29 19 41 q18 13 40 9 q38 -5 42 -50 ZM244 31 q1 -32 -21 -49 q-19 -15 -43 -14 q-24 1 -42 18 q-18 18 -18 41 q0 26 18 45 q18 18 42 19 q27 1 44 -14 q19 -16 20 -46 Z" /><glyph glyph-name="" unicode="&quot;" d="M313 672 q-2 -100 -10 -163 q-3 -18 -15 -27 q-13 -8 -27 -6 q-25 2 -32 33 q-5 41 -10 163 q0 28 16 41 q17 13 37 10 q38 -4 41 -51 ZM157 672 q-2 -113 -10 -163 q-3 -18 -15 -27 q-12 -8 -27 -6 q-25 2 -31 33 q-4 29 -10 163 q0 28 16 41 q16 13 36 10 q38 -4 41 -51 Z" /><glyph glyph-name="" unicode="#" d="M504 439 l-49 0 q-8 -1 -9 -9 l-27 -135 q0 -8 6 -8 l40 0 q23 0 34 -12 q11 -11 11 -27 q0 -36 -45 -41 l-54 0 q-9 0 -10 -8 q-17 -84 -36 -196 q-4 -23 -20 -31 q-16 -9 -33 -5 q-34 7 -29 47 l37 187 q2 8 -5 8 l-94 0 q-8 0 -10 -9 l-36 -197 q-4 -23 -20 -31 q-16 -9 -33 -5 q-34 7 -29 47 l37 186 q2 8 -5 8 q-28 0 -40 -1 q-23 0 -34 14 q-11 13 -9 31 q2 32 42 35 l54 0 q9 -1 10 7 l26 137 q2 9 -5 9 q-22 -1 -45 -1 q-23 0 -34 13 q-11 14 -9 31 q2 33 42 36 q31 -1 61 -1 q6 0 7 6 l29 155 q4 20 18 29 q15 8 31 6 q37 -4 34 -46 q-12 -66 -29 -145 q-1 -6 5 -6 l94 0 q7 2 8 7 l29 155 q4 20 18 29 q15 8 31 6 q37 -4 34 -46 q-11 -57 -29 -144 q-1 -4 5 -6 l35 1 q25 0 36 -14 q11 -14 9 -31 q-3 -32 -45 -35 ZM364 430 q4 10 -6 10 q-46 0 -93 1 q-5 0 -7 -2 q-1 -1 -2 -7 l-27 -137 q-1 -5 0 -7 q1 -2 6 -2 l95 0 q7 0 8 7 q5 30 26 137 Z" /><glyph glyph-name="" unicode="$" d="M471 644 q14 -19 10 -39 q-4 -19 -19 -30 q-29 -21 -63 13 q-27 32 -68 45 q-6 1 -6 -5 q0 -113 -1 -225 q0 -7 6 -10 q47 -24 55 -28 q94 -54 122 -126 q28 -71 2 -139 q-42 -107 -178 -136 q-5 -1 -5 -8 l0 -49 q0 -23 -13 -34 q-13 -10 -30 -8 q-31 3 -35 42 q0 23 0 47 q0 7 -6 7 q-124 10 -189 97 q-20 27 -13 49 q8 21 28 30 q30 12 53 -17 q41 -62 122 -73 q6 -1 6 7 q1 137 1 275 q0 7 -5 10 q-19 10 -57 28 q-86 43 -110 113 q-25 70 6 135 q40 86 158 104 q7 1 7 8 q0 26 -1 35 q2 43 37 45 q37 3 41 -41 l0 -42 q0 -7 5 -8 q91 -13 140 -72 ZM344 288 q-13 7 -18 5 q-2 -2 -2 -6 q0 -159 1 -228 q0 -4 1 -6 q2 -2 5 -1 q47 13 72 45 q25 33 24 73 q0 68 -83 118 ZM251 437 q0 97 -1 195 q0 5 -1 6 q-1 2 -5 1 q-42 -9 -65 -36 q-23 -26 -23 -61 q0 -57 71 -98 l19 -10 q2 -2 4 -1 q1 1 1 4 Z" /><glyph glyph-name="" unicode="%" d="M334 473 q-7 -65 -41 -103 q-37 -41 -99 -41 q-157 0 -141 237 q4 68 39 109 q38 44 102 44 q93 0 126 -86 q25 -64 14 -160 ZM631 663 q-50 -75 -207 -312 q-158 -237 -241 -370 q-24 -30 -52 -11 q-28 18 -11 53 q82 122 240 359 q159 237 206 318 q10 16 25 18 q15 3 29 -6 q28 -16 11 -49 ZM695 106 q-7 -65 -41 -103 q-37 -42 -99 -42 q-157 0 -141 238 q4 68 39 109 q37 43 102 43 q93 0 126 -86 q25 -64 14 -159 ZM256 564 q-8 86 -62 87 q-47 0 -59 -68 q-8 -42 -2 -101 q4 -43 21 -65 q16 -20 40 -20 q46 0 59 68 q7 39 3 99 ZM617 197 q-8 85 -62 87 q-74 0 -62 -170 q4 -42 22 -65 q16 -20 40 -20 q46 0 59 69 q7 39 3 99 Z" /><glyph glyph-name="" unicode="&amp;" d="M759 -24 q-115 -36 -227 81 q-7 7 -15 1 q-41 -36 -80 -58 q-11 -6 -21 -10 q-144 -65 -253 3 q-86 53 -97 151 q-12 107 76 188 q24 22 79 61 q7 5 2 11 q-130 143 -40 257 q49 57 124 60 q76 3 126 -50 q42 -49 41 -107 q-1 -50 -31 -91 q-26 -35 -88 -80 q-6 -5 0 -12 q79 -84 163 -178 q4 -5 6 -5 q3 1 5 5 q69 93 105 217 q6 20 22 26 q17 7 36 0 q38 -12 30 -57 q-42 -138 -133 -252 q-5 -8 1 -14 q85 -85 152 -54 q28 10 45 -8 q18 -18 14 -44 q-3 -28 -42 -41 ZM374 520 q27 49 -3 95 q-23 28 -63 27 q-41 -1 -60 -35 q-25 -43 -9 -85 q11 -31 51 -73 q4 -4 11 1 q58 43 73 70 ZM462 138 q-71 85 -174 197 q-8 6 -13 2 q-61 -45 -79 -66 q-52 -63 -42 -122 q11 -58 66 -87 q70 -39 180 17 q35 20 61 45 q7 7 1 14 Z" /><glyph glyph-name="" unicode="&#39;" d="M190 671 q-2 -105 -11 -163 q-3 -18 -16 -27 q-12 -8 -27 -6 q-25 2 -32 33 q-6 39 -11 163 q0 29 18 42 q17 12 38 9 q38 -5 41 -51 Z" /><glyph glyph-name="" unicode="(" d="M339 -34 q18 -17 16 -36 q-2 -20 -16 -34 q-25 -26 -59 -2 q-107 99 -151 242 q-45 142 -25 293 q26 209 174 353 q22 19 42 14 q20 -5 30 -23 q17 -28 -13 -58 q-93 -82 -131 -203 q-38 -121 -20 -249 q24 -178 153 -297 Z" /><glyph glyph-name="" unicode=")" d="M128 780 q111 -103 154 -249 q43 -146 19 -297 q-30 -203 -175 -336 q-18 -14 -35 -11 q-17 3 -28 18 q-24 30 6 62 q95 86 132 212 q38 126 18 256 q-26 171 -148 281 q-19 17 -19 36 q0 19 13 32 q26 24 63 -4 Z" /><glyph glyph-name="" unicode="*" d="M326 606 q-32 -14 -57 -20 q-7 -2 -7 -6 q0 -4 7 -7 q25 -6 55 -17 q18 -10 20 -23 q3 -14 -4 -26 q-16 -24 -48 -6 q-23 19 -42 38 q-7 6 -10 4 q-4 -2 -2 -11 q6 -28 11 -56 q0 -22 -12 -32 q-12 -10 -26 -8 q-27 2 -29 38 q4 31 11 59 q1 12 -1 13 q-2 1 -11 -6 q-21 -20 -46 -39 q-18 -11 -32 -5 q-14 6 -19 20 q-11 24 18 42 q28 9 55 18 q9 3 10 7 q2 5 -11 9 q-26 8 -52 16 q-26 18 -15 42 q12 29 46 14 q21 -16 44 -38 q8 -6 11 -4 q2 2 1 12 q-8 29 -12 58 q0 20 12 28 q12 8 27 6 q27 -4 28 -33 q-5 -30 -11 -60 q-2 -10 1 -12 q3 -2 11 5 q21 19 47 38 q16 9 29 3 q14 -6 20 -19 q11 -24 -17 -42 Z" /><glyph glyph-name="" unicode="+" d="M459 269 l-126 2 q-9 0 -9 -11 q1 -48 1 -131 q0 -23 -13 -34 q-14 -11 -32 -10 q-38 1 -43 44 l2 133 q0 5 -2 7 q-3 2 -9 2 q-86 0 -123 -2 q-24 0 -35 15 q-10 15 -8 34 q3 33 41 37 q58 -2 128 -2 q8 0 8 9 q0 85 -2 121 q0 24 16 35 q15 10 34 8 q35 -3 38 -41 q-1 -28 -1 -122 q0 -6 2 -8 q2 -2 8 -2 q63 1 125 2 q22 0 33 -13 q11 -13 11 -30 q0 -38 -44 -43 Z" /><glyph glyph-name="" unicode="," d="M217 12 q-55 -82 -97 -131 q-25 -24 -50 -8 q-25 16 -14 49 q22 45 80 142 q15 23 34 26 q20 2 36 -9 q35 -25 11 -69 Z" /><glyph glyph-name="" unicode="-" d="M376 360 q24 0 35 -15 q11 -15 10 -35 q-2 -40 -45 -45 q-37 0 -85 2 q-122 2 -188 -2 q-26 0 -37 18 q-11 19 -7 40 q5 34 42 37 q129 -3 275 0 Z" /><glyph glyph-name="" unicode="." d="M195 28 q0 -26 -19 -45 q-18 -18 -42 -19 q-29 -1 -46 14 q-18 16 -19 47 q-1 31 22 49 q19 15 43 15 q25 -2 43 -19 q18 -18 18 -42 Z" /><glyph glyph-name="" unicode="/" d="M390 704 q-76 -201 -277 -749 q-8 -20 -23 -25 q-15 -6 -30 -1 q-35 12 -24 53 q48 121 151 396 q109 292 125 350 q6 19 21 24 q16 5 32 0 q34 -12 25 -48 Z" /><glyph glyph-name="" unicode="0" d="M534 468 q13 -152 -2 -268 q-16 -117 -77 -180 q-61 -63 -158 -63 q-98 0 -160 65 q-65 68 -76 189 q-11 117 -2 246 q10 127 75 197 q63 68 163 68 q99 0 161 -65 q64 -67 76 -189 ZM438 459 q-7 82 -45 128 q-38 47 -96 47 q-58 0 -96 -48 q-39 -49 -46 -132 q-11 -125 2 -238 q10 -79 48 -125 q38 -45 92 -45 q52 0 89 42 q38 43 49 117 q16 119 3 254 Z" /><glyph glyph-name="" unicode="1" d="M360 10 q0 -26 -18 -38 q-18 -11 -40 -8 q-38 4 -42 46 q6 331 2 556 q-2 31 -12 40 q-11 10 -43 8 q-27 -1 -39 16 q-12 16 -9 37 q4 37 44 44 q20 1 49 1 q48 0 77 -26 q29 -26 31 -72 q2 -31 0 -196 q-4 -232 0 -408 Z" /><glyph glyph-name="" unicode="2" d="M464 65 q30 -1 42 -17 q13 -16 10 -35 q-6 -39 -54 -43 l-354 0 q-43 -1 -54 38 q-11 39 24 78 q46 53 100 108 q126 135 177 197 q57 69 58 134 q1 58 -43 89 q-45 32 -103 18 q-64 -15 -99 -81 q-13 -23 -34 -27 q-20 -4 -38 6 q-34 19 -16 64 q49 93 153 119 q96 24 178 -17 q84 -40 103 -132 q19 -93 -78 -222 q-46 -58 -145 -153 q-88 -88 -118 -122 q-3 -3 1 -6 q4 -3 11 -3 q140 3 279 7 Z" /><glyph glyph-name="" unicode="3" d="M530 196 q-1 -105 -70 -171 q-70 -65 -182 -67 q-148 0 -223 103 q-15 22 -9 42 q5 20 22 32 q31 21 61 -9 q34 -41 66 -58 q35 -18 87 -18 q63 0 107 41 q46 42 45 106 q-1 73 -42 109 q-38 33 -108 31 l-17 0 q-24 1 -35 16 q-11 16 -9 35 q3 34 43 38 l31 0 q50 2 76 33 q26 30 25 80 q0 41 -33 70 q-35 30 -90 26 q-34 -3 -62 -20 q-21 -13 -42 -37 q-15 -16 -34 -14 q-18 2 -31 16 q-26 26 -1 62 q64 69 168 80 q97 5 158 -47 q59 -51 60 -135 q1 -51 -23 -92 q-24 -42 -67 -61 q60 -23 95 -76 q33 -51 34 -115 Z" /><glyph glyph-name="" unicode="4" d="M521 224 q24 0 36 -16 q11 -15 8 -34 q-4 -31 -47 -36 q-12 -1 -74 -1 q3 -125 3 -127 q-1 -26 -17 -37 q-16 -11 -37 -8 q-35 5 -39 45 q1 63 1 126 q-192 -2 -218 -2 q-69 0 -88 44 q-18 42 21 99 q184 261 298 419 q15 19 34 20 q19 0 34 -12 q33 -26 6 -69 q-266 -352 -291 -387 q-9 -12 -6 -21 q3 -9 17 -10 q11 -2 194 2 q2 123 0 175 q0 27 16 39 q16 13 36 10 q34 -3 38 -49 q-1 -87 -2 -173 q39 1 77 3 Z" /><glyph glyph-name="" unicode="5" d="M472 373 q65 -71 60 -173 q-5 -101 -76 -169 q-84 -74 -198 -69 q-116 4 -186 70 q-18 19 -17 40 q0 20 13 34 q26 28 62 0 q60 -56 143 -55 q80 1 125 51 q39 43 42 103 q3 63 -37 106 q-35 38 -95 43 q-51 4 -104 -16 q-26 -11 -33 -12 q-88 -8 -77 77 q15 119 34 233 q7 40 30 58 q24 19 71 18 q32 -1 210 -1 q23 -1 34 -15 q11 -14 10 -32 q-1 -37 -43 -42 q-99 0 -198 1 q-31 0 -36 -30 q-12 -76 -24 -152 q-2 -16 4 -18 q4 -1 24 4 q60 16 128 8 q87 -11 134 -62 Z" /><glyph glyph-name="" unicode="6" d="M489 42 q-67 -77 -172 -83 q-105 -7 -181 57 q-88 80 -83 208 q4 104 67 222 q36 67 102 142 q66 76 122 115 q24 16 46 9 q21 -8 31 -26 q18 -30 -13 -55 q-61 -41 -125 -109 q-72 -76 -97 -138 q-3 -8 -1 -10 q1 -2 8 2 q72 40 156 30 q77 -10 127 -56 q63 -59 65 -152 q2 -90 -52 -156 ZM426 104 q30 41 27 94 q-3 54 -39 90 q-42 43 -109 44 q-68 1 -115 -41 q-47 -42 -46 -108 q1 -66 51 -107 q50 -37 119 -32 q68 6 112 60 Z" /><glyph glyph-name="" unicode="7" d="M513 565 q-17 -33 -80 -139 q-77 -128 -115 -203 q-60 -119 -82 -209 q-8 -31 -30 -41 q-22 -11 -43 -3 q-35 12 -26 65 q21 79 80 194 q40 79 110 196 q69 119 88 158 q9 19 5 29 q-5 11 -23 11 q-175 0 -275 -4 q-27 -1 -39 13 q-13 14 -12 33 q2 38 48 46 q25 3 271 0 l36 0 q68 0 93 -45 q24 -43 -6 -101 Z" /><glyph glyph-name="" unicode="8" d="M551 188 q1 -108 -74 -171 q-70 -58 -181 -59 q-109 -1 -180 59 q-75 64 -74 171 q0 63 35 115 q36 53 95 79 q-42 19 -68 61 q-27 43 -26 94 q1 83 61 135 q61 52 157 52 q97 0 158 -52 q60 -52 61 -134 q-5 -110 -95 -156 q60 -22 95 -75 q35 -52 36 -119 ZM424 534 q-1 49 -39 79 q-36 29 -89 29 q-53 0 -90 -32 q-37 -32 -37 -77 q0 -55 35 -85 q34 -29 92 -28 q59 1 92 28 q37 30 36 86 ZM460 187 q-1 70 -47 110 q-44 38 -117 38 q-70 0 -116 -42 q-46 -42 -47 -106 q-1 -66 49 -106 q46 -37 114 -37 q69 0 115 38 q49 41 49 105 Z" /><glyph glyph-name="" unicode="9" d="M484 258 q-35 -75 -103 -156 q-66 -79 -128 -123 q-26 -17 -48 -11 q-23 5 -33 24 q-19 31 17 60 q61 40 122 106 q68 73 94 136 q3 7 1 9 q-2 2 -9 -2 q-67 -41 -150 -31 q-78 9 -129 56 q-63 58 -65 153 q-2 93 51 159 q68 76 173 83 q105 6 181 -58 q83 -75 81 -196 q-1 -96 -55 -209 ZM401 388 q47 42 47 107 q0 68 -50 108 q-48 39 -119 32 q-74 -7 -113 -61 q-30 -41 -27 -93 q3 -54 39 -90 q42 -43 109 -44 q67 -1 114 41 Z" /><glyph glyph-name="" unicode=":" d="M217 331 q0 -25 -19 -44 q-18 -18 -42 -19 q-28 -1 -45 14 q-18 16 -19 46 q-1 31 22 49 q19 15 42 14 q25 -1 43 -18 q18 -17 18 -42 ZM217 28 q0 -26 -19 -45 q-18 -17 -42 -18 q-28 -1 -45 14 q-18 15 -19 45 q-1 32 22 50 q19 15 42 14 q25 -1 43 -18 q18 -17 18 -42 Z" /><glyph glyph-name="" unicode=";" d="M217 357 q0 -25 -19 -44 q-18 -18 -42 -19 q-28 -1 -45 14 q-18 16 -19 46 q-1 31 22 49 q19 15 42 14 q25 -1 43 -18 q18 -17 18 -42 ZM239 32 q-58 -86 -97 -132 q-25 -23 -50 -7 q-25 16 -14 49 q22 45 80 142 q15 23 34 25 q20 3 36 -9 q35 -24 11 -68 Z" /><glyph glyph-name="" unicode="&lt;" d="M461 187 q19 -8 23 -24 q5 -15 -2 -31 q-15 -35 -56 -24 q-94 37 -287 131 l-36 17 q-45 21 -45 63 q0 43 45 63 q108 48 320 148 q24 10 40 -1 q17 -11 21 -30 q7 -30 -24 -46 q-113 -48 -287 -119 q-20 -8 -17 -15 q2 -8 16 -13 q35 -14 123 -51 q120 -50 166 -68 Z" /><glyph glyph-name="" unicode="=" d="M457 386 q-257 4 -353 0 q-25 0 -36 16 q-11 15 -7 34 q5 29 41 31 q167 -4 355 0 q23 0 34 -12 q11 -12 11 -28 q0 -36 -45 -41 ZM457 217 q-203 4 -353 0 q-23 0 -34 13 q-11 13 -10 30 q1 34 42 38 q132 -5 355 0 q25 -1 36 -15 q11 -15 8 -33 q-5 -30 -44 -33 Z" /><glyph glyph-name="" unicode="&gt;" d="M453 380 q46 -24 45 -63 q-1 -39 -45 -63 l-36 -17 q-193 -94 -287 -131 q-22 -8 -38 3 q-16 10 -21 29 q-8 31 24 47 q46 18 166 68 q88 37 123 51 q14 5 16 13 q3 7 -17 15 q-174 71 -287 119 q-19 9 -23 24 q-5 16 3 32 q15 35 57 21 q212 -100 320 -148 Z" /><glyph glyph-name="" unicode="?" d="M293 307 q-45 -16 -56 -33 q-12 -17 -8 -63 q0 -27 -16 -40 q-16 -13 -36 -11 q-35 3 -40 49 q-2 83 16 112 q20 34 99 65 q82 35 95 91 q16 76 -51 128 q-63 51 -167 18 q-27 -8 -44 8 q-17 15 -14 39 q2 27 44 41 q48 13 95 12 q116 -5 188 -89 q65 -75 50 -164 q-20 -108 -155 -163 ZM252 27 q0 -25 -19 -44 q-18 -18 -42 -19 q-28 -1 -45 14 q-19 16 -20 46 q-1 31 22 49 q19 15 43 15 q25 -2 43 -19 q18 -18 18 -42 Z" /><glyph glyph-name="" unicode="@" d="M785 489 q22 -69 10 -145 q-12 -76 -50 -120 q-40 -46 -87 -66 q-47 -21 -88 -17 q-60 6 -77 62 q-1 8 -3 16 q-1 4 -15 -11 q-47 -42 -113 -42 q-97 5 -122 77 q-33 97 39 199 q47 61 120 81 q78 21 130 -23 q7 -7 10 -8 q3 -1 5 5 q8 16 27 24 q22 8 44 -10 q22 -18 10 -40 q-42 -89 -52 -126 q-14 -60 -8 -89 q6 -30 24 -35 q41 -9 85 44 q28 35 36 94 q8 62 -10 112 q-30 85 -105 131 q-70 43 -164 43 q-123 -2 -206 -85 q-83 -83 -86 -223 q3 -138 84 -217 q81 -78 207 -78 q72 0 150 38 q22 10 38 1 q16 -10 20 -29 q7 -31 -28 -51 q-88 -40 -180 -40 q-165 2 -270 102 q-105 100 -108 274 q0 165 109 275 q109 110 270 110 q129 0 224 -61 q96 -62 130 -172 ZM513 417 q-4 24 -25 36 q-21 11 -49 9 q-60 -5 -104 -66 q-33 -53 -27 -101 q6 -48 57 -52 q102 0 132 113 q18 54 16 61 Z" /><glyph glyph-name="" unicode="A" d="M639 38 q12 -32 -3 -51 q-16 -19 -42 -21 q-33 -1 -50 33 q-25 65 -73 210 q-3 10 -12 10 q-133 2 -262 0 q-10 0 -13 -10 l-66 -207 q-8 -23 -26 -31 q-19 -8 -37 -2 q-39 10 -31 54 q41 130 182 524 l38 106 q12 33 36 49 q23 15 50 14 q55 -3 81 -64 q177 -495 228 -614 ZM435 319 q-44 130 -88 261 q-8 23 -17 25 q-10 2 -20 -26 q-36 -98 -89 -259 q-2 -6 -1 -9 q2 -3 8 -3 q100 0 200 0 q7 0 8 2 q1 2 -1 9 Z" /><glyph glyph-name="" unicode="B" d="M448 384 q-4 -1 -7 -1 q-9 -2 -8 -4 q0 -2 14 -3 q23 -2 43 -9 q81 -26 111 -110 q32 -93 -19 -179 q-62 -106 -213 -116 q-86 -3 -128 0 q-72 6 -106 32 q-38 29 -40 89 q-5 259 1 519 q1 56 37 87 q34 30 93 33 q65 4 120 0 q141 -14 189 -82 q49 -69 26 -144 q-27 -91 -113 -112 ZM343 415 q76 8 109 59 q32 52 9 103 q-24 55 -125 59 q-25 2 -90 0 q-30 -3 -43 -14 q-14 -12 -16 -38 q0 -75 -1 -150 q-1 -17 19 -19 q61 -4 138 0 ZM373 330 q-89 7 -169 0 q-20 0 -20 -20 q-1 -134 3 -209 q3 -31 23 -43 q13 -8 41 -10 q45 -4 120 0 q87 10 122 72 q36 63 11 127 q-25 71 -131 83 Z" /><glyph glyph-name="" unicode="C" d="M720 84 q-55 -70 -145 -102 q-90 -32 -189 -22 q-137 13 -231 111 q-108 127 -97 289 q11 162 125 271 q114 96 264 92 q144 -3 235 -99 q22 -27 16 -52 q-7 -24 -29 -35 q-33 -18 -66 17 q-59 73 -169 76 q-107 2 -178 -62 q-91 -86 -99 -210 q-7 -125 78 -225 q40 -43 97 -62 q57 -19 117 -15 q117 9 183 90 q19 23 42 23 q23 -1 39 -17 q31 -29 7 -68 Z" /><glyph glyph-name="" unicode="D" d="M745 342 q0 -171 -88 -269 q-92 -102 -268 -113 q-93 -3 -139 0 q-70 6 -110 38 q-43 34 -47 94 q-8 261 1 495 q8 126 145 132 q82 3 155 0 q166 -10 261 -117 q90 -102 90 -260 ZM644 342 q0 126 -70 205 q-72 81 -192 82 q-118 0 -127 -1 q-61 -6 -65 -56 q-4 -60 -5 -224 q-1 -178 5 -237 q6 -55 71 -60 q67 -4 129 1 q131 8 195 87 q59 72 59 203 Z" /><glyph glyph-name="" unicode="E" d="M502 52 q26 1 39 -14 q13 -15 11 -34 q-2 -35 -53 -43 q-130 -2 -258 0 q-71 6 -106 34 q-39 30 -41 89 q-5 256 1 515 q1 55 36 86 q33 30 93 33 q133 3 257 0 q25 -2 37 -16 q11 -13 10 -31 q-2 -38 -50 -43 q-117 0 -235 0 q-29 -3 -41 -14 q-13 -11 -14 -35 q-1 -72 -2 -143 q0 -11 6 -16 q4 -3 13 -4 q109 -2 226 1 q28 0 40 -17 q12 -17 8 -38 q-6 -37 -50 -39 q-117 5 -225 0 q-19 0 -19 -18 q0 -174 3 -201 q3 -27 19 -39 q14 -11 43 -13 q124 -3 252 0 Z" /><glyph glyph-name="" unicode="F" d="M476 718 q26 -2 37 -17 q12 -15 9 -33 q-4 -36 -50 -40 q-97 2 -228 0 q-28 -2 -41 -14 q-14 -12 -15 -36 q-1 -74 -2 -147 q0 -16 17 -18 q102 -3 215 0 q28 1 40 -16 q11 -16 8 -37 q-5 -38 -49 -40 q-95 7 -215 0 q-17 -1 -17 -17 q1 -146 1 -292 q-2 -24 -21 -35 q-18 -11 -39 -7 q-32 5 -35 44 q2 292 4 585 q1 56 36 87 q33 30 93 33 q130 3 252 0 Z" /><glyph glyph-name="" unicode="G" d="M748 193 q-35 -119 -126 -177 q-92 -59 -203 -58 q-155 1 -264 114 q-107 126 -97 287 q11 163 126 273 q112 95 261 92 q145 -2 237 -100 q21 -26 15 -49 q-5 -24 -26 -36 q-34 -20 -68 17 q-64 74 -166 76 q-106 2 -181 -62 q-90 -86 -99 -211 q-8 -125 77 -225 q53 -56 136 -71 q82 -16 158 15 q88 35 117 136 q6 25 -6 38 q-10 12 -30 11 q-76 0 -131 -2 q-25 0 -36 18 q-12 18 -8 40 q4 32 45 36 q84 -1 168 -1 q73 -1 98 -48 q22 -42 3 -113 Z" /><glyph glyph-name="" unicode="H" d="M687 9 q-1 -24 -18 -35 q-18 -10 -39 -8 q-39 4 -42 43 q3 160 0 281 q-1 12 -4 16 q-4 4 -14 5 q-126 3 -363 0 q-20 0 -20 -18 q-4 -166 0 -284 q0 -24 -18 -35 q-17 -10 -38 -8 q-38 4 -42 43 q7 367 0 660 q0 24 16 36 q16 11 36 10 q42 -1 46 -46 q-3 -113 0 -247 q0 -20 17 -20 q167 -5 369 0 q15 0 15 19 q3 131 0 248 q0 26 18 38 q17 11 39 8 q39 -4 42 -46 q-7 -297 0 -660 Z" /><glyph glyph-name="" unicode="I" d="M198 14 q-1 -25 -18 -37 q-17 -11 -39 -9 q-41 3 -45 46 q8 429 0 655 q0 26 20 38 q19 11 42 7 q37 -5 40 -43 q-7 -268 0 -657 Z" /><glyph glyph-name="" unicode="J" d="M348 671 q-7 -268 -1 -509 q2 -118 -87 -171 q-83 -49 -200 -19 q-29 9 -39 30 q-10 21 -3 42 q12 38 68 26 q70 -22 115 3 q48 26 49 95 q5 281 -3 501 q0 27 20 38 q20 11 43 7 q35 -5 38 -43 Z" /><glyph glyph-name="" unicode="K" d="M640 58 q19 -22 13 -45 q-5 -22 -24 -37 q-34 -25 -71 8 q-120 127 -284 306 q-16 17 -40 19 l-28 0 q-17 0 -18 -17 q-3 -146 1 -283 q-1 -24 -18 -35 q-18 -10 -39 -8 q-38 4 -42 43 q8 403 0 661 q0 25 17 36 q17 11 38 9 q40 -3 44 -45 q-1 -35 -1 -249 q1 -17 16 -19 q14 -2 25 0 q20 4 43 28 q143 152 237 267 q16 20 37 18 q21 -1 37 -15 q31 -27 7 -63 q-43 -51 -114 -125 q-71 -74 -130 -135 q-18 -15 -1 -30 q41 -42 174 -170 q99 -96 121 -119 Z" /><glyph glyph-name="" unicode="L" d="M503 65 q27 1 40 -16 q13 -16 10 -37 q-4 -34 -53 -41 q-132 -2 -263 0 q-71 5 -104 32 q-37 29 -39 89 q-1 285 3 572 q1 28 17 40 q17 13 37 10 q41 -4 44 -55 q-9 -296 -4 -543 q1 -28 18 -40 q12 -8 41 -11 q124 -4 253 0 Z" /><glyph glyph-name="" unicode="M" d="M854 10 q0 -28 -19 -40 q-20 -12 -43 -7 q-33 6 -39 43 q-3 60 -22 562 q-1 25 -12 24 q-11 -1 -16 -21 q-76 -259 -174 -538 q-9 -23 -27 -37 q-18 -14 -40 -16 q-51 -4 -73 52 q-28 74 -80 252 q-53 179 -85 283 q-8 22 -17 21 q-9 -1 -12 -28 q-15 -240 -28 -556 q-2 -23 -19 -33 q-17 -11 -37 -9 q-38 3 -41 41 q3 80 24 391 q10 138 14 219 q5 55 36 79 q32 25 70 17 q51 -9 75 -74 q3 -8 57 -186 q84 -280 102 -322 q4 -11 12 -11 q7 0 11 11 q32 82 106 325 l59 185 q18 49 53 66 q36 17 71 4 q55 -18 61 -93 q2 -110 24 -452 q5 -73 9 -152 Z" /><glyph glyph-name="" unicode="N" d="M694 52 q0 -38 -20 -60 q-21 -23 -50 -28 q-55 -9 -94 45 q-62 100 -167 289 q-105 190 -154 274 q-9 16 -18 19 q-8 1 -9 -26 q0 -217 5 -556 q0 -24 -18 -35 q-17 -10 -39 -8 q-38 4 -42 43 q7 333 0 612 q0 45 19 68 q19 23 46 27 q63 5 103 -51 q16 -26 128 -222 q149 -264 190 -326 q10 -16 17 -15 q8 1 8 20 q0 225 -6 547 q1 25 17 37 q16 11 36 10 q43 -2 47 -47 q-6 -245 1 -617 Z" /><glyph glyph-name="" unicode="O" d="M814 340 q0 -171 -108 -278 q-106 -105 -270 -105 q-164 0 -270 105 q-108 107 -108 278 q3 170 108 275 q105 105 270 108 q163 0 270 -108 q108 -109 108 -275 ZM714 340 q0 132 -81 215 q-79 81 -197 81 q-117 0 -196 -81 q-81 -83 -81 -215 q3 -135 81 -214 q78 -78 196 -80 q118 2 197 80 q78 79 81 214 Z" /><glyph glyph-name="" unicode="P" d="M354 270 q-89 -11 -153 4 q-9 2 -11 0 q-2 -2 -2 -12 q2 -124 3 -247 q-2 -26 -18 -38 q-16 -12 -36 -10 q-42 3 -45 46 q5 127 3 392 q0 172 1 194 q1 56 36 87 q33 30 93 33 q64 3 115 0 q27 -2 52 -8 q121 -29 159 -137 q34 -98 -18 -190 q-57 -101 -179 -114 ZM339 357 q81 12 112 77 q31 65 3 128 q-28 63 -124 69 q-27 2 -85 0 q-28 -2 -42 -15 q-13 -12 -16 -37 q-2 -86 0 -196 q-1 -17 18 -22 q48 -11 134 -4 Z" /><glyph glyph-name="" unicode="Q" d="M816 340 q0 -146 -80 -247 q-78 -99 -209 -127 q-17 -3 1 -14 q90 -55 148 -74 q49 -16 109 -17 q26 -1 38 -18 q12 -17 9 -37 q-5 -39 -62 -43 q-125 -5 -314 131 q-71 54 -154 85 q-111 39 -175 132 q-67 97 -67 229 q3 170 108 275 q105 105 270 108 q163 0 270 -108 q108 -109 108 -275 ZM716 340 q0 132 -81 215 q-79 81 -197 81 q-117 0 -196 -81 q-81 -83 -81 -215 q3 -135 81 -214 q78 -78 196 -80 q118 2 197 80 q78 79 81 214 Z" /><glyph glyph-name="" unicode="R" d="M632 67 q26 -4 37 -22 q12 -19 7 -40 q-7 -39 -63 -39 q-43 4 -85 39 q-38 32 -66 81 q-73 128 -90 152 q-53 79 -89 80 q-53 3 -78 1 q-19 -1 -19 -18 q2 -143 3 -285 q-1 -25 -18 -37 q-17 -12 -37 -10 q-38 2 -42 44 q2 293 4 587 q1 55 36 86 q34 30 93 33 q80 4 126 0 q131 -13 182 -80 q64 -88 25 -186 q-36 -91 -138 -114 q-9 -2 -10 -5 q1 -5 13 -17 q37 -41 65 -89 q29 -48 55 -92 q37 -64 89 -69 ZM348 398 q76 10 108 61 q33 53 10 107 q-24 60 -125 70 q-65 3 -93 0 q-29 -3 -44 -17 q-13 -13 -15 -38 q-1 -83 -2 -165 q0 -16 19 -18 q62 -6 142 0 Z" /><glyph glyph-name="" unicode="S" d="M470 645 q16 -21 11 -42 q-5 -22 -23 -33 q-30 -19 -64 15 q-43 53 -123 53 q-52 -1 -81 -28 q-30 -26 -31 -63 q-4 -58 68 -100 q79 -40 157 -79 q110 -64 131 -150 q21 -86 -27 -159 q-63 -94 -203 -102 q-160 -2 -235 100 q-20 28 -13 51 q6 22 26 31 q33 16 60 -17 q22 -33 62 -53 q44 -21 99 -20 q68 3 104 39 q35 36 33 85 q-3 64 -81 112 q-83 48 -155 81 q-93 47 -114 126 q-22 78 22 145 q51 81 179 86 q60 0 111 -19 q56 -21 87 -59 Z" /><glyph glyph-name="" unicode="T" d="M572 621 q-81 4 -182 0 q-10 -1 -13 -4 q-2 -3 -3 -13 q-4 -309 3 -593 q0 -25 -18 -36 q-19 -11 -41 -9 q-41 4 -45 45 q6 295 1 593 q0 10 -2 13 q-2 3 -11 4 q-71 3 -188 0 q-27 1 -40 17 q-12 17 -8 36 q5 35 48 38 q282 -5 499 0 q23 0 34 -15 q11 -15 10 -34 q-2 -39 -44 -42 Z" /><glyph glyph-name="" unicode="U" d="M680 669 q-4 -169 -1 -396 q2 -107 -47 -184 q-67 -106 -197 -127 q-136 -22 -237 60 q-108 86 -106 247 q4 239 0 400 q0 25 17 36 q17 11 38 9 q39 -3 43 -45 q-2 -202 0 -403 q0 -47 12 -85 q32 -93 123 -120 q92 -27 170 27 q86 60 86 181 q2 200 0 400 q0 26 18 37 q19 12 41 8 q37 -5 40 -45 Z" /><glyph glyph-name="" unicode="V" d="M620 652 q-105 -311 -211 -622 q-12 -35 -35 -51 q-23 -16 -50 -15 q-54 4 -82 68 q-125 342 -206 619 q-6 34 11 51 q18 17 43 14 q33 -2 45 -38 q72 -256 172 -567 q7 -20 16 -20 q9 0 18 23 q90 284 180 569 q9 25 29 31 q20 7 40 -1 q39 -15 30 -61 Z" /><glyph glyph-name="" unicode="W" d="M919 662 q-27 -137 -139 -602 q-15 -55 -51 -79 q-37 -23 -76 -11 q-51 15 -73 94 q-59 275 -96 518 q-3 20 -11 20 q-9 0 -12 -20 q-36 -235 -100 -517 q-16 -55 -49 -80 q-33 -24 -70 -18 q-64 9 -87 97 q-102 472 -123 598 q-3 30 17 43 q21 13 46 9 q31 -5 39 -36 q41 -238 107 -571 q6 -30 20 -28 q14 2 20 28 q20 87 106 534 q10 44 39 61 q31 18 66 10 q53 -11 68 -68 q50 -267 99 -534 q6 -27 16 -27 q13 1 20 27 q60 250 123 569 q6 25 26 33 q19 8 40 1 q38 -10 35 -51 Z" /><glyph glyph-name="" unicode="X" d="M686 52 q17 -23 9 -45 q-8 -22 -29 -33 q-32 -19 -61 12 q-118 150 -237 301 q-7 9 -15 -1 q-117 -150 -235 -300 q-17 -21 -39 -20 q-22 2 -38 18 q-28 28 -4 66 q229 279 256 313 q7 7 1 15 q-130 165 -210 256 q-17 21 -10 42 q8 21 28 33 q33 20 61 -11 q52 -70 190 -245 q7 -9 15 0 q143 183 188 244 q16 21 38 19 q21 -2 37 -18 q29 -28 5 -64 q-94 -113 -208 -256 q-6 -7 0 -16 q146 -178 258 -310 Z" /><glyph glyph-name="" unicode="Y" d="M626 636 q-97 -154 -225 -336 q-8 -12 -10 -19 q-2 -7 -2 -21 q1 -123 1 -245 q-1 -28 -21 -40 q-19 -12 -42 -8 q-39 6 -43 50 l0 244 q0 13 -2 19 q-2 5 -9 16 q-42 65 -226 338 q-17 29 -5 51 q12 22 37 29 q31 9 54 -25 q40 -71 191 -296 q6 -9 13 -9 q6 0 12 9 q114 159 189 297 q13 23 34 24 q21 2 39 -11 q35 -25 15 -67 Z" /><glyph glyph-name="" unicode="Z" d="M552 67 q29 1 41 -16 q13 -17 10 -38 q-4 -38 -52 -43 q-219 0 -438 0 q-58 1 -75 49 q-18 48 29 111 q301 373 366 462 q8 10 10 20 q2 10 -20 11 q-15 0 -315 -6 q-24 1 -35 18 q-11 17 -8 37 q4 37 43 40 q118 -5 369 0 q70 -2 86 -50 q15 -47 -31 -101 q-77 -86 -195 -235 q-119 -149 -185 -231 q-11 -13 -8 -23 q3 -10 21 -10 q157 -1 387 5 Z" /><glyph glyph-name="" unicode="[" d="M363 790 q24 -1 34 -16 q10 -14 7 -32 q-5 -34 -46 -37 q-80 4 -94 4 q-54 -2 -57 -65 q-6 -180 0 -608 q1 -63 56 -65 q69 0 95 3 q24 2 35 -12 q12 -14 10 -33 q-2 -34 -41 -39 q-88 -2 -110 -1 q-59 2 -93 40 q-34 38 -35 102 q-3 203 1 617 q1 63 33 101 q34 40 94 42 q21 1 111 -1 Z" /><glyph glyph-name="" unicode="\" d="M390 -18 q8 -23 -4 -38 q-11 -14 -30 -17 q-29 -5 -44 28 q-153 421 -277 749 q-7 23 8 37 q14 14 35 14 q26 0 36 -27 q14 -53 125 -350 q106 -283 151 -396 Z" /><glyph glyph-name="" unicode="]" d="M333 31 q-1 -63 -35 -102 q-34 -39 -92 -40 q-22 -1 -110 1 q-24 1 -34 17 q-10 15 -7 33 q4 35 45 34 q26 -3 94 -3 q56 2 56 65 q7 411 0 608 q-1 63 -57 65 q-13 0 -93 -4 q-23 0 -35 13 q-11 14 -11 31 q-1 36 41 41 q89 2 110 1 q60 -2 94 -42 q32 -38 33 -101 q5 -345 1 -617 Z" /><glyph glyph-name="" unicode="^" d="M382 574 q11 -32 -12 -46 q-23 -13 -46 9 q-28 38 -57 77 q-10 13 -17 13 q-8 0 -18 -13 q-43 -62 -57 -77 q-20 -24 -45 -8 q-25 16 -12 45 q14 31 82 145 q16 28 50 28 q34 0 50 -28 q68 -114 82 -145 Z" /><glyph glyph-name="" unicode="_" d="M500 -45 q-250 0 -500 0 q-24 1 -34 16 q-11 15 -8 33 q4 33 42 37 q250 0 500 0 q23 -1 34 -14 q10 -14 9 -32 q-2 -35 -43 -40 Z" /><glyph glyph-name="" unicode="`" d="M317 578 q11 -33 -13 -49 q-24 -16 -49 8 q-36 41 -99 130 q-16 26 -7 47 q9 21 30 30 q33 14 60 -23 q61 -104 78 -143 Z" /><glyph glyph-name="" unicode="a" d="M483 51 q15 -11 14 -29 q-1 -17 -13 -32 q-23 -30 -60 -8 q-26 19 -36 43 q-2 4 -4 4 q-3 0 -5 -3 q-24 -31 -68 -50 q-43 -18 -88 -18 q-94 4 -139 62 q-44 58 -26 124 q16 61 94 90 q88 29 176 43 q14 2 16 14 q6 45 -16 69 q-20 22 -61 23 q-69 1 -108 -44 q-15 -16 -32 -16 q-17 1 -29 12 q-26 24 2 62 q23 24 63 41 q49 20 106 20 q182 0 163 -199 q-7 -92 -4 -118 q7 -53 24 -68 q17 -16 31 -22 ZM347 189 q-2 16 -13 15 q-80 -11 -147 -33 q-32 -12 -45 -33 q-12 -22 -6 -45 q12 -50 86 -55 q67 0 99 39 q31 38 26 112 Z" /><glyph glyph-name="" unicode="b" d="M570 209 q0 -111 -67 -179 q-67 -68 -170 -68 q-85 0 -144 57 q-6 5 -7 6 q-2 0 -2 -7 q-1 -2 -1 -14 q-4 -19 -17 -29 q-14 -9 -30 -7 q-35 2 -40 46 q1 131 2 346 q2 216 -2 307 q-1 27 15 39 q16 12 36 9 q34 -3 38 -44 q-3 -80 -3 -274 q0 -6 2 -7 q1 -1 6 4 q59 61 147 61 q103 0 170 -69 q67 -69 67 -177 ZM484 209 q0 76 -45 123 q-43 45 -108 45 q-65 0 -108 -45 q-45 -47 -45 -123 q0 -75 45 -122 q43 -45 108 -45 q65 0 108 45 q45 47 45 122 Z" /><glyph glyph-name="" unicode="c" d="M479 41 q-31 -40 -80 -60 q-49 -21 -104 -21 q-109 -2 -184 74 q-69 76 -62 188 q7 110 81 177 q70 63 174 59 q100 -4 152 -64 q17 -22 12 -41 q-5 -20 -22 -31 q-29 -18 -59 13 q-33 41 -94 42 q-61 1 -101 -35 q-53 -48 -57 -122 q-5 -76 45 -131 q46 -47 116 -45 q69 2 108 50 q16 20 35 20 q18 0 33 -12 q28 -25 7 -61 Z" /><glyph glyph-name="" unicode="d" d="M555 38 q12 -25 2 -43 q-10 -19 -31 -25 q-32 -11 -53 24 q-9 17 -14 42 q-3 17 -10 4 q-62 -78 -163 -78 q-104 0 -170 67 q-68 69 -68 179 q0 108 68 178 q67 69 170 69 q88 0 146 -61 q9 -11 9 5 q-2 228 -3 272 q1 26 17 37 q16 11 36 7 q34 -5 36 -48 q-6 -82 -1 -500 q2 -85 29 -129 ZM440 208 q0 76 -44 123 q-43 46 -108 46 q-67 0 -109 -45 q-44 -47 -44 -124 q0 -76 44 -122 q42 -44 109 -44 q65 0 108 45 q44 46 44 121 Z" /><glyph glyph-name="" unicode="e" d="M482 331 q20 -50 0 -86 q-21 -39 -78 -41 q-128 0 -257 0 q-9 0 -9 -19 q0 -67 44 -108 q42 -39 103 -39 q78 0 135 63 q15 15 32 13 q17 -1 29 -14 q26 -26 0 -60 q-36 -40 -79 -59 q-51 -23 -118 -23 q-101 0 -168 69 q-67 69 -67 178 q0 111 69 183 q67 70 163 70 q75 0 130 -38 q50 -34 71 -89 ZM398 316 q-11 27 -37 45 q-32 22 -79 22 q-46 0 -85 -28 q-38 -28 -49 -66 q-2 -7 0 -10 q2 -3 9 -3 q90 -3 221 0 q16 1 21 12 q6 11 -1 28 Z" /><glyph glyph-name="" unicode="f" d="M317 715 q21 -3 30 -15 q9 -12 9 -27 q-3 -38 -46 -41 q-43 3 -70 -26 q-26 -28 -28 -76 q1 -36 1 -72 q1 -7 2 -8 q2 -2 12 -2 l85 0 q20 -1 30 -14 q10 -13 9 -30 q-2 -35 -39 -39 l-87 0 q-8 0 -10 -2 q-2 -2 -2 -13 q3 -280 2 -336 q-1 -26 -17 -37 q-16 -12 -35 -9 q-35 4 -37 46 q0 168 0 336 q0 10 -2 12 q-3 3 -14 3 l-45 0 q-21 1 -31 15 q-9 14 -7 31 q3 33 38 37 l46 0 q9 0 11 1 q4 2 4 11 q0 39 -1 78 q3 87 65 138 q57 47 127 39 Z" /><glyph glyph-name="" unicode="g" d="M534 -148 q-20 -83 -114 -121 q-83 -34 -193 -22 q-73 8 -124 43 q-51 35 -60 82 q-10 49 17 88 q24 34 70 53 q4 2 5 3 q2 1 2 2 q-1 1 -11 4 q-26 9 -42 29 q-15 19 -15 42 q0 55 62 89 q10 5 11 7 q2 3 -11 12 q-61 47 -64 124 q0 80 61 127 q56 43 134 42 q66 0 115 -25 q16 -9 30 -1 q49 32 102 20 q19 -4 26 -19 q8 -15 4 -32 q-6 -32 -45 -29 q-26 5 -43 -8 q-7 -4 -4 -14 q10 -28 11 -51 q3 -76 -45 -122 q-50 -48 -142 -51 q-42 -2 -71 -12 q-40 -14 -45 -39 q-5 -24 26 -28 q34 -5 97 -5 q58 2 127 -7 q72 -15 108 -62 q38 -50 21 -119 ZM377 292 q-1 40 -29 65 q-31 27 -86 27 q-46 -1 -78 -27 q-34 -28 -33 -71 q2 -42 29 -66 q30 -26 83 -25 q39 -1 75 21 q38 22 39 76 ZM446 -138 q11 34 -6 62 q-19 33 -67 39 q-56 6 -122 3 q-44 -3 -82 -28 q-43 -29 -44 -69 q-1 -28 28 -52 q30 -25 76 -31 q65 -8 122 5 q78 18 95 71 Z" /><glyph glyph-name="" unicode="h" d="M496 10 q-1 -25 -16 -36 q-15 -11 -34 -9 q-35 3 -39 42 q4 156 0 269 q-8 74 -55 93 q-49 21 -102 -3 q-67 -29 -76 -102 q-4 -78 1 -257 q0 -25 -16 -35 q-16 -10 -36 -7 q-34 5 -37 43 q3 102 3 668 q1 21 16 31 q15 10 34 8 q35 -2 39 -40 q-1 -133 -2 -265 q0 -4 1 -5 q1 -1 5 3 q43 39 110 49 q67 9 125 -23 q70 -36 78 -144 q4 -185 1 -280 Z" /><glyph glyph-name="" unicode="i" d="M201 662 q0 -27 -19 -46 q-17 -17 -42 -18 q-28 -1 -45 14 q-19 16 -20 47 q-1 31 22 49 q20 15 43 14 q25 -1 43 -18 q18 -17 18 -42 ZM184 10 q0 -23 -15 -34 q-14 -12 -33 -11 q-39 1 -44 44 q2 233 0 403 q0 24 16 34 q16 11 36 9 q37 -3 40 -42 q-4 -153 0 -403 Z" /><glyph glyph-name="" unicode="j" d="M203 660 q0 -27 -19 -46 q-17 -17 -41 -18 q-29 -1 -46 14 q-18 16 -19 47 q-1 31 22 49 q19 15 42 14 q25 -1 43 -18 q18 -17 18 -42 ZM188 -53 q-1 -96 -58 -160 q-52 -60 -129 -70 q-26 -2 -39 14 q-12 16 -9 37 q3 25 33 32 q47 8 79 50 q33 43 35 107 q1 74 -1 119 q-2 277 -2 331 q1 26 18 37 q16 11 36 7 q34 -5 37 -43 q-2 -112 0 -335 q0 -63 0 -126 Z" /><glyph glyph-name="" unicode="k" d="M487 49 q18 -20 15 -40 q-2 -19 -18 -32 q-31 -25 -65 3 q-90 92 -202 212 q-8 9 -27 9 q-7 -1 -10 -3 q-3 -3 -4 -9 q-3 -47 0 -181 q0 -23 -15 -34 q-14 -11 -33 -9 q-38 2 -42 43 q9 376 3 669 q1 21 16 31 q16 10 36 8 q36 -3 39 -40 q-1 -189 -3 -377 q0 -14 16 -14 q11 0 21 7 q53 37 197 150 q21 15 39 9 q18 -6 28 -24 q19 -32 -10 -58 q-102 -73 -172 -118 q-9 -6 -9 -10 q0 -5 8 -13 q96 -90 192 -179 Z" /><glyph glyph-name="" unicode="l" d="M183 14 q0 -25 -16 -37 q-16 -11 -36 -9 q-37 3 -41 46 q5 372 0 653 q0 27 17 39 q17 12 37 9 q36 -4 39 -46 q-4 -256 0 -655 Z" /><glyph glyph-name="" unicode="m" d="M742 12 q-1 -26 -15 -37 q-13 -12 -30 -11 q-37 2 -41 45 q4 160 0 277 q-6 67 -46 84 q-41 17 -86 -6 q-64 -32 -72 -105 q-4 -81 1 -250 q0 -23 -15 -35 q-15 -11 -33 -9 q-33 2 -36 44 q3 215 0 277 q-6 68 -45 85 q-40 17 -84 -4 q-65 -32 -74 -110 q-2 -99 2 -248 q-1 -26 -16 -37 q-15 -11 -33 -8 q-34 4 -37 46 q6 243 2 403 q0 21 13 32 q14 11 31 10 q35 -1 41 -41 q1 -5 1 -10 q0 -9 4 -3 q33 37 79 50 q45 13 89 1 q63 -16 92 -84 q44 65 105 82 q62 18 116 -9 q77 -36 85 -146 q6 -152 2 -283 Z" /><glyph glyph-name="" unicode="n" d="M496 11 q-1 -24 -15 -35 q-14 -11 -32 -10 q-38 2 -42 43 q4 156 0 271 q-8 72 -54 89 q-48 17 -100 -9 q-70 -34 -79 -109 q-2 -106 1 -242 q0 -24 -15 -35 q-15 -10 -34 -8 q-37 4 -40 44 q6 218 2 403 q0 21 15 31 q16 10 35 8 q35 -2 39 -39 l0 -20 q-1 -9 5 -1 q46 50 110 61 q64 11 120 -18 q75 -37 83 -143 q4 -187 1 -281 Z" /><glyph glyph-name="" unicode="o" d="M537 208 q0 -111 -70 -180 q-69 -68 -175 -68 q-106 0 -175 68 q-70 69 -70 180 q0 107 70 178 q70 71 175 71 q105 0 175 -71 q70 -71 70 -178 ZM450 208 q0 77 -46 124 q-45 46 -112 46 q-67 0 -112 -46 q-46 -47 -46 -124 q0 -75 46 -122 q45 -46 112 -46 q67 0 112 46 q46 47 46 122 Z" /><glyph glyph-name="" unicode="p" d="M566 208 q0 -108 -68 -178 q-67 -69 -169 -69 q-86 0 -146 60 q-9 13 -9 -3 q1 -131 2 -262 q-1 -24 -16 -35 q-15 -11 -34 -9 q-37 3 -39 48 q4 78 0 641 q0 26 16 38 q15 12 34 10 q31 -4 38 -38 q0 -8 0 -15 q0 -5 2 -5 q1 0 5 4 q57 59 147 59 q102 0 169 -68 q68 -69 68 -178 ZM479 208 q0 75 -44 122 q-42 45 -108 45 q-65 0 -108 -45 q-45 -47 -45 -122 q0 -75 45 -123 q43 -46 108 -46 q65 0 108 46 q44 47 44 123 Z" /><glyph glyph-name="" unicode="q" d="M527 -239 q1 -27 -15 -39 q-16 -12 -36 -9 q-34 3 -38 44 q4 110 4 267 l0 9 q-2 -3 -5 -5 q-60 -66 -152 -66 q-102 0 -169 69 q-68 70 -68 177 q0 110 68 179 q67 68 169 68 q87 0 145 -58 q8 -11 9 3 l0 13 q4 20 17 30 q14 10 30 9 q36 -1 41 -49 q0 -4 -2 -238 q-2 -315 2 -404 ZM440 208 q0 75 -45 122 q-43 45 -108 45 q-65 0 -108 -45 q-44 -46 -44 -122 q0 -76 44 -123 q42 -45 108 -45 q65 0 108 45 q45 47 45 123 Z" /><glyph glyph-name="" unicode="r" d="M311 367 q-49 -3 -90 -36 q-44 -35 -46 -83 q-3 -71 1 -240 q0 -23 -15 -34 q-14 -11 -33 -9 q-38 3 -42 44 q7 242 2 404 q-1 19 15 30 q14 10 31 9 q17 0 30 -10 q14 -11 14 -30 q0 -12 -1 -19 q0 -4 0 -5 q1 -1 2 0 q1 1 3 3 q47 56 128 63 q24 2 37 -11 q12 -13 12 -31 q-1 -37 -48 -45 Z" /><glyph glyph-name="" unicode="s" d="M340 407 q15 -18 12 -35 q-4 -18 -18 -29 q-27 -21 -61 10 q-25 27 -71 27 q-51 -3 -60 -37 q-10 -35 37 -62 q51 -24 102 -48 q69 -38 87 -90 q18 -51 -5 -98 q-39 -79 -151 -86 q-107 -2 -161 63 q-18 24 -13 44 q6 20 25 28 q28 14 53 -14 q31 -39 94 -41 q68 6 77 50 q9 40 -46 72 q-67 36 -98 49 q-63 30 -80 79 q-18 50 6 96 q32 67 134 72 q92 0 137 -50 Z" /><glyph glyph-name="" unicode="t" d="M295 -36 q-69 -13 -119 15 q-61 35 -63 124 q1 125 2 251 q0 8 -4 11 q-3 2 -10 2 l-40 0 q-22 1 -31 15 q-10 15 -7 32 q3 30 38 33 l39 0 q10 0 13 3 q2 2 2 12 q2 21 0 88 q0 22 14 33 q14 11 33 9 q36 -2 41 -42 q1 -15 -2 -88 q0 -10 3 -13 q2 -2 12 -2 l74 0 q21 -1 31 -14 q9 -14 8 -30 q-3 -32 -39 -36 l-73 0 q-11 0 -14 -3 q-2 -2 -2 -9 q-1 -122 -2 -244 q1 -46 28 -61 q21 -12 62 -7 q23 2 34 -11 q11 -14 9 -31 q-2 -28 -37 -37 Z" /><glyph glyph-name="" unicode="u" d="M508 41 q15 -28 6 -48 q-9 -19 -29 -25 q-34 -10 -56 27 q-10 20 -13 33 q-1 4 -3 5 q-1 0 -4 -3 q-46 -54 -115 -67 q-68 -12 -127 19 q-75 37 -83 143 q-6 147 -2 281 q1 24 15 35 q14 11 32 10 q38 -2 42 -43 q-3 -209 0 -271 q8 -73 53 -91 q45 -19 94 4 q69 31 78 108 q3 83 -1 250 q0 24 15 35 q15 10 34 8 q37 -4 40 -44 q-4 -192 -4 -236 q0 -80 28 -130 Z" /><glyph glyph-name="" unicode="v" d="M453 395 q-49 -147 -146 -381 q-23 -47 -66 -49 q-40 -2 -63 49 q-88 218 -147 378 q-7 27 6 43 q13 15 33 17 q31 2 45 -32 q46 -122 114 -321 q7 -21 13 -18 q6 2 11 18 q99 275 115 323 q8 21 25 27 q17 5 34 -1 q35 -13 26 -53 Z" /><glyph glyph-name="" unicode="w" d="M681 406 q-30 -142 -104 -375 q-12 -33 -35 -50 q-24 -16 -50 -14 q-45 2 -65 66 q-52 205 -68 318 q-2 13 -7 13 q-5 1 -8 -13 q-31 -175 -69 -317 q-11 -37 -35 -54 q-25 -17 -52 -14 q-48 5 -67 68 l-27 109 q-54 217 -64 262 q-4 23 11 35 q15 12 35 11 q30 -1 40 -30 q41 -177 75 -359 q4 -19 10 -18 q6 1 10 18 q37 167 74 335 q8 34 33 46 q26 12 53 4 q37 -10 47 -47 q36 -152 74 -335 q4 -19 8 -17 q6 2 9 16 q61 229 88 357 q4 18 19 25 q14 7 31 4 q37 -6 34 -44 Z" /><glyph glyph-name="" unicode="x" d="M453 38 q14 -18 10 -35 q-5 -18 -20 -29 q-30 -22 -59 7 q-7 9 -134 165 q-5 7 -11 0 q-106 -128 -133 -165 q-15 -18 -34 -16 q-19 1 -32 15 q-25 25 -3 57 q74 85 148 171 q5 7 1 14 q-76 91 -125 146 q-14 17 -10 34 q4 16 18 27 q30 24 59 -5 q53 -69 111 -140 q3 -4 6 -4 q2 0 4 3 q64 78 110 140 q15 18 33 16 q19 -2 32 -15 q25 -25 3 -57 q-46 -53 -123 -146 q-5 -6 0 -12 q75 -86 149 -171 Z" /><glyph glyph-name="" unicode="y" d="M469 387 q-98 -235 -196 -469 q-45 -108 -90 -153 q-53 -52 -133 -53 q-22 0 -33 15 q-11 14 -9 33 q2 35 42 41 q50 1 83 39 q28 32 65 118 q7 16 -2 38 q-80 195 -160 391 q-9 27 4 44 q13 17 34 19 q30 3 44 -28 q60 -161 124 -321 q4 -11 7 -13 q4 -3 11 12 q47 104 123 320 q9 22 27 28 q19 6 37 -2 q35 -15 22 -59 Z" /><glyph glyph-name="" unicode="z" d="M387 51 q23 0 34 -11 q12 -12 12 -28 q0 -37 -46 -42 q-146 0 -293 0 q-47 1 -63 37 q-16 36 23 82 q99 105 232 254 q12 15 10 22 q-2 7 -14 6 q-68 0 -191 -3 q-22 0 -32 15 q-10 14 -7 31 q3 31 39 33 q81 -3 252 0 q54 1 66 -40 q12 -40 -24 -76 q-121 -130 -243 -259 q-7 -8 -6 -16 q1 -9 17 -9 q117 2 234 4 Z" /><glyph glyph-name="" unicode="{" d="M294 -30 q22 -3 31 -17 q9 -15 5 -32 q-6 -34 -48 -33 q-65 9 -99 37 q-34 28 -45 71 q-16 83 4 204 q4 76 -43 91 q-22 7 -31 25 q-8 18 -4 37 q7 30 37 37 q25 4 36 27 q11 22 6 56 q-20 146 3 217 q30 92 138 102 q25 1 37 -13 q12 -15 10 -34 q-3 -30 -39 -36 q-61 -6 -73 -68 q-12 -62 3 -158 q6 -45 -4 -80 q-13 -44 -50 -62 q-5 -3 -5 -5 q-2 -3 5 -6 q66 -35 55 -137 q-5 -36 -11 -82 q-5 -45 6 -83 q12 -50 76 -58 Z" /><glyph glyph-name="" unicode="|" d="M209 -30 q-1 -23 -15 -33 q-15 -10 -34 -7 q-30 4 -33 40 q5 410 0 761 q0 21 14 31 q13 10 30 9 q35 -1 38 -38 q0 -382 0 -763 Z" /><glyph glyph-name="" unicode="}" d="M283 291 q-47 -15 -43 -91 q9 -73 11 -114 q2 -58 -8 -94 q-26 -88 -142 -104 q-26 -2 -38 13 q-13 15 -11 34 q2 29 37 35 q42 4 61 28 q18 24 21 58 q0 74 -12 137 q-11 102 55 137 q6 3 6 5 q0 3 -6 6 q-36 17 -49 62 q-11 37 -5 80 q15 108 4 157 q-14 65 -73 69 q-22 3 -32 16 q-10 13 -8 29 q2 37 47 38 q109 -10 139 -102 q23 -70 2 -217 q-5 -34 6 -56 q11 -23 37 -27 q16 -2 27 -17 q9 -13 10 -30 q1 -42 -36 -52 Z" /><glyph glyph-name="" unicode="~" d="M574 326 q-115 -100 -233 -44 q-21 12 -43 25 q-52 25 -87 18 q-29 -6 -80 -45 q-36 -21 -60 6 q-22 26 7 58 q57 52 108 67 q64 18 134 -16 q19 -10 38 -20 q49 -23 82 -19 q34 4 84 41 q37 20 59 -11 q21 -28 -9 -60 Z" /><glyph glyph-name="" unicode="·&#x2022;" d="M563 351 q0 -26 -19 -45 q-18 -18 -42 -19 q-29 0 -46 15 q-18 16 -19 46 q-1 32 22 50 q19 15 43 14 q24 -1 43 -19 q18 -18 18 -42 Z" /><glyph glyph-name="" unicode="×" d="M710 91 q-150 155 -198 203 q-13 13 -25 -1 q-47 -47 -197 -202 q-21 -17 -37 2 q-16 18 -2 37 l202 197 q12 12 0 26 q-101 98 -202 197 q-15 20 2 37 q17 17 37 2 q99 -101 197 -201 q14 -14 26 0 q99 100 197 201 q20 15 37 -2 q17 -17 2 -37 q-101 -99 -202 -197 q-12 -13 2 -27 q100 -98 200 -196 q14 -19 -2 -37 q-16 -18 -37 -2 Z" /><glyph glyph-name="" unicode="é" d="M363 667 q-49 -71 -98 -130 q-25 -24 -50 -8 q-24 16 -13 49 q27 58 79 143 q16 25 37 26 q22 1 38 -13 q30 -25 7 -67 ZM482 331 q20 -50 0 -86 q-21 -39 -78 -41 q-128 0 -257 0 q-9 0 -9 -19 q0 -67 44 -108 q42 -39 103 -39 q78 0 135 63 q15 15 32 13 q17 -1 29 -14 q26 -26 0 -60 q-36 -40 -79 -59 q-51 -23 -118 -23 q-101 0 -168 69 q-67 69 -67 178 q0 111 69 183 q67 70 163 70 q75 0 130 -38 q50 -34 71 -89 ZM398 316 q-11 27 -37 45 q-32 22 -79 22 q-46 0 -85 -28 q-38 -28 -49 -66 q-2 -7 0 -10 q2 -3 9 -3 q90 -3 221 0 q16 1 21 12 q6 11 -1 28 Z" /><glyph glyph-name="" unicode="&#x2014;" d="M1010 393 l0 -86 q-509 0 -1019 0 l0 86 l1019 0 Z" /><glyph glyph-name="" unicode="&#x201c;" d="M850 639 q-13 -21 -32 -25 q-19 -4 -35 5 q-36 19 -13 68 q65 114 84 138 q23 23 49 10 q26 -13 16 -45 q-45 -107 -69 -151 ZM681 638 q-15 -21 -35 -24 q-21 -3 -37 9 q-31 20 -8 64 q54 86 98 139 q23 23 49 9 q26 -13 15 -45 q-45 -93 -82 -152 Z" /><glyph glyph-name="" unicode="&#x201d;" d="M317 627 q-23 -23 -49 -10 q-26 14 -15 46 q45 93 82 152 q15 21 35 23 q21 3 37 -8 q31 -20 8 -64 q-54 -86 -98 -139 ZM162 628 q-23 -24 -49 -11 q-26 14 -16 46 q45 107 69 151 q13 20 32 25 q19 4 35 -5 q36 -19 13 -68 q-65 -114 -84 -138 Z" /><glyph glyph-name="" unicode="&#x2026;&#x22ef;" d="M899 352 q0 -27 -20 -47 q-19 -18 -44 -19 q-29 -1 -46 14 q-20 17 -21 48 q-1 32 23 51 q21 16 44 15 q26 -1 45 -19 q19 -18 19 -43 ZM565 352 q0 -28 -19 -47 q-18 -18 -44 -19 q-30 -1 -47 14 q-19 16 -20 48 q-1 32 23 51 q20 16 44 15 q25 -1 44 -19 q19 -18 19 -43 ZM232 352 q0 -28 -19 -47 q-18 -18 -44 -19 q-29 -1 -47 14 q-20 17 -21 48 q-1 32 24 51 q21 16 44 15 q25 -1 44 -19 q19 -18 19 -43 Z" /><glyph glyph-name="" unicode="&#x2032;" d="M206 671 q-69 -104 -97 -138 q-24 -23 -48 -9 q-23 14 -12 48 q36 79 78 151 q13 21 33 24 q20 3 36 -8 q34 -22 10 -68 Z" /><glyph glyph-name="" unicode="&#x2160;" d="M551 14 q-1 -25 -18 -37 q-17 -11 -39 -9 q-41 3 -45 46 q8 429 0 655 q0 26 20 38 q20 11 43 7 q36 -5 39 -43 q-6 -224 0 -657 Z" /><glyph glyph-name="" unicode="&#x2161;" d="M712 14 q-1 -26 -18 -37 q-18 -12 -40 -9 q-39 4 -43 46 q8 429 0 655 q0 27 20 38 q19 11 42 7 q36 -5 39 -43 q-6 -224 0 -657 ZM389 14 q-1 -26 -18 -37 q-18 -12 -40 -9 q-39 4 -43 46 q8 429 0 655 q0 27 20 38 q20 11 43 7 q35 -5 38 -43 q-5 -258 0 -657 Z" /><glyph glyph-name="" unicode="&#x2162;" d="M803 14 q-1 -25 -18 -37 q-17 -11 -38 -9 q-40 3 -44 46 q9 448 0 655 q0 25 18 37 q17 11 39 9 q39 -4 43 -44 q-6 -224 0 -657 ZM550 14 q-1 -25 -18 -37 q-17 -11 -38 -9 q-40 3 -44 46 q8 429 0 655 q0 25 18 37 q17 11 39 9 q39 -4 43 -44 q-7 -268 0 -657 ZM297 14 q-1 -25 -18 -37 q-17 -11 -38 -9 q-40 3 -44 46 q8 429 0 655 q0 25 18 37 q17 11 39 9 q39 -4 43 -44 q-7 -268 0 -657 Z" /><glyph glyph-name="" unicode="&#x2500;" d="M0 375 l1000 0 l0 -51 l-1000 0 l0 51 Z" /><glyph glyph-name="" unicode="&#x2605;" d="M758 -85 l-239 174 q-19 15 -38 0 l-239 -174 q-20 -14 -31 -7 q-11 8 -3 32 l93 287 q5 16 -9 28 l-245 177 q-20 15 -16 27 q4 12 30 12 l303 0 q16 0 21 17 l94 287 q7 21 17 24 q15 5 25 -24 l94 -287 q5 -17 21 -17 l303 0 q26 0 30 -12 q4 -12 -16 -27 l-245 -177 q-14 -12 -9 -28 l93 -287 q8 -24 -3 -32 q-11 -7 -31 7 Z" /><glyph glyph-name="" unicode="&#x2606;" d="M758 -85 l-239 174 q-19 15 -38 0 l-239 -174 q-20 -14 -31 -7 q-11 8 -3 32 l93 287 q5 16 -9 28 l-245 177 q-20 15 -16 27 q4 12 30 12 l302 0 q17 0 22 17 l94 287 q7 21 17 24 q15 5 25 -24 l94 -287 q5 -17 22 -17 l302 0 q26 0 30 -12 q4 -12 -16 -27 l-245 -177 q-14 -12 -9 -28 l93 -287 q8 -24 -3 -32 q-11 -7 -31 7 ZM520 144 l189 -139 q7 -5 11 -3 q4 2 2 10 l-76 230 q-4 16 9 30 l204 148 q6 4 4 8 q-2 4 -10 4 l-248 -4 q-18 1 -24 16 l-75 238 q-1 5 -6 5 q-5 0 -6 -5 l-75 -238 q-6 -15 -24 -16 l-248 4 q-8 0 -10 -4 q-2 -4 4 -8 l204 -148 q13 -14 9 -30 l-76 -230 q-2 -8 2 -10 q4 -2 11 3 l189 139 q20 15 40 0 Z" /><glyph glyph-name="" unicode="&#x3001;" d="M283 -33 q-18 28 -58 61 q-38 32 -72 49 q-18 10 -22 24 q-4 15 3 28 q16 30 62 14 q47 -23 88 -52 q47 -34 67 -63 q16 -25 10 -45 q-7 -20 -24 -30 q-30 -15 -54 14 Z" /><glyph glyph-name="" unicode="&#x3002;" d="M365 63 q0 -48 -33 -81 q-34 -34 -82 -34 q-47 0 -81 34 q-33 33 -33 81 q0 48 33 81 q33 33 81 33 q49 0 82 -33 q33 -33 33 -81 ZM328 63 q0 32 -23 54 q-23 22 -55 22 q-32 0 -54 -22 q-23 -23 -23 -54 q0 -32 23 -55 q23 -23 54 -23 q32 0 55 23 q23 23 23 55 Z" /><glyph glyph-name="" unicode="&#x300a;" d="M852 -60 q7 -12 1 -24 q-6 -12 -19 -21 q-30 -20 -48 -2 q-189 297 -236 372 q-53 83 -1 169 q30 49 237 372 q18 18 46 0 q29 -18 20 -46 q-66 -99 -240 -372 q-26 -40 -1 -76 q121 -186 241 -372 ZM716 -60 q12 -26 -18 -46 q-30 -19 -48 -1 q-82 127 -231 372 q-54 81 -1 169 q149 246 232 373 q17 17 46 -1 q29 -18 20 -46 q-117 -186 -235 -372 q-26 -40 -1 -76 q29 -41 115 -181 q83 -135 121 -191 Z" /><glyph glyph-name="" unicode="&#x300b;" d="M152 -60 q121 186 241 372 q25 36 -1 76 q-174 273 -240 372 q-9 28 20 46 q28 18 46 0 q207 -323 237 -372 q52 -86 -1 -169 q-47 -75 -236 -372 q-8 -10 -22 -8 q-14 1 -27 11 q-28 19 -17 44 ZM288 -60 q38 56 121 191 q86 140 115 181 q25 36 -1 76 q-117 186 -235 372 q-9 28 20 46 q29 18 46 1 q83 -127 232 -373 q54 -88 -1 -169 q-148 -245 -231 -372 q-18 -18 -48 1 q-30 20 -18 46 Z" /><glyph glyph-name="" unicode="&#x300c;" d="M740 792 q20 0 32 -13 q10 -11 10 -27 q0 -15 -14 -28 q-14 -13 -33 -12 q-84 3 -136 3 q-25 -1 -39 -15 q-16 -16 -17 -46 q-6 -152 -2 -462 q2 -158 2 -241 q0 -23 -12 -35 q-11 -11 -28 -11 q-35 2 -42 43 q-3 179 1 712 q1 59 33 94 q34 37 94 39 q70 2 151 -1 Z" /><glyph glyph-name="" unicode="&#x300d;" d="M261 -91 q-21 0 -32 12 q-10 11 -10 28 q0 15 14 28 q14 13 33 12 q84 -3 136 -3 q25 1 39 15 q16 16 17 46 q6 152 2 462 q-2 158 -2 241 q0 22 13 35 q11 11 27 11 q35 -2 42 -43 q3 -179 -1 -712 q-1 -59 -33 -94 q-34 -37 -94 -39 q-69 -2 -151 1 Z" /><glyph glyph-name="" unicode="&#x3010;" d="M754 -44 q19 -14 15 -37 q-3 -21 -32 -24 q-105 -5 -234 0 q-36 2 -51 18 q-16 18 -17 57 q-3 381 0 760 q1 39 17 57 q15 16 51 18 q129 5 234 0 q29 -3 32 -24 q4 -23 -15 -37 q-99 -59 -148 -170 q-43 -97 -43 -224 q0 -127 43 -224 q49 -111 148 -170 Z" /><glyph glyph-name="" unicode="&#x3011;" d="M561 -30 q-1 -39 -17 -57 q-15 -16 -51 -18 q-129 -5 -234 0 q-30 4 -32 26 q-3 22 15 35 q99 59 148 170 q43 97 43 224 q0 127 -43 224 q-49 111 -148 170 q-18 13 -15 35 q2 22 32 26 q105 5 234 0 q36 -2 51 -18 q16 -18 17 -57 q3 -379 0 -760 Z" /><glyph glyph-name="" unicode="&#x3042;" d="M494 703 l-15 -84 q78 16 148 43 q23 8 39 -3 q15 -11 17 -30 q3 -27 -37 -43 q-90 -30 -180 -45 q-5 -31 -14 -105 q59 21 113 25 l17 0 q0 6 1 9 q3 20 17 27 q13 8 29 5 q35 -7 35 -40 q0 -3 -1 -5 q145 -29 189 -132 q48 -110 -23 -229 q-63 -108 -229 -166 q-34 -10 -53 1 q-18 11 -17 31 q0 28 42 44 q120 41 172 114 q51 72 38 143 q-18 95 -136 124 q-45 -135 -176 -257 q6 -15 15 -27 q12 -22 5 -41 q-7 -19 -25 -27 q-28 -14 -53 24 l-8 15 q-54 -42 -113 -72 q-51 -26 -94 -2 q-50 28 -44 111 q5 71 56 146 q48 71 119 118 q23 15 46 27 q3 38 13 130 q-84 -5 -132 10 q-21 7 -27 23 q-6 16 1 32 q11 27 50 19 q45 -14 118 -8 l14 97 q4 24 18 34 q15 10 31 8 q36 -4 34 -44 ZM381 148 q-14 71 -11 174 l-5 -3 q-129 -99 -137 -202 q-1 -29 15 -38 q16 -8 39 4 q48 25 99 65 ZM445 362 q-6 -94 3 -153 q83 86 117 183 q-4 -1 -11 -1 q-49 -5 -109 -29 Z" /><glyph glyph-name="" unicode="&#x3044;" d="M898 276 q2 -30 -15 -45 q-18 -16 -39 -13 q-28 2 -36 36 q-12 62 -43 115 q-31 54 -73 83 q-16 12 -16 27 q0 16 11 27 q22 25 63 -1 q55 -41 97 -103 q44 -66 51 -126 ZM498 191 q-12 -33 -38 -76 q-43 -71 -102 -76 q-53 -5 -97 41 q-99 105 -112 318 q-6 84 -5 111 q2 22 15 33 q14 12 31 12 q35 1 41 -44 q1 -46 1 -92 q7 -192 83 -264 q21 -21 37 -20 q17 1 35 26 q13 19 33 62 q9 19 24 23 q15 4 30 -3 q32 -15 24 -51 Z" /><glyph glyph-name="" unicode="&#x3048;" d="M480 733 q67 -43 134 -65 q23 -9 29 -25 q6 -15 -2 -31 q-17 -34 -65 -23 q-43 15 -92 44 q-38 22 -61 41 q-29 28 -8 53 q23 27 65 6 ZM817 -26 q-84 -30 -191 -28 q-17 0 -34 3 q-90 12 -127 103 q-22 48 -71 41 q-49 -8 -101 -83 q-19 -27 -24 -33 q-24 -26 -56 -28 q-25 0 -38 19 q-15 22 10 52 q66 76 119 124 q47 47 94 94 q89 89 167 181 q15 19 -4 9 q-124 -58 -218 -79 q-34 -6 -50 8 q-17 15 -15 36 q2 30 38 38 q74 11 178 47 q58 22 78 26 q61 8 88 -28 q27 -35 -5 -75 q-107 -109 -252 -253 q38 14 73 2 q38 -13 57 -54 q17 -36 37 -52 q24 -19 60 -18 q92 4 160 33 q30 12 49 0 q18 -13 18 -36 q1 -31 -40 -49 Z" /><glyph glyph-name="" unicode="&#x304a;" d="M821 84 q-49 -70 -140 -87 q-92 -17 -176 31 q-17 10 -22 25 q-4 15 2 29 q15 33 57 18 q135 -66 204 27 q29 38 26 76 q-3 49 -65 72 q-72 26 -168 2 q-55 -13 -110 -41 q4 -106 7 -152 q5 -91 -63 -112 q-57 -17 -130 18 q-75 37 -76 86 q-1 39 44 89 q48 53 144 108 q0 69 -1 138 q-64 -13 -128 -5 q-24 4 -34 19 q-11 14 -7 31 q6 35 59 29 q43 -9 111 9 q1 50 -3 125 q0 26 16 38 q16 11 36 8 q33 -4 35 -45 l-6 -98 q30 14 53 30 q21 13 39 5 q18 -8 24 -27 q9 -27 -26 -52 q-44 -27 -96 -46 q-2 -74 -1 -121 q52 23 93 35 q117 34 219 -1 q104 -36 119 -120 q13 -71 -36 -141 ZM911 501 q15 -17 14 -33 q-1 -17 -13 -29 q-26 -26 -62 0 q-23 21 -61 34 q-42 14 -80 9 q-20 -2 -31 9 q-12 11 -13 26 q-4 33 41 41 q53 4 116 -13 q63 -18 89 -44 ZM357 78 l0 116 q-50 -34 -88 -75 q-18 -19 -17 -37 q1 -19 22 -28 q40 -19 60 -14 q22 5 23 38 Z" /><glyph glyph-name="" unicode="&#x304b;" d="M469 637 q-9 -66 -32 -151 q30 2 45 4 q64 5 101 -29 q41 -37 43 -116 q5 -118 -34 -225 q-31 -74 -94 -105 q-64 -32 -137 -10 q-25 8 -34 24 q-8 15 -4 31 q10 35 51 29 q50 -12 80 -1 q35 13 57 61 q32 65 34 178 q0 49 -16 71 q-17 24 -56 20 l-57 -6 q-74 -235 -195 -405 q-18 -23 -40 -26 q-23 -3 -39 10 q-31 23 4 69 q107 120 182 341 l-24 -4 q-68 -11 -107 -11 q-22 1 -33 13 q-11 12 -10 27 q1 34 41 41 q50 2 99 5 q20 1 55 5 q24 83 34 167 q3 21 17 30 q14 10 31 8 q38 -2 38 -45 ZM937 316 q8 -25 -1 -42 q-10 -18 -28 -24 q-31 -11 -49 24 q-21 50 -56 94 q-43 55 -96 83 q-29 21 -10 48 q18 27 60 8 q131 -78 180 -191 Z" /><glyph glyph-name="" unicode="&#x304f;" d="M653 3 q11 -26 0 -46 q-10 -21 -31 -29 q-33 -13 -54 22 q-96 188 -214 328 q-49 57 -47 109 q2 54 58 112 q98 99 108 110 q61 65 100 118 q17 22 38 22 q21 -1 36 -16 q27 -26 3 -63 q-37 -45 -143 -143 q-38 -37 -77 -74 q-34 -34 -36 -61 q-2 -26 25 -59 q133 -167 134 -169 q67 -89 100 -161 Z" /><glyph glyph-name="" unicode="&#x3051;" d="M760 353 q7 -153 -38 -260 q-47 -112 -160 -192 q-22 -14 -41 -9 q-20 5 -29 21 q-15 27 18 53 q95 61 136 160 q37 90 33 226 l-3 93 q-104 -15 -178 -7 q-22 3 -32 17 q-10 14 -7 30 q5 34 54 31 q55 -9 162 5 l0 33 q0 45 -3 69 q-3 24 -6 50 q-2 29 14 40 q17 12 37 7 q29 -5 37 -35 q7 -31 5 -119 l-2 -30 q37 7 70 17 q28 6 44 -9 q16 -14 12 -35 q-3 -23 -41 -33 l-86 -18 l4 -105 ZM397 264 q-49 -110 -52 -179 q0 -9 1 -26 q0 -16 -8 -28 q-14 -18 -38 -18 q-25 0 -38 25 q-48 91 -53 211 q-3 74 12 199 q6 55 8 75 q7 67 13 134 q2 20 14 30 q13 10 29 9 q36 0 40 -41 q0 -33 -16 -137 q-3 -23 -11 -69 q-11 -71 -14 -106 q-5 -61 3 -109 q5 -35 18 -5 q14 30 28 60 q9 18 22 22 q13 5 25 -1 q26 -14 17 -46 Z" /><glyph glyph-name="" unicode="&#x3052;" d="M756 353 q7 -153 -38 -260 q-47 -112 -160 -192 q-23 -15 -42 -9 q-20 6 -29 23 q-13 25 19 50 q96 63 136 160 q36 88 33 226 l-3 93 q-105 -15 -178 -7 q-23 4 -33 18 q-9 15 -6 31 q6 33 54 30 q59 -10 162 4 l0 34 q0 45 -3 68 q-4 24 -7 51 q-2 28 14 39 q16 12 37 8 q30 -5 38 -35 q7 -35 4 -120 q-1 -11 -1 -30 q37 7 70 17 q28 6 44 -8 q16 -15 12 -35 q-4 -23 -41 -33 q-76 -16 -86 -18 l4 -105 ZM393 264 q-49 -111 -52 -180 q0 -9 1 -25 q0 -16 -8 -28 q-15 -19 -38 -19 q-25 0 -38 25 q-49 94 -54 214 q-3 70 13 201 q7 55 8 71 q7 66 13 133 q2 21 16 31 q13 10 30 8 q33 -2 37 -40 q0 -20 -16 -137 q-11 -70 -22 -141 q-10 -71 0 -144 q2 -15 7 -18 q5 -3 11 13 q14 30 28 60 q9 18 22 23 q13 4 25 -2 q26 -13 17 -45 ZM987 739 q8 -20 0 -35 q-8 -14 -23 -19 q-24 -8 -36 17 q-23 48 -62 88 q-22 25 -1 41 q21 17 49 -2 q44 -37 73 -90 ZM876 693 q7 -21 -2 -36 q-9 -14 -24 -18 q-24 -6 -35 19 q-21 48 -58 88 q-22 26 -1 42 q21 17 49 -3 q43 -39 71 -92 Z" /><glyph glyph-name="" unicode="&#x3054;" d="M821 771 q24 -12 51 -31 q30 -22 44 -40 q21 -34 -3 -56 q-24 -21 -47 4 q-34 41 -81 71 q-28 19 -12 41 q16 22 48 11 ZM809 633 q13 -19 7 -35 q-5 -16 -19 -24 q-22 -12 -40 10 q-33 42 -79 72 q-28 21 -11 42 q17 22 49 9 q20 -11 49 -33 q32 -24 44 -41 ZM660 580 q28 -7 38 -24 q11 -17 6 -34 q-10 -36 -61 -31 q-152 33 -304 3 q-29 -4 -43 10 q-14 14 -12 33 q2 35 52 46 q71 10 167 10 q99 0 157 -13 ZM736 0 q-156 -44 -300 -18 q-144 26 -201 98 q-21 38 6 63 q28 25 64 -7 q59 -63 178 -71 q105 -7 229 29 q33 9 51 -6 q17 -15 16 -38 q-1 -34 -43 -50 Z" /><glyph glyph-name="" unicode="&#x3055;" d="M764 205 q5 -45 -25 -58 q-29 -12 -65 13 q-18 12 -46 19 q-142 27 -251 2 q-51 -17 -59 -51 q-7 -35 37 -62 q74 -44 212 -37 q32 0 46 -16 q14 -15 9 -35 q-7 -37 -63 -40 q-165 7 -249 59 q-47 30 -64 71 q-18 42 -7 83 q19 74 124 101 q101 22 266 6 q13 -1 17 2 q4 4 1 15 q-7 25 -32 68 q-20 33 -70 111 q-16 -4 -23 -5 q-166 -36 -269 17 q-20 11 -25 27 q-6 17 0 32 q13 34 60 16 q50 -25 101 -27 q43 -2 109 14 q-48 79 -63 113 q-13 32 1 49 q13 16 36 15 q31 -1 44 -37 q10 -37 58 -118 q26 9 54 21 q18 9 36 19 q28 13 47 5 q18 -8 23 -26 q9 -32 -25 -54 q-41 -21 -91 -39 q34 -54 72 -110 q23 -36 43 -75 q28 -56 31 -88 Z" /><glyph glyph-name="" unicode="&#x3057;" d="M811 66 q-99 -79 -212 -108 q-113 -28 -198 9 q-96 40 -105 176 q0 148 12 297 q9 197 8 228 q1 26 17 37 q16 11 36 8 q38 -5 41 -44 q-2 -67 -14 -226 q-6 -79 -13 -152 q-6 -72 -4 -145 q9 -108 112 -113 q113 -6 260 107 q24 18 44 13 q19 -5 29 -23 q19 -32 -13 -64 Z" /><glyph glyph-name="" unicode="&#x3058;" d="M710 668 q23 -8 57 -28 q38 -22 54 -38 q26 -35 3 -60 q-23 -26 -51 -2 q-41 42 -96 69 q-30 15 -21 38 q13 30 54 21 ZM609 580 q27 -11 57 -29 q36 -22 52 -40 q15 -17 13 -34 q-2 -17 -13 -28 q-24 -23 -49 2 q-41 42 -95 71 q-31 18 -17 42 q15 26 52 16 ZM808 66 q-101 -80 -215 -108 q-114 -28 -199 11 q-91 41 -100 174 q-2 78 3 148 q5 71 9 149 q9 197 8 228 q1 26 17 37 q16 11 36 8 q38 -5 41 -44 q-7 -113 -14 -226 q-7 -79 -13 -152 q-6 -72 -4 -145 q9 -108 112 -113 q113 -6 260 107 q24 18 43 13 q20 -5 30 -23 q18 -32 -14 -64 Z" /><glyph glyph-name="" unicode="&#x305f;" d="M452 680 q6 -40 -1 -93 q34 16 53 28 q20 12 38 4 q17 -9 23 -27 q10 -28 -29 -51 q-50 -25 -105 -42 q-73 -252 -186 -508 q-12 -24 -32 -30 q-21 -6 -38 4 q-31 16 -11 67 q108 216 180 448 q-94 -13 -156 13 q-17 8 -23 23 q-6 15 -2 30 q7 32 54 20 q64 -23 149 -6 q7 42 0 114 q-1 23 16 33 q16 10 36 6 q27 -5 34 -33 ZM812 -26 q-101 -20 -193 3 q-83 21 -120 64 q-13 17 -11 35 q2 18 14 30 q26 26 59 -3 q35 -38 93 -45 q46 -6 147 5 q28 2 41 -14 q13 -16 9 -37 q-4 -28 -39 -38 ZM836 458 q22 -9 29 -25 q6 -16 1 -32 q-11 -30 -50 -21 q-47 17 -105 21 q-64 5 -104 -10 q-19 -6 -32 3 q-13 9 -15 26 q-5 28 32 44 q47 16 106 17 q72 1 138 -23 Z" /><glyph glyph-name="" unicode="&#x3060;" d="M448 680 q6 -40 -1 -93 q34 16 53 28 q20 12 38 4 q17 -9 23 -27 q10 -28 -29 -51 q-50 -25 -105 -42 q-73 -252 -186 -508 q-11 -23 -31 -29 q-20 -7 -37 2 q-33 16 -12 68 q110 224 179 448 q-97 -12 -155 13 q-17 8 -24 24 q-6 16 -1 31 q9 30 54 18 q63 -23 148 -6 q8 58 1 114 q-1 23 15 33 q16 10 36 6 q27 -5 34 -33 ZM808 -26 q-100 -20 -192 3 q-83 21 -120 64 q-13 17 -11 35 q2 18 14 30 q25 26 58 -3 q36 -38 93 -45 q46 -6 147 5 q28 2 41 -14 q13 -15 10 -35 q-4 -30 -40 -40 ZM832 458 q22 -9 29 -25 q6 -16 1 -32 q-11 -30 -50 -21 q-47 17 -105 21 q-64 5 -104 -10 q-19 -6 -32 3 q-12 9 -15 26 q-4 28 32 44 q47 16 106 17 q72 1 138 -23 ZM834 760 q22 -7 53 -25 q34 -19 49 -35 q26 -34 1 -58 q-21 -20 -45 1 q-38 37 -88 61 q-29 15 -19 37 q12 27 49 19 ZM749 676 q21 -8 52 -26 q35 -20 49 -36 q22 -31 2 -54 q-22 -25 -48 -2 q-38 39 -87 64 q-28 15 -18 37 q14 26 50 17 Z" /><glyph glyph-name="" unicode="&#x3061;" d="M772 55 q-90 -99 -268 -128 q-33 -4 -49 8 q-17 12 -17 30 q0 34 45 44 q143 19 216 93 q56 67 40 124 q-17 61 -128 56 q-47 -4 -100 -32 q-49 -26 -83 -63 q-6 -6 -14 -20 q-18 -30 -39 -35 q-28 -8 -47 15 q-19 23 -14 59 q14 103 38 268 q-50 -6 -105 3 q-25 5 -36 21 q-10 16 -6 33 q7 33 55 27 q48 -11 105 0 q22 129 28 155 q6 22 21 29 q15 8 31 3 q37 -10 30 -52 q-8 -26 -25 -109 q33 15 68 39 q27 17 48 8 q22 -10 26 -34 q5 -30 -38 -54 q-74 -35 -121 -51 q-9 -52 -38 -229 q103 79 206 93 q85 9 140 -20 q56 -28 77 -80 q39 -94 -46 -201 Z" /><glyph glyph-name="" unicode="&#x3063;" d="M751 324 q57 -61 43 -136 q-13 -71 -85 -131 q-91 -77 -249 -103 q-30 -4 -44 10 q-14 14 -11 33 q3 29 40 37 q143 20 217 86 q45 40 52 83 q7 40 -19 69 q-32 36 -88 43 q-49 6 -107 -11 q-49 -15 -106 -43 q-51 -25 -102 -50 q-26 -11 -44 -1 q-17 9 -21 28 q-8 31 28 49 q51 22 110 46 q59 25 120 41 q72 18 140 9 q79 -11 126 -59 Z" /><glyph glyph-name="" unicode="&#x3068;" d="M688 529 q27 14 46 4 q19 -10 24 -31 q7 -31 -34 -56 q-195 -100 -285 -177 q-78 -67 -83 -126 q-5 -55 57 -86 q50 -26 145 -18 q80 6 138 29 q35 12 53 -4 q18 -16 15 -41 q-3 -32 -46 -47 q-76 -23 -168 -25 q-112 -2 -178 32 q-100 54 -98 152 q2 99 123 201 l34 27 q-46 138 -123 241 q-19 25 -12 44 q7 19 27 27 q32 12 58 -18 q71 -105 120 -243 q80 56 187 115 Z" /><glyph glyph-name="" unicode="&#x306a;" d="M806 57 q19 -22 17 -43 q-2 -21 -17 -33 q-29 -23 -62 10 q-29 34 -69 61 q-23 -70 -102 -103 q-80 -32 -169 9 q-70 39 -70 100 q0 56 70 91 q86 39 197 15 l0 31 q0 4 -3 94 q0 45 5 66 q4 19 18 26 q14 8 29 4 q32 -6 30 -45 q-5 -27 -5 -49 q1 -49 1 -97 l3 -54 q80 -33 127 -83 ZM504 700 q-2 -24 -17 -75 q27 11 48 25 q36 19 56 -10 q17 -25 -18 -55 q-32 -24 -113 -48 q-61 -150 -182 -342 q-14 -21 -33 -25 q-19 -4 -35 5 q-31 16 -8 58 q67 99 96 147 q45 74 75 141 q-77 -16 -143 3 q-20 6 -27 21 q-7 15 -2 30 q9 32 55 22 q54 -19 145 3 q13 41 22 108 q4 20 18 27 q14 8 30 5 q32 -5 33 -40 ZM848 498 q21 -13 26 -30 q5 -17 -2 -31 q-17 -35 -52 -19 q-76 49 -162 43 q-19 -1 -28 10 q-10 12 -8 26 q1 30 40 37 q107 7 186 -36 ZM596 77 q2 8 2 13 q-94 34 -167 -2 q-24 -12 -24 -33 q0 -21 26 -34 q47 -25 100 -7 q53 18 63 63 Z" /><glyph glyph-name="" unicode="&#x306e;" d="M569 -21 q-34 -7 -53 6 q-19 14 -19 35 q0 30 44 43 q59 13 113 45 q57 34 82 73 q53 90 37 177 q-17 87 -96 139 q-63 39 -136 42 q18 -15 15 -42 q-12 -102 -70 -223 q-60 -125 -131 -191 q-52 -48 -108 -30 q-52 17 -87 83 q-45 96 -6 209 q39 113 140 187 q94 66 214 73 q122 7 215 -49 q113 -72 135 -188 q21 -116 -45 -226 q-35 -55 -103 -100 q-66 -43 -141 -63 ZM469 506 q2 19 8 28 q-79 -14 -144 -63 q-72 -59 -103 -143 q-30 -84 2 -149 q14 -26 34 -35 q22 -10 42 8 q56 51 105 160 q48 106 56 194 Z" /><glyph glyph-name="" unicode="&#x306f;" d="M884 73 q20 -19 18 -40 q-1 -21 -16 -35 q-25 -24 -57 3 q-32 32 -71 58 q-27 -65 -104 -98 q-77 -34 -161 10 q-64 37 -62 100 q2 65 75 98 q78 35 184 8 l-3 61 q-5 72 -10 205 q-101 -16 -174 -7 q-23 4 -32 19 q-9 15 -5 32 q7 34 54 30 q63 -12 155 5 q-3 93 0 145 q2 22 15 31 q14 10 31 8 q35 -3 37 -37 q-4 -40 -4 -130 l62 18 q27 6 43 -8 q17 -14 15 -34 q-1 -25 -40 -37 q-33 -9 -80 -19 q3 -135 8 -213 q3 -46 6 -91 l0 -7 q63 -29 116 -75 ZM273 -4 q0 -26 -14 -39 q-17 -17 -40 -10 q-25 7 -35 39 q-40 126 -16 351 q7 60 24 177 q15 94 17 126 q2 26 17 37 q14 11 32 8 q38 -6 37 -47 q-18 -111 -36 -222 q-27 -166 -19 -231 q2 -15 5 -16 q3 0 11 16 l22 49 q18 28 44 14 q29 -15 11 -64 q-20 -41 -37 -87 l-19 -61 q-4 -17 -4 -40 ZM683 96 l0 3 l-8 3 q-87 32 -144 4 q-24 -12 -26 -35 q-1 -22 20 -34 q42 -24 93 -7 q53 18 65 66 Z" /><glyph glyph-name="" unicode="&#x3073;" d="M957 719 q26 -34 1 -58 q-21 -20 -45 1 q-39 37 -88 61 q-29 14 -19 37 q12 26 48 19 q55 -20 103 -60 ZM870 634 q23 -32 1 -55 q-22 -23 -47 0 q-38 37 -87 63 q-27 15 -18 36 q12 28 50 19 q23 -8 52 -26 q34 -20 49 -37 ZM590 22 q-69 -66 -153 -81 q-84 -16 -153 27 q-84 51 -95 198 q-6 115 44 230 q30 69 90 163 q6 8 6 12 q-1 2 -7 0 q-26 -7 -90 -11 q-28 0 -40 15 q-12 15 -8 34 q6 35 52 38 q124 -3 197 39 q24 13 43 4 q19 -9 24 -28 q9 -31 -29 -54 q-26 -14 -62 -55 q-40 -47 -72 -104 q-83 -149 -70 -283 q16 -116 94 -135 q84 -21 176 61 q49 47 75 108 q25 62 34 124 q14 133 -11 191 q-21 48 -25 56 q-15 28 -5 48 q11 20 34 23 q33 6 58 -37 q28 -57 73 -102 q50 -50 127 -92 q24 -14 26 -34 q3 -21 -10 -37 q-24 -30 -68 -8 q-70 44 -117 105 q-7 9 -9 8 q-1 -1 1 -12 q19 -89 -10 -198 q-34 -127 -120 -213 Z" /><glyph glyph-name="" unicode="&#x3078;" d="M930 138 q22 -12 25 -32 q3 -20 -9 -38 q-22 -33 -71 -14 q-80 39 -209 151 q-145 125 -191 159 q-39 29 -67 29 q-26 0 -61 -28 q-72 -60 -150 -111 q-27 -14 -49 -5 q-23 10 -29 31 q-10 29 29 53 q72 39 152 98 q60 44 115 41 q49 -2 106 -43 q101 -77 202 -154 q119 -90 207 -137 Z" /><glyph glyph-name="" unicode="&#x3079;" d="M736 619 q24 -8 56 -26 q36 -20 52 -36 q14 -15 14 -31 q-1 -15 -11 -27 q-22 -25 -49 -2 q-41 39 -94 64 q-30 15 -19 38 q12 28 51 20 ZM646 532 q23 -9 55 -28 q35 -21 50 -37 q25 -34 2 -58 q-24 -25 -50 -1 q-39 40 -91 67 q-29 16 -18 39 q14 28 52 18 ZM928 138 q23 -13 25 -34 q3 -21 -10 -38 q-23 -32 -70 -13 q-78 40 -209 151 q-136 119 -191 160 q-39 28 -67 28 q-27 0 -61 -27 q-72 -61 -151 -112 q-26 -14 -48 -5 q-21 9 -29 30 q-12 30 28 55 q60 30 153 98 q60 43 115 40 q50 -2 106 -43 q98 -73 201 -154 q123 -92 208 -136 Z" /><glyph glyph-name="" unicode="&#x307e;" d="M733 35 q23 -19 24 -41 q1 -22 -12 -36 q-25 -28 -64 2 q-36 33 -87 61 q-26 -70 -103 -103 q-77 -32 -170 8 q-72 39 -70 101 q1 60 78 95 q85 34 196 11 q0 8 -5 76 q-3 30 -7 92 q-118 -23 -190 -11 q-23 4 -33 19 q-10 16 -6 33 q6 36 57 30 q57 -13 168 9 l-5 131 l-18 -2 q-89 -14 -161 -11 q-26 2 -38 17 q-12 14 -10 32 q4 35 58 32 q63 -9 167 7 q-2 87 0 141 q1 25 15 35 q14 10 31 9 q39 -4 42 -43 q-4 -60 -6 -127 q32 6 80 18 q46 4 51 -33 q4 -33 -46 -46 q-43 -8 -86 -15 q0 -86 1 -127 q42 10 90 27 q29 8 46 -4 q17 -12 16 -33 q0 -28 -43 -43 q-76 -22 -105 -28 q4 -67 7 -102 q7 -70 8 -107 q76 -30 130 -74 ZM351 -8 q53 -24 102 -5 q49 20 64 68 q-96 32 -163 5 q-26 -11 -27 -34 q-1 -22 24 -34 Z" /><glyph glyph-name="" unicode="&#x307f;" d="M917 165 q22 -18 22 -39 q1 -22 -13 -37 q-25 -28 -62 0 q-58 51 -120 86 q-64 -133 -192 -208 q-25 -14 -44 -10 q-19 5 -26 20 q-14 28 23 55 q112 68 165 179 q-126 52 -251 51 q-33 -69 -54 -100 q-31 -46 -70 -78 q-47 -37 -101 -39 q-54 -2 -83 34 q-36 46 -11 107 q27 64 108 101 q76 34 165 44 q1 1 1 2 q66 132 119 246 q11 20 -7 16 q-94 -24 -130 -25 q-24 0 -34 14 q-11 14 -8 31 q4 30 39 36 q49 4 151 25 q60 12 83 -20 q23 -31 -7 -80 q-53 -88 -126 -242 l16 0 q114 -6 226 -47 q14 71 -14 119 q-9 17 0 30 q9 13 27 17 q31 7 53 -26 q35 -69 10 -173 q79 -37 145 -89 ZM251 142 q43 34 85 114 q-51 -8 -101 -32 q-32 -15 -52 -41 q-22 -29 -9 -47 q9 -14 33 -12 q23 2 44 18 Z" /><glyph glyph-name="" unicode="&#x3081;" d="M534 230 q14 -10 14 -24 q1 -15 -8 -28 q-19 -28 -56 -9 l-16 10 q-22 -30 -45 -54 q-80 -85 -149 -68 q-66 16 -87 111 q-15 68 16 147 q31 77 94 137 q-7 23 -19 69 q-14 54 -20 88 q-5 30 9 43 q14 14 34 11 q35 -3 42 -43 q2 -26 12 -87 l6 -31 l29 16 q83 40 175 42 q15 70 15 115 q1 23 15 33 q15 10 33 7 q36 -5 38 -50 q-5 -59 -17 -112 q76 -16 127 -59 q56 -47 78 -122 q36 -130 -39 -234 q-68 -95 -207 -144 q-30 -10 -50 2 q-20 12 -22 33 q-3 29 40 45 q124 37 175 118 q44 71 23 155 q-29 113 -143 141 l-12 -34 q-40 -107 -106 -209 l21 -15 ZM360 169 q19 19 53 62 q-50 57 -90 150 q-38 -44 -55 -91 q-19 -51 -10 -94 q12 -55 43 -57 q26 -2 59 30 ZM543 474 l6 20 q-72 -4 -132 -37 q-24 -14 -35 -22 q28 -78 76 -136 q60 94 85 175 Z" /><glyph glyph-name="" unicode="&#x3082;" d="M539 441 q-29 -9 -69 -11 l-17 -146 q34 3 64 12 q26 7 40 -5 q15 -12 16 -31 q2 -27 -29 -40 q-43 -15 -98 -17 q-3 -42 -1 -90 q4 -69 41 -96 q36 -27 83 -17 q67 13 104 83 q26 58 10 113 q-14 47 -63 101 q-17 20 -14 36 q4 17 18 26 q32 19 64 -11 q125 -144 67 -286 q-38 -85 -117 -121 q-98 -45 -185 1 q-76 40 -84 164 q-1 40 2 98 q-55 4 -88 14 q-24 7 -34 22 q-9 15 -7 30 q7 39 50 31 q41 -13 85 -16 q8 73 15 147 q-61 7 -91 18 q-25 9 -31 26 q-7 16 -1 32 q14 33 52 24 q33 -15 80 -20 l4 45 q6 63 11 148 q2 23 15 32 q13 10 30 8 q37 -5 41 -44 q0 -35 -6 -69 q-5 -34 -10 -77 q-4 -31 -5 -44 q26 4 39 7 q24 5 37 -7 q13 -11 14 -29 q1 -29 -32 -41 Z" /><glyph glyph-name="" unicode="&#x3086;" d="M394 149 q-20 44 7 61 q27 18 59 -22 q25 -36 67 -52 q51 128 28 349 q-88 -28 -155 -102 q-75 -82 -99 -194 q-3 -27 -6 -53 q-5 -21 -23 -29 q-20 -9 -44 3 q-20 11 -38 36 q-43 65 -41 241 q1 53 1 107 q1 25 16 35 q16 11 35 9 q34 -4 36 -40 q-1 -32 -10 -104 q-3 -26 -3 -58 q-1 -54 6 -79 q7 -24 15 1 q47 123 133 201 q75 69 169 94 q-6 51 -13 103 q-3 32 15 43 q18 12 40 6 q29 -7 35 -36 q5 -52 10 -103 q94 2 160 -44 q103 -76 106 -185 q3 -114 -82 -205 q-47 -48 -113 -71 q-63 -22 -131 -16 q-53 -93 -154 -140 q-28 -11 -45 -2 q-17 9 -22 28 q-6 30 24 47 q69 30 111 88 q-64 27 -94 83 ZM641 498 q17 -231 -31 -374 q90 9 147 63 q59 60 62 136 q3 82 -61 134 q-48 39 -117 41 Z" /><glyph glyph-name="" unicode="&#x3089;" d="M582 632 q2 -50 -57 -62 q-22 -6 -45 -11 q-35 -6 -48 21 q-14 26 12 42 q16 8 18 13 q3 5 -10 13 q-38 20 -70 47 q-24 33 1 54 q25 21 61 0 q32 -21 78 -47 q58 -38 60 -70 ZM484 -82 q-30 -5 -47 8 q-17 13 -17 33 q-1 32 45 45 q90 17 137 45 q82 47 114 102 q29 49 10 84 q-18 34 -73 39 q-61 5 -139 -31 q-39 -17 -86 -49 q-37 -25 -51 -38 q-38 -35 -69 -28 q-26 6 -39 38 q-19 46 -4 171 q14 113 28 192 q4 20 17 30 q14 9 29 8 q34 -2 33 -46 q-12 -74 -25 -147 q-15 -94 -7 -119 q2 -9 8 -8 q5 0 14 5 q60 36 121 63 q20 9 39 15 q142 47 234 -10 q79 -49 65 -138 q-17 -110 -167 -202 q-69 -42 -170 -62 Z" /><glyph glyph-name="" unicode="&#x308a;" d="M483 -82 q-31 -21 -55 -16 q-24 5 -32 24 q-13 28 29 60 q124 80 177 229 q55 155 3 311 q-14 42 -38 57 q-24 15 -51 11 q-57 -13 -84 -66 q-39 -81 -27 -200 q1 -33 -14 -49 q-15 -16 -35 -15 q-36 1 -44 44 q-8 99 23 233 q22 82 37 180 q3 21 18 30 q15 8 32 5 q34 -5 35 -43 q-5 -49 -26 -102 q-6 -13 -6 -15 q2 -2 13 13 q11 15 28 29 q55 41 120 21 q65 -21 99 -104 q59 -163 15 -329 q-49 -186 -217 -308 Z" /><glyph glyph-name="" unicode="&#x308b;" d="M710 340 q84 -55 86 -138 q2 -114 -95 -191 q-72 -53 -173 -58 q-97 -5 -155 34 q-37 25 -49 55 q-12 31 -2 60 q20 63 108 71 q62 2 104 -33 q45 -38 46 -106 q39 7 73 36 q57 50 59 115 q2 62 -46 94 q-46 30 -118 28 q-80 -3 -152 -45 q-56 -30 -88 -78 q-15 -19 -36 -18 q-21 1 -35 16 q-25 24 8 61 q200 198 312 336 q6 8 4 9 q-3 2 -11 -2 q-46 -21 -185 -51 q-29 -5 -44 8 q-15 13 -15 32 q0 30 38 38 q90 11 226 47 q55 13 84 -18 q31 -31 -2 -75 q-50 -56 -109 -112 q-6 -6 -123 -120 q67 36 149 38 q83 2 141 -33 ZM507 22 q1 42 -19 66 q-21 25 -56 22 q-39 -5 -41 -30 q-3 -24 25 -41 q34 -19 91 -17 Z" /><glyph glyph-name="" unicode="&#x3092;" d="M516 708 q0 -27 -8 -54 q-2 -9 -5 -17 q34 10 58 24 q22 11 39 3 q17 -8 21 -26 q8 -28 -30 -51 q-33 -17 -116 -36 q-20 -52 -55 -115 q59 15 105 -6 q50 -23 72 -83 q57 30 128 61 q56 25 81 38 q29 15 49 6 q20 -10 25 -30 q8 -32 -26 -53 q-36 -16 -106 -40 q-66 -26 -136 -60 q4 -52 1 -116 q-2 -28 -17 -41 q-15 -14 -32 -12 q-33 1 -34 48 q3 43 2 79 l-34 -21 q-90 -58 -98 -110 q-7 -45 46 -72 q37 -19 108 -13 q54 5 102 20 q34 10 53 -5 q18 -14 16 -37 q-2 -31 -48 -47 q-61 -17 -132 -17 q-91 0 -143 29 q-95 55 -82 142 q14 86 149 178 q29 19 56 34 q-16 63 -63 69 q-44 6 -96 -38 q-12 -10 -22 -20 q-19 -26 -33 -39 q-19 -16 -38 -16 q-19 0 -31 12 q-21 23 11 57 q54 50 84 100 q33 54 53 102 q-83 -14 -133 10 q-24 13 -29 32 q-5 18 5 33 q20 30 65 5 q23 -16 99 -4 l20 3 q8 30 13 91 q2 22 19 30 q16 9 34 6 q29 -5 33 -33 Z" /><glyph glyph-name="" unicode="&#x3093;" d="M919 191 q-53 -111 -126 -167 q-51 -40 -114 -56 q-63 -15 -113 5 q-66 25 -69 127 q5 61 5 120 q-1 47 -35 57 q-27 8 -68 -9 q-69 -33 -98 -78 q-40 -64 -63 -136 q-11 -45 -25 -63 q-11 -15 -30 -19 q-26 -5 -44 12 q-21 20 -7 55 q56 141 160 304 q129 202 161 254 q28 42 55 85 q11 20 29 23 q18 3 33 -7 q34 -19 18 -62 q-9 -17 -23 -37 l-31 -38 q-51 -60 -104 -135 q-22 -32 -69 -105 q-6 -9 -6 -10 q1 -2 9 5 q8 7 27 16 q62 27 117 12 q72 -20 79 -112 q2 -23 -2 -69 q-3 -24 -3 -46 q1 -68 59 -70 q51 -1 101 43 q34 31 59 73 q18 30 35 72 q11 25 31 30 q19 5 36 -6 q34 -21 16 -68 Z" /><glyph glyph-name="" unicode="&#x30a2;" d="M532 311 q-29 -11 -50 3 q-38 -234 -250 -365 q-31 -18 -55 -10 q-23 7 -31 28 q-12 32 31 57 q121 60 178 178 q51 106 39 231 q-2 30 16 43 q18 13 41 9 q37 -5 41 -48 q0 -20 -2 -54 q5 2 9 4 q144 59 205 141 q13 17 11 28 q-2 13 -26 13 q-225 4 -484 -9 q-28 0 -41 11 q-14 12 -14 28 q0 36 48 43 q256 7 520 6 q74 -3 98 -50 q23 -47 -24 -105 q-118 -132 -260 -182 Z" /><glyph glyph-name="" unicode="&#x30a3;" d="M300 79 q-28 -16 -47 -10 q-19 5 -26 22 q-13 29 20 50 q103 53 200 144 q94 88 158 189 q13 19 28 22 q16 3 30 -5 q32 -20 10 -58 q-56 -75 -96 -121 q-7 -186 -1 -341 q0 -24 -15 -36 q-14 -11 -32 -9 q-31 2 -34 43 q3 131 5 262 q-90 -85 -200 -152 Z" /><glyph glyph-name="" unicode="&#x30a4;" d="M717 621 q-70 -94 -134 -167 q-5 -238 -2 -472 q0 -27 -16 -40 q-15 -14 -35 -12 q-35 1 -39 49 q3 192 6 384 q-125 -125 -288 -224 q-34 -20 -57 -13 q-23 7 -31 27 q-11 31 25 54 q141 72 276 198 q131 123 219 261 q16 23 35 26 q20 2 34 -9 q30 -23 7 -62 Z" /><glyph glyph-name="" unicode="&#x30a6;" d="M800 432 q-10 -172 -111 -298 q-115 -144 -325 -196 q-29 -6 -45 9 q-17 15 -15 37 q2 27 38 37 q170 37 268 153 q87 103 95 238 q1 52 -50 55 q-172 5 -309 0 q-25 -2 -39 -19 q-12 -15 -11 -34 q0 -31 3 -121 q-1 -24 -18 -35 q-18 -10 -38 -7 q-30 4 -34 37 q0 95 -1 146 q-1 54 42 83 q32 22 75 23 q84 2 135 2 q0 63 -1 127 q1 23 17 33 q17 10 36 7 q31 -4 35 -38 l0 -129 q96 0 138 -1 q55 -2 86 -30 q32 -29 29 -79 Z" /><glyph glyph-name="" unicode="&#x30a8;" d="M848 64 q-377 7 -698 -3 q-24 0 -37 11 q-12 12 -12 28 q0 38 49 44 l302 4 q0 140 0 281 q-144 0 -188 2 q-22 1 -32 14 q-10 13 -9 29 q2 34 43 37 q202 -5 459 4 q24 0 35 -13 q10 -13 9 -29 q-3 -34 -45 -39 l-187 -4 q1 -141 1 -281 q228 2 318 2 q23 -1 34 -16 q11 -14 8 -33 q-3 -35 -50 -38 Z" /><glyph glyph-name="" unicode="&#x30aa;" d="M201 47 q-30 -18 -52 -12 q-21 6 -28 24 q-13 30 22 52 q207 107 349 328 q-59 -1 -278 -8 q-22 0 -34 11 q-12 12 -12 28 q-1 33 44 39 q202 6 326 7 l-5 140 q0 24 12 36 q13 11 30 10 q36 -2 41 -42 q0 -21 2 -143 q87 0 174 0 q26 -1 38 -15 q12 -13 9 -30 q-4 -34 -49 -36 q-110 4 -171 4 q4 -211 10 -305 l4 -73 q2 -67 -43 -95 q-50 -32 -152 -12 q-30 6 -39 23 q-9 17 -3 35 q13 32 51 25 q36 -12 67 -8 q34 3 36 48 q-1 71 -7 293 q-86 -115 -157 -183 q-78 -75 -185 -141 Z" /><glyph glyph-name="" unicode="&#x30ab;" d="M550 638 q-2 -74 -12 -137 q87 0 125 -1 q59 -2 92 -31 q35 -32 34 -88 q-3 -89 -17 -169 q-17 -97 -47 -150 q-46 -82 -133 -98 q-86 -15 -158 42 q-16 14 -18 31 q-1 17 9 31 q21 32 64 7 q93 -62 159 30 q26 39 42 132 q12 70 13 126 q1 27 -14 44 q-16 18 -45 19 q-60 0 -120 0 q-31 -144 -109 -277 q-76 -129 -206 -204 q-24 -12 -44 -4 q-20 7 -27 25 q-13 30 30 57 q102 56 173 168 q64 101 95 234 q-136 -4 -188 -7 q-26 0 -38 11 q-12 12 -11 27 q1 33 43 39 q108 4 208 5 q10 69 10 140 q0 26 15 37 q14 11 33 9 q38 -4 42 -48 Z" /><glyph glyph-name="" unicode="&#x30ad;" d="M663 -21 q8 -29 -6 -47 q-15 -18 -37 -19 q-28 0 -39 35 q-28 107 -79 271 q-109 -32 -244 -77 q-27 -8 -42 6 q-15 13 -14 34 q1 27 37 40 q111 35 240 73 l-36 117 q-85 -23 -184 -47 q-28 -6 -43 8 q-15 13 -13 32 q2 26 35 35 q98 22 182 45 q-35 108 -53 165 q-8 25 5 39 q12 13 32 14 q32 1 44 -29 q29 -100 50 -167 q67 19 167 51 q23 7 36 -3 q14 -10 15 -28 q4 -30 -30 -44 q-92 -29 -166 -50 l36 -116 q188 53 231 64 q31 7 46 -8 q15 -14 12 -34 q-3 -26 -33 -35 q-111 -26 -233 -62 l84 -263 Z" /><glyph glyph-name="" unicode="&#x30af;" d="M781 491 q-101 -196 -210 -316 q-140 -153 -330 -229 q-35 -12 -55 0 q-21 13 -21 35 q-1 29 40 46 q159 54 294 196 q117 122 178 265 q8 17 1 29 q-7 13 -26 12 q-66 -3 -176 -15 q-136 -179 -225 -242 q-25 -16 -45 -11 q-20 6 -28 23 q-15 30 23 58 q66 42 156 154 q74 93 120 172 q12 19 31 21 q20 2 36 -9 q30 -20 7 -62 l-16 -23 l147 10 q58 3 90 -31 q33 -36 9 -83 Z" /><glyph glyph-name="" unicode="&#x30b1;" d="M811 433 q-114 3 -172 3 q-23 -169 -108 -289 q-92 -131 -249 -186 q-37 -12 -55 2 q-18 13 -17 36 q0 32 38 46 q128 35 209 147 q74 102 92 244 l-196 0 q-60 -102 -134 -168 q-25 -20 -44 -18 q-20 2 -30 18 q-18 30 15 60 q55 42 109 135 q53 91 70 171 q6 21 21 28 q16 8 33 3 q39 -9 33 -52 q-14 -53 -35 -102 q238 4 422 0 q22 -1 32 -15 q10 -14 7 -31 q-3 -30 -41 -32 Z" /><glyph glyph-name="" unicode="&#x30b3;" d="M633 53 q-72 -4 -378 -7 q-26 1 -38 16 q-13 15 -11 34 q3 36 48 39 q210 -7 368 2 q62 3 65 59 q4 120 0 224 q-1 53 -64 55 q-94 3 -360 -7 q-27 0 -39 13 q-13 13 -12 30 q2 33 47 39 q197 9 391 5 q66 -1 99 -37 q29 -31 29 -83 q0 -214 -1 -259 q-3 -114 -144 -123 Z" /><glyph glyph-name="" unicode="&#x30b6;" d="M410 253 q-1 -25 -17 -36 q-16 -10 -35 -7 q-32 5 -34 42 q3 64 3 158 q-126 -4 -192 -7 q-25 0 -37 11 q-12 12 -12 28 q1 34 44 40 l196 4 q-2 96 -4 135 q0 25 15 36 q15 12 34 9 q30 -3 35 -42 q2 -37 4 -136 l177 3 q0 109 -1 139 q0 29 14 42 q15 12 34 9 q34 -5 38 -50 q-1 -42 -1 -139 l198 2 q28 -1 41 -12 q13 -11 13 -27 q-3 -39 -52 -44 q-97 3 -199 3 l0 -27 q0 -302 -265 -454 q-29 -16 -49 -9 q-19 6 -25 24 q-10 30 24 53 q230 126 230 382 l0 31 q-62 0 -176 -2 q0 -118 -1 -159 ZM847 744 q21 -8 52 -25 q35 -20 49 -34 q24 -31 3 -55 q-21 -24 -46 -2 q-38 36 -88 61 q-29 15 -17 38 q12 24 47 17 ZM763 662 q25 -10 52 -26 q32 -19 47 -35 q24 -32 2 -55 q-21 -23 -46 0 q-38 38 -86 62 q-29 16 -16 38 q13 24 47 16 Z" /><glyph glyph-name="" unicode="&#x30b7;" d="M882 459 q-89 -174 -246 -310 q-154 -134 -326 -191 q-33 -9 -52 6 q-18 16 -17 40 q1 29 40 42 q152 41 301 173 q147 130 223 288 q11 22 31 26 q19 4 36 -6 q31 -18 10 -68 ZM366 351 q22 -13 25 -32 q3 -20 -8 -36 q-21 -32 -63 -11 q-64 43 -131 54 q-19 4 -26 17 q-7 14 -3 29 q9 35 56 31 q86 -16 150 -52 ZM502 516 q19 -19 17 -40 q-3 -21 -19 -34 q-28 -22 -62 8 q-55 57 -116 81 q-18 8 -22 24 q-3 15 5 30 q17 30 61 15 q79 -34 136 -84 Z" /><glyph glyph-name="" unicode="&#x30b9;" d="M684 464 q-55 -98 -115 -174 q78 -46 146 -97 q86 -64 118 -108 q13 -20 9 -40 q-4 -20 -19 -32 q-29 -25 -61 8 q-38 47 -109 108 q-75 64 -135 99 q-145 -161 -336 -235 q-28 -9 -45 2 q-17 12 -19 32 q-3 31 37 48 q136 49 257 162 q109 102 173 225 q8 16 4 26 q-4 11 -24 11 q-19 0 -299 -6 q-21 0 -31 15 q-10 14 -7 32 q3 30 39 35 q91 5 324 5 q64 1 92 -35 q27 -35 1 -81 Z" /><glyph glyph-name="" unicode="&#x30ba;" d="M681 464 q-51 -92 -115 -175 q76 -46 145 -97 q87 -64 118 -107 q14 -20 10 -40 q-5 -20 -20 -32 q-29 -25 -61 8 q-37 46 -109 108 q-75 65 -134 99 q-144 -160 -336 -235 q-29 -10 -47 3 q-17 13 -17 35 q-1 28 36 44 q136 49 257 162 q109 102 173 225 q8 16 4 26 q-4 11 -24 11 q-18 0 -298 -6 q-22 0 -32 15 q-10 14 -7 32 q3 30 39 35 q91 5 324 5 q64 1 92 -35 q28 -35 2 -81 ZM930 648 q12 -19 7 -35 q-6 -17 -20 -24 q-22 -13 -40 10 q-32 43 -78 76 q-28 21 -10 42 q17 21 49 7 q24 -13 49 -33 q29 -23 43 -43 ZM819 590 q11 -18 7 -33 q-4 -15 -16 -24 q-26 -17 -45 9 q-32 44 -76 77 q-27 21 -8 42 q18 20 49 6 q50 -30 89 -77 Z" /><glyph glyph-name="" unicode="&#x30bb;" d="M808 417 q-57 -116 -153 -207 q-23 -20 -43 -19 q-20 1 -31 15 q-21 27 10 62 q44 42 59 58 q32 35 54 72 q11 18 5 22 q-5 4 -22 -1 q-44 -14 -254 -101 q-2 -71 -7 -165 q-2 -38 18 -58 q19 -19 66 -24 q100 -11 226 21 q36 9 56 -5 q21 -15 19 -38 q-1 -33 -58 -49 q-125 -28 -273 -10 q-65 7 -101 44 q-35 36 -34 95 q2 77 3 154 q-178 -75 -181 -76 q-26 -10 -43 1 q-16 11 -18 30 q-4 29 29 43 q26 8 215 86 q4 168 4 231 q1 25 18 34 q16 9 36 5 q30 -7 33 -34 q-3 -142 -5 -202 q214 86 264 103 q56 17 92 -10 q36 -27 16 -77 Z" /><glyph glyph-name="" unicode="&#x30bc;" d="M804 417 q-56 -116 -152 -207 q-24 -20 -44 -19 q-19 1 -30 15 q-22 27 9 62 q43 41 59 58 q33 35 55 72 q10 18 5 22 q-5 4 -23 -1 q-44 -14 -254 -101 q-2 -71 -7 -165 q-2 -38 18 -58 q19 -19 66 -24 q100 -11 226 21 q36 9 56 -5 q21 -15 19 -38 q-1 -33 -58 -49 q-124 -28 -272 -10 q-66 7 -102 44 q-35 36 -34 95 q2 77 3 154 q-178 -75 -181 -76 q-26 -10 -42 1 q-16 11 -19 30 q-4 29 29 43 q26 8 215 86 q4 168 4 231 q1 25 18 34 q16 9 36 5 q30 -7 33 -34 q-3 -142 -5 -202 q214 86 264 103 q56 17 93 -10 q36 -27 15 -77 ZM787 632 q21 -8 52 -26 q35 -20 49 -36 q23 -30 3 -54 q-22 -25 -48 -2 q-38 38 -88 63 q-28 15 -17 37 q13 26 49 18 ZM869 716 q55 -19 103 -59 q24 -30 4 -54 q-21 -26 -48 -3 q-38 37 -89 60 q-28 14 -19 37 q12 26 49 19 Z" /><glyph glyph-name="" unicode="&#x30bd;" d="M802 538 q-63 -200 -160 -330 q-116 -156 -308 -257 q-30 -15 -50 -6 q-20 8 -25 28 q-10 32 24 53 q328 159 427 546 q7 24 26 31 q19 6 38 -2 q38 -15 28 -63 ZM411 391 q11 -29 -4 -48 q-14 -19 -38 -21 q-32 -3 -49 36 q-33 91 -93 164 q-14 17 -8 33 q6 17 23 25 q30 16 63 -16 q67 -80 106 -173 Z" /><glyph glyph-name="" unicode="&#x30bf;" d="M723 212 q15 -19 13 -37 q-3 -18 -16 -30 q-26 -24 -59 5 q-30 32 -68 60 q-73 -88 -159 -150 q-95 -69 -220 -117 q-32 -11 -51 1 q-19 11 -21 31 q-2 28 36 44 q196 67 345 238 q-66 41 -119 56 q-18 5 -23 18 q-5 13 0 26 q11 31 56 23 q67 -20 138 -58 q55 77 95 159 q13 27 9 38 q-4 10 -24 9 q-81 -2 -190 -15 q-61 -81 -115 -140 q-65 -71 -115 -105 q-25 -16 -45 -10 q-20 6 -28 25 q-12 29 24 56 q70 44 159 151 q85 102 114 171 q13 28 32 33 q20 6 37 -4 q35 -21 18 -60 l-25 -40 q153 12 165 12 q68 3 88 -38 q19 -38 -11 -92 q-75 -132 -118 -193 q51 -35 78 -67 Z" /><glyph glyph-name="" unicode="&#x30c0;" d="M720 212 q15 -19 12 -37 q-2 -18 -15 -30 q-27 -24 -59 5 q-28 28 -69 60 q-73 -88 -159 -150 q-95 -69 -220 -117 q-32 -11 -51 1 q-19 11 -21 31 q-2 28 37 44 q196 67 345 238 q-68 42 -120 56 q-17 5 -23 18 q-5 13 0 26 q11 31 57 23 q67 -20 137 -58 q55 77 95 159 q13 27 9 38 q-4 10 -24 9 q-81 -2 -190 -15 q-61 -81 -115 -140 q-65 -71 -115 -105 q-25 -16 -45 -10 q-20 6 -28 25 q-12 29 24 56 q70 44 159 151 q85 102 114 171 q13 28 32 33 q20 6 37 -4 q35 -21 18 -60 q-11 -20 -26 -40 q151 11 166 12 q68 3 88 -38 q19 -38 -11 -92 q-72 -127 -118 -192 q49 -34 79 -68 ZM772 704 q22 -8 52 -26 q33 -20 48 -36 q13 -16 12 -31 q-1 -15 -12 -26 q-22 -21 -46 1 q-37 39 -87 64 q-28 15 -17 37 q14 26 50 17 ZM856 786 q56 -20 102 -60 q14 -15 13 -30 q-1 -16 -11 -26 q-21 -22 -46 0 q-38 36 -88 61 q-28 14 -19 36 q12 27 49 19 Z" /><glyph glyph-name="" unicode="&#x30c1;" d="M823 390 q23 -1 34 -13 q11 -12 10 -28 q-1 -32 -45 -35 q-114 2 -254 2 q-2 -52 -19 -105 q-19 -60 -53 -110 q-81 -121 -225 -170 q-41 -13 -62 2 q-20 15 -18 38 q1 28 35 39 q121 30 192 132 q56 80 65 174 q-184 0 -307 -3 q-20 0 -30 11 q-10 12 -10 27 q0 33 41 38 q152 2 307 2 q0 68 -1 137 q-118 -21 -206 -19 q-25 1 -37 14 q-11 14 -9 30 q3 32 48 34 q78 -4 198 18 q111 21 179 49 q30 11 47 2 q17 -9 20 -28 q5 -32 -27 -47 q-60 -22 -126 -36 q1 -45 -1 -154 q206 0 254 -1 Z" /><glyph glyph-name="" unicode="&#x30c3;" d="M544 303 q8 -24 -3 -39 q-12 -16 -31 -18 q-27 -4 -41 29 q-17 53 -50 89 q-11 14 -8 27 q4 14 16 23 q26 18 54 -10 q41 -50 63 -101 ZM405 259 q11 -20 3 -37 q-7 -16 -24 -23 q-29 -12 -49 21 q-26 52 -62 82 q-23 25 -1 48 q23 25 58 0 q48 -45 75 -91 ZM373 -68 q-25 -10 -41 -2 q-16 7 -21 24 q-9 30 24 47 q124 53 209 156 q82 100 113 229 q6 21 21 28 q15 7 31 2 q36 -11 29 -53 q-93 -307 -365 -431 Z" /><glyph glyph-name="" unicode="&#x30c4;" d="M814 537 q-127 -420 -495 -585 q-31 -13 -50 -3 q-18 9 -23 29 q-7 33 29 52 q174 72 291 215 q111 136 155 318 q7 24 24 32 q17 8 35 2 q42 -12 34 -60 ZM548 447 q10 -27 -4 -46 q-15 -18 -37 -19 q-29 -2 -44 34 q-24 74 -69 125 q-13 15 -8 31 q4 15 19 24 q29 18 60 -13 q54 -65 83 -136 ZM358 386 q13 -25 3 -44 q-10 -19 -30 -26 q-31 -9 -52 26 q-35 72 -86 115 q-15 13 -13 29 q2 15 14 26 q26 24 63 -3 q63 -56 101 -123 Z" /><glyph glyph-name="" unicode="&#x30c7;" d="M813 366 q-77 3 -235 1 q-6 -141 -85 -248 q-83 -113 -230 -163 q-36 -11 -55 1 q-18 11 -19 32 q-2 32 37 46 q122 33 192 124 q67 88 71 208 q-131 -2 -301 -7 q-24 0 -36 14 q-11 14 -8 31 q4 31 48 35 q358 5 626 5 q23 -1 33 -13 q11 -13 9 -29 q-2 -34 -47 -37 ZM663 648 q23 0 33 -12 q11 -13 10 -29 q-1 -34 -40 -39 q-181 -3 -362 -6 q-24 1 -36 12 q-11 12 -10 28 q1 35 47 40 q126 -1 358 6 ZM983 639 q18 -35 -6 -53 q-24 -18 -49 6 q-51 62 -75 78 q-27 22 -9 42 q18 20 50 6 q21 -12 47 -35 q30 -25 42 -44 ZM869 579 q11 -19 5 -34 q-5 -15 -18 -23 q-25 -14 -43 12 q-29 44 -72 79 q-27 22 -8 42 q19 20 50 5 q23 -16 46 -36 q29 -26 40 -45 Z" /><glyph glyph-name="" unicode="&#x30c8;" d="M471 678 q-3 -153 -3 -244 q8 2 17 0 q59 -9 124 -30 q84 -27 122 -57 q17 -16 18 -35 q0 -19 -11 -34 q-23 -30 -60 -8 q-35 26 -102 52 q-65 26 -109 32 q0 -292 2 -376 q-1 -29 -18 -42 q-16 -14 -37 -11 q-36 4 -38 50 q11 366 6 704 q0 24 16 35 q16 10 36 7 q34 -4 37 -43 Z" /><glyph glyph-name="" unicode="&#x30c9;" d="M467 678 q-3 -153 -3 -244 q8 2 17 0 q59 -9 124 -30 q85 -27 122 -57 q17 -16 18 -35 q0 -19 -11 -34 q-23 -30 -60 -8 q-35 26 -102 52 q-65 26 -109 32 q0 -292 2 -376 q-1 -29 -18 -42 q-16 -14 -37 -11 q-36 4 -38 50 q11 366 6 704 q0 24 16 35 q16 10 36 7 q34 -4 37 -43 ZM730 722 q24 -7 56 -22 q36 -17 52 -32 q26 -29 8 -55 q-21 -28 -49 -6 q-42 34 -95 57 q-28 11 -22 33 q9 30 50 25 ZM648 633 q56 -18 106 -57 q15 -15 14 -31 q0 -16 -10 -27 q-21 -23 -47 -1 q-41 36 -93 58 q-31 15 -19 39 q13 26 49 19 Z" /><glyph glyph-name="" unicode="&#x30ca;" d="M812 376 q-104 4 -239 4 q-3 -145 -82 -258 q-83 -120 -234 -179 q-32 -11 -50 -1 q-18 10 -21 29 q-5 32 31 49 q130 49 199 148 q64 92 68 212 q-104 -2 -285 -8 q-25 0 -38 13 q-13 14 -11 32 q1 31 46 36 q182 6 287 7 l-5 157 q0 28 16 39 q17 11 37 6 q31 -6 37 -39 q3 -41 3 -163 q126 2 244 0 q28 -1 40 -16 q12 -14 9 -32 q-6 -34 -52 -36 Z" /><glyph glyph-name="" unicode="&#x30cb;" d="M695 491 q22 0 33 -15 q11 -14 8 -32 q-3 -33 -46 -38 q-198 -4 -397 0 q-23 1 -34 16 q-11 14 -9 32 q3 34 49 37 q189 -5 396 0 ZM177 157 q296 5 654 -1 q24 -1 34 -15 q11 -14 8 -32 q-4 -38 -43 -42 q-353 11 -653 1 q-22 0 -33 14 q-12 14 -11 32 q0 37 44 43 Z" /><glyph glyph-name="" unicode="&#x30d0;" d="M791 673 q22 -7 53 -25 q34 -19 49 -35 q26 -34 1 -58 q-21 -20 -45 1 q-38 37 -88 61 q-29 15 -19 37 q12 27 49 19 ZM705 591 q55 -21 101 -63 q23 -30 3 -53 q-23 -26 -49 -2 q-37 37 -87 63 q-28 16 -17 38 q13 26 49 17 ZM878 168 q7 -31 -9 -50 q-17 -19 -40 -20 q-30 -1 -44 37 q-22 70 -86 157 q-57 77 -114 127 q-15 14 -14 30 q2 16 15 27 q26 24 66 -6 q73 -64 137 -146 q72 -93 89 -156 ZM400 409 q-93 -208 -250 -318 q-26 -17 -48 -9 q-21 7 -29 28 q-13 31 23 57 q72 45 130 120 q55 71 88 155 q11 27 30 32 q19 6 36 -3 q34 -19 20 -62 Z" /><glyph glyph-name="" unicode="&#x30d1;" d="M911 555 q0 -43 -31 -74 q-30 -30 -74 -30 q-43 0 -73 30 q-30 30 -30 74 q0 43 30 73 q31 31 73 31 q43 0 74 -31 q31 -31 31 -73 ZM878 168 q7 -31 -9 -50 q-17 -19 -40 -20 q-30 -1 -44 37 q-22 70 -86 157 q-57 77 -114 127 q-15 14 -14 30 q2 16 15 27 q26 24 66 -6 q73 -64 137 -146 q72 -93 89 -156 ZM400 409 q-93 -208 -250 -318 q-26 -17 -48 -9 q-21 7 -29 28 q-13 31 23 57 q72 45 130 120 q55 71 88 155 q11 27 30 32 q19 6 36 -3 q34 -19 20 -62 ZM862 555 q0 22 -17 39 q-17 17 -39 17 q-22 0 -39 -17 q-16 -16 -16 -39 q0 -23 16 -39 q16 -16 39 -16 q22 0 39 16 q17 16 17 39 Z" /><glyph glyph-name="" unicode="&#x30d3;" d="M748 12 q-64 -17 -169 -21 q-101 -4 -180 6 q-65 8 -100 46 q-35 38 -36 97 q4 222 7 445 q1 23 14 32 q14 10 31 8 q38 -5 42 -43 l-5 -214 q167 33 329 97 q31 12 51 -2 q20 -14 21 -37 q2 -30 -40 -47 q-223 -77 -363 -94 l-4 -123 q-1 -38 18 -58 q20 -21 65 -27 q48 -6 146 1 q105 8 155 26 q30 9 49 -5 q19 -15 18 -38 q1 -33 -49 -49 ZM743 601 q22 -8 52 -26 q34 -20 48 -36 q13 -16 12 -31 q-1 -15 -12 -26 q-22 -21 -45 1 q-38 39 -87 64 q-28 15 -18 37 q14 26 50 17 ZM828 683 q55 -20 103 -60 q24 -30 4 -53 q-22 -26 -48 -3 q-38 36 -89 61 q-28 14 -18 36 q12 27 48 19 Z" /><glyph glyph-name="" unicode="&#x30d4;" d="M748 12 q-64 -17 -169 -21 q-101 -4 -180 6 q-65 8 -100 46 q-35 38 -36 97 q4 222 7 445 q1 23 14 32 q14 10 31 8 q38 -5 42 -43 l-5 -214 q167 33 329 97 q31 12 51 -2 q20 -14 21 -37 q2 -30 -40 -47 q-223 -77 -363 -94 l-4 -123 q-1 -38 18 -58 q20 -21 65 -27 q48 -6 146 1 q105 8 155 26 q30 9 49 -5 q19 -15 18 -38 q1 -33 -49 -49 ZM924 589 q0 -42 -31 -73 q-30 -30 -73 -30 q-43 0 -73 30 q-30 30 -30 73 q0 43 30 73 q31 31 73 31 q42 0 73 -31 q31 -31 31 -73 ZM875 589 q0 23 -16 39 q-17 17 -39 17 q-23 0 -39 -17 q-16 -17 -16 -39 q0 -22 16 -38 q16 -16 39 -16 q23 0 39 16 q16 16 16 38 Z" /><glyph glyph-name="" unicode="&#x30d6;" d="M848 792 q54 -20 102 -60 q26 -34 1 -58 q-21 -20 -45 1 q-38 37 -88 61 q-29 14 -19 37 q12 26 49 19 ZM762 710 q23 -9 53 -27 q33 -20 48 -36 q13 -16 12 -31 q-1 -15 -12 -26 q-22 -21 -46 1 q-37 39 -87 64 q-28 15 -17 37 q13 26 49 18 ZM786 460 q-60 -170 -158 -285 q-122 -142 -315 -216 q-33 -11 -53 1 q-20 13 -22 35 q-4 32 36 48 q158 51 272 175 q99 108 138 241 q7 24 0 38 q-8 15 -34 16 q-115 2 -414 -8 q-24 0 -35 15 q-11 15 -9 33 q2 31 43 37 q226 8 450 5 q60 -2 90 -40 q31 -39 11 -95 Z" /><glyph glyph-name="" unicode="&#x30d9;" d="M736 619 q23 -8 56 -26 q37 -20 52 -36 q14 -15 14 -31 q-1 -15 -11 -27 q-22 -25 -49 -2 q-41 39 -93 64 q-27 13 -22 34 q10 33 53 24 ZM646 532 q23 -9 55 -28 q35 -21 50 -37 q25 -34 2 -58 q-24 -25 -50 -1 q-39 40 -91 67 q-29 16 -18 39 q14 28 52 18 ZM847 64 q-52 34 -162 124 q-137 116 -207 170 q-69 54 -127 5 q-92 -71 -118 -90 q-29 -20 -52 -30 q-27 -10 -46 1 q-19 11 -23 32 q-8 32 34 53 q48 20 161 100 q105 75 217 -7 q67 -50 183 -137 q115 -86 202 -144 q19 -14 20 -32 q0 -19 -12 -34 q-26 -33 -70 -11 Z" /><glyph glyph-name="" unicode="&#x30da;" d="M813 517 q0 -44 -32 -75 q-32 -31 -76 -31 q-44 0 -75 31 q-31 31 -31 75 q0 45 31 76 q31 31 75 31 q45 0 76 -31 q32 -32 32 -76 ZM763 517 q0 23 -17 40 q-17 17 -41 17 q-23 0 -40 -17 q-16 -16 -16 -40 q0 -25 16 -41 q16 -16 40 -16 q25 0 41 16 q17 17 17 41 ZM847 64 q-52 34 -162 124 q-137 116 -207 170 q-69 54 -127 5 q-92 -71 -118 -90 q-29 -20 -52 -30 q-27 -10 -46 1 q-19 11 -23 32 q-8 32 34 53 q48 20 161 100 q105 75 217 -7 q67 -50 183 -137 q115 -86 202 -144 q19 -14 20 -32 q0 -19 -12 -34 q-26 -33 -70 -11 Z" /><glyph glyph-name="" unicode="&#x30de;" d="M646 113 q13 -26 4 -46 q-9 -21 -28 -29 q-30 -13 -54 20 q-29 47 -106 112 q-77 65 -139 94 q-18 9 -20 25 q-1 16 10 30 q20 27 64 10 q69 -35 134 -83 q126 82 222 174 q12 12 12 24 q0 13 -25 14 q-214 3 -539 -7 q-25 0 -38 13 q-13 13 -12 31 q0 36 49 41 q330 8 575 4 q66 -1 96 -45 q30 -45 -11 -91 q-105 -112 -260 -213 q49 -46 66 -78 Z" /><glyph glyph-name="" unicode="&#x30e1;" d="M715 206 q14 -20 9 -40 q-6 -21 -22 -32 q-28 -20 -56 10 q-29 36 -90 84 q-149 -192 -350 -302 q-24 -12 -42 -5 q-20 8 -27 27 q-13 32 23 54 q176 87 324 275 q-69 43 -129 65 q-17 7 -20 21 q-4 14 3 28 q16 33 62 21 q67 -27 135 -66 q81 117 134 246 q13 29 33 35 q20 6 38 -4 q34 -20 19 -62 q-79 -159 -150 -261 q74 -52 106 -94 Z" /><glyph glyph-name="" unicode="&#x30e2;" d="M767 14 q-116 -16 -231 -1 q-56 7 -89 44 q-32 37 -33 92 q-1 43 1 126 q-106 0 -240 -2 q-21 0 -32 12 q-11 12 -11 27 q0 35 41 40 q55 -1 244 -1 q2 75 3 150 q-81 0 -155 2 q-24 2 -35 15 q-11 13 -9 29 q3 32 50 34 q103 -5 425 1 q23 0 34 -11 q11 -12 11 -28 q-2 -32 -40 -38 q-52 -2 -199 -4 q0 -68 -3 -149 q140 0 300 2 q20 -1 30 -13 q10 -13 8 -29 q-2 -31 -44 -36 q-88 -1 -297 -1 q-2 -73 -1 -105 q0 -38 16 -56 q17 -20 58 -24 q87 -9 189 13 q31 6 49 -8 q17 -14 16 -35 q0 -34 -56 -46 Z" /><glyph glyph-name="" unicode="&#x30e3;" d="M574 -16 q10 -30 -3 -47 q-12 -17 -33 -17 q-26 0 -38 34 q-43 147 -87 295 l-121 -44 q-21 -7 -35 2 q-13 8 -16 24 q-6 29 26 43 l125 44 q-33 103 -33 104 q-8 27 5 40 q13 14 32 13 q26 -2 36 -30 l29 -103 q125 42 210 69 q39 12 68 -8 q30 -21 16 -61 q-40 -106 -122 -174 q-20 -16 -37 -14 q-18 3 -27 17 q-17 26 11 54 q58 45 84 105 q5 7 -3 4 q-50 -15 -180 -60 q60 -203 93 -290 Z" /><glyph glyph-name="" unicode="&#x30e9;" d="M319 584 q-45 6 -43 42 q2 33 49 37 q166 -2 342 0 q24 0 35 -13 q12 -13 11 -29 q-2 -33 -49 -37 q-162 -2 -345 0 ZM777 330 q-116 -276 -439 -374 q-34 -9 -53 5 q-20 14 -19 36 q1 27 40 40 q143 38 245 126 q94 81 133 185 q10 24 3 36 q-8 14 -37 15 q-178 3 -408 -5 q-24 0 -36 13 q-13 13 -12 30 q1 32 46 37 q204 5 436 3 q73 0 101 -39 q29 -40 0 -108 Z" /><glyph glyph-name="" unicode="&#x30ea;" d="M412 295 q-1 -25 -17 -36 q-17 -12 -36 -9 q-35 4 -37 43 q8 161 -2 354 q0 24 17 35 q18 10 38 6 q29 -5 34 -38 q6 -104 3 -355 ZM690 383 q0 -146 -51 -250 q-63 -128 -207 -212 q-31 -16 -52 -8 q-21 8 -26 28 q-9 29 24 51 q126 70 179 176 q43 86 43 214 q-2 141 -5 283 q1 23 16 33 q16 10 35 8 q38 -4 41 -41 q0 -143 3 -282 Z" /><glyph glyph-name="" unicode="&#x30eb;" d="M946 380 q-52 -95 -132 -180 q-81 -84 -183 -137 q-49 -24 -86 -5 q-40 21 -36 78 q12 220 14 391 q1 25 15 36 q14 12 31 11 q36 -3 40 -47 l-13 -350 q-1 -18 10 -22 q8 -3 24 6 q145 86 238 261 q12 21 29 25 q18 4 33 -4 q34 -20 16 -63 ZM433 514 q6 -150 -60 -281 q-73 -144 -215 -222 q-30 -15 -51 -6 q-21 9 -27 29 q-9 31 30 52 q116 53 179 164 q63 111 56 257 q0 27 14 39 q14 12 33 10 q36 -4 41 -42 Z" /><glyph glyph-name="" unicode="&#x30ed;" d="M791 169 q-2 -60 -39 -96 q-38 -37 -105 -39 q-142 -5 -292 0 q-73 2 -111 38 q-36 34 -38 95 q-5 120 0 259 q2 56 36 90 q38 38 110 41 q132 7 303 0 q60 -1 98 -37 q36 -34 38 -83 q5 -138 0 -268 ZM701 410 q-1 33 -18 50 q-19 19 -58 20 q-134 5 -255 0 q-41 -1 -60 -21 q-17 -18 -19 -52 q-7 -109 0 -223 q1 -34 20 -50 q19 -16 61 -18 q145 -5 253 0 q74 5 75 71 q6 122 1 223 Z" /><glyph glyph-name="" unicode="&#x30ef;" d="M365 -57 q-34 -8 -53 9 q-19 16 -15 40 q3 28 44 39 q166 36 266 167 q87 114 95 254 q2 34 -11 49 q-14 16 -48 18 q-129 5 -285 -1 q-26 -1 -43 -16 q-17 -14 -18 -37 q-2 -64 4 -137 q1 -24 -15 -36 q-15 -13 -35 -12 q-34 0 -41 41 q-4 95 0 173 q5 97 136 100 q203 5 311 3 q83 -1 114 -34 q31 -33 25 -114 q-13 -172 -119 -305 q-116 -145 -312 -201 Z" /><glyph glyph-name="" unicode="&#x30f3;" d="M855 472 q-94 -176 -235 -302 q-145 -129 -319 -184 q-36 -10 -56 7 q-19 17 -16 42 q3 30 43 43 q152 39 293 166 q134 121 212 277 q12 22 32 26 q20 4 37 -7 q30 -19 9 -68 ZM433 477 q21 -18 20 -40 q-1 -23 -17 -39 q-28 -28 -65 1 q-27 27 -72 50 q-41 21 -81 32 q-20 6 -25 23 q-5 16 3 32 q14 34 60 24 q111 -34 177 -83 Z" /><glyph glyph-name="" unicode="&#x4e00;" d="M116 387 l768 0 q23 -1 35 -15 q11 -14 10 -32 q-2 -39 -45 -44 l-768 0 q-26 1 -37 17 q-12 16 -9 36 q4 34 46 38 Z" /><glyph glyph-name="" unicode="&#x4e01;" d="M558 621 q0 -226 -1 -451 l2 -113 q1 -78 -57 -115 q-71 -45 -222 -17 q-25 6 -34 23 q-10 17 -4 35 q9 35 52 30 q80 -18 127 -7 q48 10 49 65 l0 550 l-350 0 q-20 1 -30 13 q-10 13 -9 29 q2 32 38 36 l765 0 q19 -1 28 -14 q9 -13 7 -29 q-2 -31 -35 -35 l-326 0 Z" /><glyph glyph-name="" unicode="&#x4e03;" d="M465 441 l385 83 q23 4 35 -12 q13 -15 11 -35 q-1 -26 -29 -34 l-403 -83 q-1 -130 -3 -260 q0 -55 62 -65 q99 -9 189 4 q44 8 62 40 q15 26 15 76 q1 27 17 37 q16 10 35 6 q33 -6 38 -43 q3 -174 -155 -196 q-110 -12 -222 -2 q-126 15 -126 131 q0 41 2 253 l-243 -53 q-26 -4 -40 11 q-14 15 -12 36 q2 25 33 33 l263 55 q4 224 5 294 q1 22 16 31 q15 10 33 8 q35 -3 38 -38 q-2 -70 -6 -277 Z" /><glyph glyph-name="" unicode="&#x4e07;" d="M503 619 q-5 -95 -18 -162 q132 2 202 1 q51 0 79 -29 q29 -29 28 -80 q-2 -151 -31 -248 q-68 -228 -343 -147 q-20 7 -26 24 q-6 16 0 33 q11 37 54 26 q86 -32 140 -17 q61 18 91 100 q28 78 30 217 q1 44 -48 46 q-95 -1 -191 -1 q-81 -320 -337 -456 q-25 -12 -44 -3 q-20 10 -26 29 q-10 31 24 52 q170 86 254 264 q71 150 77 351 l-295 -2 q-21 1 -31 14 q-10 13 -9 29 q2 33 40 37 l753 0 q19 -1 29 -14 q9 -13 8 -29 q-1 -33 -37 -37 l-373 2 Z" /><glyph glyph-name="" unicode="&#x4e08;" d="M571 597 l307 1 q19 -1 28 -13 q9 -12 9 -27 q0 -33 -37 -37 l-308 2 q-2 -128 -2 -144 q-2 -129 -44 -221 q156 -119 360 -147 q25 -4 34 -19 q10 -15 6 -32 q-8 -36 -56 -34 q-213 29 -386 163 q-107 -136 -354 -172 q-26 -3 -40 12 q-14 14 -13 34 q2 29 39 37 q220 29 306 142 q-103 96 -168 222 q-9 19 0 34 q9 16 26 22 q29 12 46 -16 q50 -105 136 -190 q26 65 28 165 l0 144 l-367 -2 q-22 1 -32 14 q-10 14 -7 30 q3 30 39 33 l366 -1 q0 73 -1 147 q1 22 16 31 q15 9 34 6 q31 -4 35 -36 l0 -148 Z" /><glyph glyph-name="" unicode="&#x4e09;" d="M231 380 l530 0 q19 -1 29 -14 q9 -13 8 -29 q-1 -33 -37 -37 l-530 0 q-21 1 -31 14 q-10 13 -9 29 q2 33 40 37 ZM178 675 l637 0 q20 -1 29 -14 q10 -14 8 -31 q-2 -32 -37 -36 l-637 0 q-22 1 -32 14 q-10 14 -8 31 q3 32 40 36 ZM118 61 l764 0 q20 -1 29 -15 q9 -14 7 -32 q-2 -31 -36 -35 l-764 0 q-21 1 -31 13 q-10 13 -9 29 q0 35 40 40 Z" /><glyph glyph-name="" unicode="&#x4e0a;" d="M522 29 l370 1 q19 -1 28 -15 q9 -13 6 -30 q-3 -29 -34 -33 l-780 0 q-18 1 -28 13 q-9 13 -8 29 q0 32 36 36 l322 -1 l0 691 q1 22 15 32 q15 11 33 9 q36 -3 40 -41 l0 -268 l284 1 q20 -1 29 -14 q9 -13 7 -30 q-3 -31 -36 -35 l-284 0 l0 -345 Z" /><glyph glyph-name="" unicode="&#x4e0b;" d="M527 419 l0 -467 q-1 -22 -15 -32 q-15 -11 -33 -9 q-36 3 -40 41 l0 676 l-320 -1 q-20 1 -29 13 q-9 13 -7 28 q3 32 36 36 l766 0 q20 -1 29 -16 q9 -14 5 -31 q-4 -27 -34 -30 l-358 1 l0 -136 q15 3 29 -2 q55 -18 126 -54 q76 -39 119 -72 q21 -17 22 -37 q1 -20 -13 -34 q-24 -28 -65 -3 q-94 74 -218 129 Z" /><glyph glyph-name="" unicode="&#x4e0d;" d="M834 205 q-84 112 -211 193 q-18 12 -20 27 q-2 14 7 26 q19 27 58 10 q60 -33 127 -85 q75 -59 112 -109 q17 -25 11 -48 q-7 -22 -27 -32 q-29 -14 -57 18 ZM566 630 q-28 -50 -63 -106 q16 -1 27 -10 q12 -10 12 -27 l1 -535 q-1 -21 -17 -30 q-16 -9 -35 -6 q-31 4 -34 36 l1 506 q-150 -209 -322 -306 q-24 -13 -44 -5 q-19 8 -26 26 q-12 29 22 51 q119 63 223 175 q95 102 166 232 l-338 -4 q-19 0 -29 12 q-10 11 -10 26 q0 34 39 39 l722 0 q19 -1 29 -12 q9 -12 9 -27 q0 -34 -38 -38 l-295 3 Z" /><glyph glyph-name="" unicode="&#x4e0e;" d="M134 255 l444 0 q20 -1 30 -15 q9 -14 6 -31 q-3 -29 -35 -32 l-444 1 q-21 1 -30 13 q-10 12 -9 27 q2 33 38 37 ZM431 645 l373 1 q20 -1 30 -13 q10 -12 9 -27 q0 -33 -39 -37 l-387 0 q-14 -70 -21 -103 q-2 -19 18 -19 q41 -1 312 -1 q117 -5 111 -107 q-6 -95 -14 -142 q-15 -92 -50 -147 q-65 -104 -176 -126 q-93 -18 -205 21 q-22 9 -27 27 q-5 18 3 35 q15 33 59 19 q84 -37 156 -21 q74 16 116 85 q29 47 41 124 q6 36 11 114 q3 45 -42 45 q-245 0 -329 1 q-46 1 -65 24 q-17 21 -8 60 q36 158 53 280 q3 19 17 26 q14 7 31 4 q37 -6 36 -43 q-9 -58 -13 -80 Z" /><glyph glyph-name="" unicode="&#x4e11;" d="M718 31 l161 0 q39 -4 40 -37 q1 -34 -40 -39 l-759 0 q-22 1 -32 14 q-10 14 -7 30 q4 29 39 32 l198 0 q25 98 53 278 l-133 -1 q-22 1 -31 14 q-10 13 -7 29 q4 29 39 32 l144 -1 q24 158 32 247 q-79 -1 -178 -1 q-40 5 -39 39 q1 32 38 36 q219 0 438 1 q54 -1 83 -27 q29 -26 25 -68 q-19 -191 -64 -578 ZM675 382 q11 100 22 209 q2 19 -11 29 q-12 9 -33 10 q-83 0 -154 -1 q-5 -56 -32 -247 l208 0 ZM667 309 l-212 1 q-26 -166 -51 -279 l231 0 q29 249 32 278 Z" /><glyph glyph-name="" unicode="&#x4e13;" d="M588 33 q63 -33 102 -56 q18 -11 19 -30 q1 -18 -14 -34 q-24 -24 -58 -2 q-177 110 -347 172 q-32 12 -22 44 q6 15 18 22 q14 8 31 2 q85 -29 194 -80 l2 1 q92 67 169 156 q8 9 5 17 q-3 8 -18 8 q-151 3 -318 -3 q-50 -2 -66 24 q-15 25 5 64 q29 58 42 86 l-223 0 q-17 0 -28 12 q-10 11 -10 25 q0 13 10 23 q11 11 28 11 l254 0 q28 70 41 106 l-183 0 q-18 0 -29 12 q-10 11 -10 24 q0 31 39 35 l207 0 q4 12 26 80 q7 21 25 29 q15 6 33 2 q17 -5 28 -19 q12 -16 6 -34 q-9 -29 -19 -58 l255 0 q38 -4 38 -36 q0 -14 -9 -24 q-10 -11 -29 -11 l-280 0 q-18 -51 -42 -106 l438 0 q18 0 28 -11 q9 -10 9 -26 q0 -15 -9 -24 q-10 -10 -28 -10 l-469 0 q-33 -68 -41 -84 q-6 -11 -2 -15 q3 -4 15 -4 q147 3 300 0 q60 -1 78 -43 q17 -41 -22 -89 q-69 -81 -169 -156 Z" /><glyph glyph-name="" unicode="&#x4e14;" d="M742 32 l152 1 q18 -1 27 -12 q9 -12 9 -26 q-1 -32 -37 -36 l-787 0 q-21 1 -30 14 q-10 13 -7 29 q3 28 37 31 l146 -1 q0 296 0 593 q0 95 107 100 q110 4 274 0 q52 -2 80 -26 q29 -25 29 -71 q0 -298 0 -596 ZM663 32 l0 168 l-332 0 q0 -128 1 -168 l331 0 ZM663 271 q0 107 -1 156 l-331 0 l0 -156 l332 0 ZM662 497 q0 97 -1 113 q-1 42 -48 43 q-116 5 -233 0 q-46 -1 -48 -42 q0 -57 -1 -114 l331 0 Z" /><glyph glyph-name="" unicode="&#x4e16;" d="M753 491 l154 1 q19 -1 29 -12 q10 -12 10 -27 q0 -33 -39 -37 l-155 1 q0 -125 -1 -163 q-2 -85 -96 -91 q-58 -3 -111 0 q-48 2 -71 25 q-22 22 -23 66 q0 81 -1 163 l-144 0 q-2 -253 1 -314 q3 -64 75 -66 q167 -12 447 2 q21 0 30 -14 q9 -14 6 -31 q-4 -28 -37 -33 q-245 -12 -458 -1 q-146 7 -149 133 q-3 111 -1 324 l-124 -1 q-41 4 -40 37 q1 34 40 39 l125 -1 q2 148 2 194 q1 20 17 29 q15 9 34 6 q32 -4 35 -35 q-1 -58 -3 -194 l144 0 q1 112 1 225 q1 19 16 27 q15 9 33 6 q29 -3 31 -32 q-1 -49 -1 -224 l0 -2 l145 0 q0 107 -1 215 q1 19 15 28 q14 9 30 7 q30 -3 34 -35 q1 -108 1 -215 ZM673 417 l-144 0 q0 -112 1 -145 q-1 -38 36 -40 q33 -3 68 0 q39 4 38 41 q1 31 1 144 Z" /><glyph glyph-name="" unicode="&#x4e18;" d="M680 36 l222 1 q19 -1 27 -14 q8 -14 6 -30 q-3 -30 -33 -33 l-801 0 q-19 1 -28 13 q-10 12 -9 27 q1 33 37 37 l151 0 q1 255 1 511 q-2 102 104 114 q209 27 347 71 q26 8 43 -7 q16 -15 16 -36 q0 -28 -33 -41 q-103 -30 -339 -60 q-33 -4 -44 -19 q-9 -12 -9 -42 q0 -44 -1 -88 l482 2 q21 -1 31 -13 q10 -13 9 -29 q-2 -32 -40 -36 l-139 0 l0 -328 ZM595 36 l0 328 l-258 1 q0 -165 0 -329 l258 0 Z" /><glyph glyph-name="" unicode="&#x4e1a;" d="M297 264 q7 -40 -20 -51 q-16 -8 -31 -2 q-18 7 -23 28 q-41 179 -106 322 q-13 30 16 46 q14 8 28 5 q16 -3 23 -19 q66 -139 113 -329 ZM893 567 q-46 -202 -109 -333 q-8 -18 -24 -23 q-15 -5 -30 1 q-32 11 -16 55 q70 141 106 320 q3 15 18 21 q14 6 28 2 q15 -4 22 -14 q9 -12 5 -29 ZM653 11 l259 0 q17 0 27 -12 q10 -12 10 -29 q0 -17 -9 -27 q-10 -11 -28 -11 l-815 0 q-36 4 -38 37 q0 17 9 29 q10 13 29 13 l257 0 l0 732 q0 18 13 28 q12 9 29 9 q16 0 28 -10 q13 -10 13 -27 l0 -732 l133 0 l0 732 q0 17 14 28 q12 9 28 9 q16 0 28 -10 q13 -11 13 -27 l0 -732 Z" /><glyph glyph-name="" unicode="&#x4e1b;" d="M949 -30 q0 -17 -9 -27 q-10 -11 -28 -11 l-815 0 q-36 4 -38 37 q0 17 9 29 q10 13 29 13 l815 0 q17 0 27 -12 q10 -12 10 -29 ZM688 580 q11 -120 66 -232 q56 -115 141 -186 q34 -36 11 -66 q-26 -31 -65 -1 q-64 50 -113 136 q-46 80 -71 176 q-58 -193 -194 -315 q-45 -35 -73 -5 q-13 13 -12 29 q1 17 18 31 q105 87 159 214 q51 120 51 261 l0 118 q5 41 42 44 q36 0 41 -44 l0 -119 q0 -27 -1 -41 ZM347 539 q95 -65 162 -159 q16 -32 -12 -55 q-15 -11 -29 -9 q-17 3 -29 22 q-43 70 -102 123 q-37 -207 -163 -367 q-35 -37 -68 -12 q-29 23 0 65 q161 199 161 475 l0 118 q5 41 42 44 q36 0 41 -44 l0 -119 q0 -42 -3 -82 Z" /><glyph glyph-name="" unicode="&#x4e1c;" d="M351 204 q27 -25 2 -56 q-87 -107 -221 -175 q-42 -20 -61 2 q-12 14 -11 31 q2 19 21 28 q121 58 217 170 q27 22 53 0 ZM929 38 q23 -35 -1 -59 q-13 -13 -29 -13 q-18 0 -31 18 q-74 97 -184 167 q-27 23 -6 50 q24 24 59 4 q115 -66 192 -167 ZM562 288 l0 -224 q0 -89 -25 -122 q-26 -34 -98 -35 q-41 0 -77 8 q-17 3 -27 15 q-9 11 -9 26 q1 18 12 28 q12 11 33 7 q23 -5 58 -7 q29 -1 40 13 q10 13 10 43 l0 248 q-125 0 -263 3 q-41 1 -56 30 q-15 28 7 58 q67 98 122 200 l-174 0 q-18 0 -29 13 q-9 11 -9 26 q0 13 9 23 q11 12 29 12 l212 0 q29 62 46 104 q8 17 27 23 q17 5 33 -1 q34 -11 19 -52 q-17 -37 -34 -74 l467 0 q17 0 27 -12 q9 -11 9 -26 q0 -15 -9 -25 q-10 -11 -27 -11 l-505 0 q-56 -107 -120 -197 q-6 -8 -2 -14 q3 -5 12 -5 q73 -2 209 -4 l0 128 q5 40 39 42 q18 0 30 -9 q14 -11 14 -33 l0 -128 q168 2 257 4 q17 1 28 -11 q9 -10 9 -24 q0 -15 -8 -25 q-9 -11 -27 -12 q-135 -3 -259 -3 Z" /><glyph glyph-name="" unicode="&#x4e1d;" d="M949 -31 q0 -16 -9 -26 q-10 -11 -28 -11 l-815 0 q-36 3 -38 37 q0 40 38 40 l815 0 q17 0 27 -11 q10 -11 10 -29 ZM745 462 q40 64 72 130 q8 17 25 21 q15 4 30 -3 q36 -17 18 -54 q-100 -190 -237 -347 q-5 -6 -3 -10 q2 -5 8 -4 q86 5 192 25 q32 3 36 -30 q3 -27 -25 -36 q-108 -25 -291 -39 q-32 -2 -44 22 q-11 23 6 42 q87 97 168 215 q-65 -11 -143 -16 q-34 -2 -47 20 q-13 22 6 48 q103 146 164 300 q17 33 50 27 q18 -4 26 -16 q10 -15 2 -34 q-58 -141 -143 -259 q-4 -6 -2 -10 q2 -4 9 -4 q42 2 123 12 ZM357 462 q42 69 71 130 q8 16 25 21 q15 4 30 -2 q14 -6 21 -20 q6 -15 -3 -35 q-97 -190 -234 -349 q-5 -6 -3 -10 q2 -5 9 -4 q90 9 183 29 q33 1 37 -30 q2 -28 -24 -36 q-112 -27 -286 -42 q-35 -1 -45 21 q-9 23 7 43 q82 89 168 215 q-99 -13 -145 -15 q-36 -1 -49 20 q-13 21 7 47 q99 132 165 301 q17 34 52 27 q17 -3 25 -16 q8 -14 0 -34 q-59 -148 -142 -259 q-4 -5 0 -10 q3 -4 9 -3 q57 3 122 11 Z" /><glyph glyph-name="" unicode="&#x4e1e;" d="M285 464 q-71 2 -155 -3 q-20 0 -28 13 q-8 12 -6 28 q3 27 32 31 q106 3 182 1 q51 -1 69 -32 q18 -30 0 -77 q-32 -89 -89 -167 q-72 -97 -171 -157 q-20 -11 -37 -4 q-18 8 -25 24 q-12 26 19 47 q81 45 145 123 q59 72 83 146 q5 17 0 22 q-4 4 -19 5 ZM882 -61 l-763 0 q-38 4 -39 35 q-1 33 39 38 l763 0 q19 -1 28 -12 q9 -11 8 -26 q0 -31 -36 -35 ZM698 408 q76 -150 212 -216 q20 -11 23 -28 q3 -18 -8 -33 q-20 -30 -60 -12 q-116 63 -194 196 q-66 111 -96 254 q-52 -32 -55 -34 q36 -62 47 -151 q10 -84 -5 -162 q-15 -77 -66 -118 q-58 -46 -148 -28 q-25 4 -34 19 q-9 14 -5 30 q8 37 50 28 q45 -15 77 4 q34 20 46 75 q20 90 3 180 q-19 99 -76 137 q-17 11 -18 26 q-1 15 10 27 q21 25 56 4 q16 -12 23 -19 q87 55 114 80 q10 10 7 16 q-3 6 -17 6 q-88 4 -319 -3 q-21 0 -31 12 q-9 12 -7 28 q3 27 37 32 q163 5 353 0 q63 -5 79 -44 q15 -38 -20 -73 q-11 -11 -43 -33 q14 -69 36 -132 q77 43 139 95 q18 13 38 5 q19 -7 27 -26 q12 -25 -18 -49 q-50 -38 -157 -93 Z" /><glyph glyph-name="" unicode="&#x4e24;" d="M653 545 q73 0 108 -1 q52 -1 81 -25 q31 -25 32 -73 q7 -188 2 -417 q-1 -52 -31 -83 q-28 -29 -77 -36 q-72 -7 -148 8 q-17 4 -25 17 q-8 13 -5 29 q7 30 40 25 q69 -14 122 -9 q22 3 31 15 q10 13 11 42 q8 194 0 390 q-1 50 -57 49 q-42 0 -85 1 q-2 -62 -7 -109 q2 -1 11 -5 q76 -50 112 -112 q21 -38 -8 -60 q-27 -18 -47 10 q-26 48 -79 94 q-31 -153 -118 -236 q-31 -25 -55 -1 q-27 26 7 60 q60 60 84 157 q17 71 20 202 q-72 1 -142 0 q-5 -64 -14 -110 q58 -40 90 -100 q16 -32 -8 -51 q-13 -11 -27 -10 q-16 1 -25 19 q-22 42 -46 70 q-40 -143 -123 -224 q-14 -14 -30 -13 q-15 1 -26 12 q-11 11 -10 26 q2 15 16 34 q109 119 122 347 q-41 -1 -82 -1 q-55 -2 -56 -47 q-4 -326 -1 -489 q0 -18 -12 -28 q-11 -9 -28 -9 q-15 0 -26 9 q-13 11 -14 28 q-5 266 1 510 q1 46 33 70 q31 23 85 24 q51 0 102 1 l0 129 l-245 0 q-18 0 -28 10 q-9 9 -9 24 q0 15 9 24 q10 10 28 10 l790 0 q38 -4 39 -34 q0 -34 -39 -34 l-243 0 l0 -129 ZM572 546 l0 128 l-140 0 l0 -123 l0 -5 l140 0 Z" /><glyph glyph-name="" unicode="&#x4e25;" d="M302 506 q13 -32 -17 -48 q-15 -8 -31 -6 q-17 2 -23 16 q-20 54 -64 104 q-10 12 -6 25 q4 13 18 20 q27 14 49 -2 q41 -36 74 -109 ZM846 583 q-21 -66 -69 -120 q-25 -23 -54 -9 q-15 8 -20 22 q-5 15 6 26 q44 47 63 102 q5 14 22 18 q15 3 30 -3 q27 -12 22 -36 ZM644 416 q168 0 251 -1 q17 0 29 -13 q11 -12 11 -24 q0 -16 -10 -28 q-11 -13 -31 -13 q-370 4 -615 0 q-58 0 -58 -52 q0 -94 -16 -170 q-19 -87 -70 -174 q-27 -38 -64 -18 q-29 18 -12 51 q45 69 65 160 q15 72 15 159 q0 120 127 122 l104 0 l0 244 l-226 0 q-18 0 -28 12 q-10 12 -10 27 q0 15 10 26 q11 12 28 12 l718 0 q18 0 28 -10 q10 -10 10 -28 q0 -39 -38 -39 l-218 0 l0 -243 ZM565 416 l0 243 l-116 0 l0 -243 l116 0 Z" /><glyph glyph-name="" unicode="&#x4e2a;" d="M455 -47 l0 501 q1 23 16 33 q15 10 33 7 q34 -3 38 -40 l0 -501 q-1 -23 -17 -33 q-16 -9 -35 -6 q-32 4 -35 39 ZM917 436 q20 -13 21 -32 q0 -19 -13 -35 q-27 -31 -69 -9 q-127 84 -317 301 q-40 46 -76 -1 q-64 -83 -152 -175 q-94 -98 -164 -149 q-28 -20 -51 -14 q-23 7 -31 27 q-13 30 20 55 q78 47 174 145 q76 78 146 170 q34 46 86 47 q54 1 98 -47 q172 -188 328 -283 Z" /><glyph glyph-name="" unicode="&#x4e2d;" d="M540 218 l0 -276 q-1 -19 -17 -28 q-15 -8 -34 -5 q-30 3 -33 33 l0 276 q-148 2 -221 5 q-111 9 -118 103 q-3 88 0 167 q2 44 32 72 q31 30 83 31 q74 2 224 4 l0 149 q1 21 15 29 q15 9 33 7 q32 -3 36 -36 l0 -149 q154 -2 227 -4 q47 -1 79 -29 q31 -27 33 -67 q5 -71 0 -173 q-5 -93 -119 -104 q-74 -3 -220 -5 ZM540 293 q87 1 204 5 q53 5 55 51 q2 81 0 121 q-2 48 -56 51 q-85 3 -203 3 l0 -231 ZM456 293 l0 231 q-116 0 -202 -3 q-25 -1 -41 -17 q-14 -14 -15 -35 q-4 -71 0 -120 q2 -50 57 -51 q60 -3 201 -5 Z" /><glyph glyph-name="" unicode="&#x4e30;" d="M548 158 l0 -214 q0 -18 -14 -30 q-13 -11 -31 -11 q-18 0 -30 10 q-14 12 -14 31 l0 214 l-364 0 q-18 0 -28 10 q-10 10 -10 26 q0 17 9 27 q10 12 29 12 l364 0 l0 134 l-223 0 q-17 0 -27 10 q-11 11 -11 26 q0 17 9 27 q10 11 29 11 l223 0 l0 129 l-303 0 q-17 0 -27 10 q-11 11 -11 26 q0 17 9 27 q10 11 29 11 l303 0 l0 98 q0 16 13 27 q12 10 31 10 q45 0 45 -37 l0 -98 l302 0 q17 0 27 -10 q10 -10 10 -27 q0 -37 -37 -37 l-302 0 l0 -129 l223 0 q16 0 26 -11 q10 -11 10 -26 q0 -37 -36 -37 l-223 0 l0 -134 l363 0 q17 0 27 -11 q10 -11 10 -27 q0 -37 -37 -37 l-363 0 Z" /><glyph glyph-name="" unicode="&#x4e34;" d="M176 686 l0 -651 q0 -17 -12 -27 q-12 -10 -28 -10 q-17 0 -27 9 q-11 10 -11 28 l0 651 q0 17 11 27 q10 9 26 9 q16 0 28 -9 q13 -10 13 -27 ZM348 744 l0 -804 q0 -14 -11 -24 q-10 -9 -26 -9 q-42 0 -42 33 l0 804 q0 17 12 27 q11 9 29 9 q17 0 27 -9 q11 -10 11 -27 ZM901 28 q-4 -85 -96 -91 q-125 -10 -272 0 q-95 6 -98 88 q-6 122 0 244 q1 38 30 62 q27 22 66 24 q143 5 275 0 q39 -2 66 -24 q28 -23 29 -61 q5 -139 0 -242 ZM768 404 q-12 -14 -29 -15 q-19 -1 -32 15 q-41 46 -91 75 q-24 18 -7 48 q19 25 51 12 q62 -27 105 -76 q26 -31 3 -59 ZM704 4 q28 0 68 2 q47 3 50 41 q6 98 0 197 q-1 39 -48 41 q-21 1 -70 1 l0 -282 ZM631 4 l0 282 q-49 0 -70 -1 q-46 -3 -47 -41 q-5 -104 0 -199 q1 -36 47 -39 q42 -2 70 -2 ZM586 655 l325 0 q37 -3 37 -35 q0 -15 -9 -25 q-10 -12 -28 -12 l-358 0 q-46 -89 -98 -150 q-28 -29 -62 -8 q-29 21 -5 52 q99 117 149 280 q5 17 21 22 q16 5 34 -3 q31 -13 22 -43 q-8 -30 -28 -78 Z" /><glyph glyph-name="" unicode="&#x4e38;" d="M486 567 q78 0 115 -1 q53 -1 82 -30 q29 -29 24 -77 q-3 -35 -13 -111 q-25 -199 -20 -283 q3 -40 41 -47 q32 -5 71 1 q75 11 79 134 q1 24 15 33 q14 10 31 7 q37 -5 41 -43 q-3 -191 -152 -208 q-40 -5 -93 -1 q-105 9 -115 111 q-8 88 30 386 q3 23 -8 38 q-13 17 -41 17 q-61 0 -93 -1 q-13 -112 -39 -194 q59 -40 96 -73 q21 -20 19 -41 q-1 -21 -16 -33 q-25 -21 -55 7 q-26 30 -72 64 q-87 -203 -283 -298 q-23 -10 -40 -1 q-17 9 -23 27 q-9 29 23 48 q180 87 254 270 q-59 36 -133 68 q-17 8 -21 22 q-4 14 2 27 q14 29 51 18 q62 -26 126 -62 q19 72 27 149 q-146 -6 -228 -7 q-20 0 -29 13 q-10 12 -8 28 q2 31 37 36 q118 3 235 6 q4 75 4 172 q1 22 17 32 q16 9 34 6 q31 -4 34 -37 q0 -88 -6 -172 Z" /><glyph glyph-name="" unicode="&#x4e39;" d="M426 542 q-27 18 -15 41 q14 25 49 20 q25 -9 68 -37 q44 -29 61 -48 q22 -35 -1 -59 q-23 -23 -54 3 q-41 45 -108 80 ZM759 381 l148 1 q19 -1 27 -13 q9 -12 8 -27 q-2 -30 -35 -34 l-148 2 q0 -97 1 -138 l2 -124 q1 -68 -46 -102 q-61 -44 -191 -24 q-21 4 -30 19 q-8 15 -5 31 q6 34 42 31 q60 -11 101 -3 q42 7 44 58 q0 70 2 252 l-335 0 q-11 -124 -52 -212 q-50 -107 -150 -181 q-20 -14 -38 -10 q-18 4 -28 19 q-21 28 11 55 q85 59 129 148 q36 74 47 181 l-160 -2 q-20 1 -29 14 q-10 13 -7 29 q3 28 36 31 l165 -1 q-1 137 -5 268 q0 46 31 72 q30 25 83 27 q163 4 276 0 q104 -6 107 -99 q1 -86 -1 -268 ZM679 381 q0 150 -3 257 q-1 37 -45 39 q-62 3 -237 0 q-48 -2 -48 -40 q1 -128 2 -256 l331 0 Z" /><glyph glyph-name="" unicode="&#x4e3a;" d="M709 215 q10 -16 5 -33 q-4 -15 -16 -24 q-15 -12 -33 -9 q-18 3 -30 21 q-39 62 -98 115 q-24 22 -1 45 q26 24 53 5 q71 -49 120 -120 ZM310 579 q-28 -13 -49 15 q-26 40 -69 76 q-23 23 -1 44 q24 21 51 6 q63 -35 91 -84 q9 -17 1 -34 q-7 -16 -24 -23 ZM506 542 q175 0 260 -2 q57 -2 88 -26 q36 -28 38 -83 q7 -210 -23 -345 q-14 -74 -60 -115 q-43 -39 -109 -46 q-92 -8 -182 13 q-19 4 -27 22 q-8 17 -2 36 q10 32 48 24 q64 -15 139 -13 q46 2 71 25 q27 25 39 80 q26 110 22 305 q-1 43 -50 45 q-113 4 -260 4 q-27 -163 -122 -311 q-95 -148 -230 -240 q-17 -12 -37 -7 q-19 4 -29 18 q-21 29 16 59 q120 81 204 210 q84 130 110 271 q-128 0 -281 -5 q-17 -1 -27 11 q-10 11 -10 28 q0 15 9 26 q10 11 28 12 q190 4 290 4 q1 11 1 32 l0 173 q0 16 14 27 q13 10 29 10 q18 0 30 -9 q14 -10 14 -28 l0 -174 q0 -20 -1 -31 Z" /><glyph glyph-name="" unicode="&#x4e3b;" d="M398 768 q46 -9 101 -32 q63 -27 94 -55 q15 -15 16 -31 q0 -17 -10 -30 q-25 -32 -63 -6 q-69 59 -163 82 q-19 5 -25 18 q-6 12 -1 26 q10 31 51 28 ZM542 21 l343 1 q19 -1 28 -12 q9 -12 9 -27 q0 -33 -37 -37 l-771 0 q-22 1 -31 13 q-9 12 -7 28 q3 31 38 35 l346 -1 l0 220 l-228 -1 q-20 1 -30 12 q-9 12 -8 26 q3 32 38 36 l228 -1 l0 175 l-285 -1 q-20 1 -30 12 q-9 12 -8 26 q3 32 38 36 l646 0 q21 -1 30 -13 q10 -13 8 -28 q-2 -29 -38 -33 l-279 1 l0 -175 l222 1 q21 -1 30 -13 q10 -13 8 -28 q-2 -29 -38 -33 l-222 1 l0 -220 Z" /><glyph glyph-name="" unicode="&#x4e3d;" d="M463 1 q-1 -86 -80 -91 q-38 -3 -71 2 q-12 1 -20 14 q-7 11 -6 25 q2 14 8 24 q7 10 16 9 q29 -6 45 -3 q29 3 30 38 q5 195 -2 478 q-1 17 -5 23 q-5 7 -18 8 q-57 3 -115 0 q-24 -1 -24 -31 q-4 -153 -2 -557 q0 -18 -11 -28 q-10 -9 -28 -9 q-16 0 -27 9 q-12 10 -12 28 q-3 271 2 572 q-1 80 70 85 q89 5 177 0 q70 -3 72 -85 q6 -239 1 -511 ZM366 277 q12 -30 -8 -50 q-12 -14 -27 -12 q-16 2 -26 23 q-21 43 -61 91 q-17 20 2 39 q18 20 41 3 q52 -38 79 -94 ZM864 1 q-1 -88 -81 -93 q-38 -2 -72 4 q-10 1 -18 14 q-8 13 -7 26 q1 13 8 23 q7 10 16 9 q26 -5 48 -3 q26 2 27 37 q5 199 -2 479 q-1 16 -5 23 q-4 7 -17 8 q-58 4 -115 0 q-24 -1 -24 -31 q-7 -317 -3 -557 q-3 -37 -37 -37 q-18 0 -28 8 q-13 10 -13 29 q-1 137 3 572 q-1 79 69 84 q89 4 177 0 q70 -4 72 -84 q6 -268 2 -511 ZM768 283 q12 -30 -8 -50 q-13 -14 -27 -12 q-15 2 -24 23 q-28 55 -63 91 q-14 20 1 39 q18 20 43 3 q51 -38 78 -94 ZM949 712 q0 -34 -36 -34 l-818 0 q-17 0 -28 10 q-10 9 -10 25 q0 15 9 24 q10 10 29 10 l818 0 q35 -3 36 -35 Z" /><glyph glyph-name="" unicode="&#x4e3e;" d="M367 660 q17 -35 -15 -57 q-15 -9 -27 -7 q-15 2 -24 17 q-31 55 -77 93 q-22 19 -2 41 q26 28 53 11 q48 -30 92 -98 ZM566 660 q7 -17 -2 -34 q-8 -15 -23 -21 q-14 -6 -27 -2 q-15 4 -21 19 q-30 67 -65 106 q-20 22 7 42 q30 22 52 4 q48 -40 79 -114 ZM689 569 l194 0 q15 0 25 -11 q10 -11 10 -25 q0 -16 -8 -25 q-9 -11 -27 -11 l-225 0 q61 -71 118 -115 q63 -48 147 -84 q21 -9 23 -28 q2 -16 -10 -32 q-23 -29 -67 -8 q-183 101 -288 267 l-162 0 q-94 -162 -282 -269 q-45 -25 -67 2 q-11 14 -9 32 q3 19 23 29 q143 67 255 206 l-214 0 q-17 0 -27 11 q-9 10 -9 25 q0 13 9 24 q10 12 27 12 l477 0 q56 71 97 178 q8 21 28 26 q19 5 37 -6 q33 -20 17 -54 q-33 -72 -92 -144 ZM545 61 l0 -122 q0 -15 -13 -25 q-12 -9 -29 -9 q-15 0 -27 8 q-14 10 -14 26 l0 122 l-296 0 q-37 5 -38 37 q0 13 10 23 q11 11 28 11 l296 0 l0 113 l-151 0 q-38 5 -39 37 q0 13 10 23 q12 12 29 12 l151 0 l0 89 q0 16 14 26 q11 8 27 8 q16 0 28 -8 q14 -9 14 -26 l0 -89 l152 0 q36 -5 37 -36 q0 -16 -8 -25 q-10 -11 -29 -11 l-152 0 l0 -113 l297 0 q34 -4 36 -34 q0 -37 -36 -37 l-297 0 Z" /><glyph glyph-name="" unicode="&#x4e43;" d="M443 655 q-6 -238 -75 -415 q-83 -213 -250 -312 q-23 -12 -41 -5 q-17 8 -25 25 q-13 31 17 52 q160 91 233 289 q58 157 57 366 q-120 0 -190 -2 q-19 0 -27 13 q-8 13 -6 29 q3 27 33 30 q261 3 423 1 q47 0 73 -28 q26 -28 18 -74 q-12 -70 -19 -104 q-3 -17 16 -18 q46 -1 92 -2 q51 -1 77 -28 q26 -27 23 -75 q-14 -248 -62 -344 q-49 -98 -155 -122 q-95 -22 -214 18 q-23 9 -29 27 q-6 18 2 35 q15 32 57 18 q80 -37 151 -24 q75 14 110 80 q43 81 53 300 q1 46 -38 46 q-39 -1 -110 1 q-70 5 -59 74 q14 63 21 112 q2 17 -7 27 q-8 9 -22 9 q-24 1 -127 1 Z" /><glyph glyph-name="" unicode="&#x4e45;" d="M593 408 q46 -132 131 -238 q90 -112 197 -160 q20 -10 23 -27 q3 -18 -7 -34 q-21 -35 -65 -20 q-100 48 -189 159 q-82 103 -132 231 q-75 -137 -183 -240 q-116 -109 -251 -161 q-26 -8 -43 4 q-18 13 -21 34 q-5 29 30 44 q174 63 300 214 q118 142 167 328 q6 23 1 32 q-6 11 -28 12 q-34 2 -125 0 q-78 -166 -200 -293 q-20 -20 -39 -19 q-19 0 -31 13 q-23 26 4 58 q167 157 238 398 q6 21 22 27 q16 6 33 0 q35 -12 27 -51 q-7 -21 -23 -63 q39 1 122 1 q55 0 76 -36 q22 -37 4 -101 q-14 -52 -38 -112 Z" /><glyph glyph-name="" unicode="&#x4e48;" d="M522 697 q-146 -222 -356 -398 q-32 -25 -59 -5 q-16 12 -17 31 q-1 22 18 38 q193 158 343 387 q12 18 32 20 q19 2 35 -14 q25 -25 4 -59 ZM793 21 q-241 -46 -594 -75 q-43 -1 -54 30 q-11 32 20 60 q31 24 83 73 q275 267 413 484 q15 24 37 29 q19 5 35 -6 q30 -23 12 -62 q-83 -130 -222 -280 q-125 -135 -239 -229 q-7 -6 -4 -13 q3 -6 11 -6 q214 14 455 61 q-49 64 -112 127 q-14 14 -13 31 q1 16 13 28 q12 12 27 13 q17 1 32 -13 q53 -48 120 -132 q70 -89 99 -148 q12 -24 7 -44 q-4 -18 -19 -27 q-16 -10 -33 -5 q-18 5 -29 27 q-15 31 -45 77 Z" /><glyph glyph-name="" unicode="&#x4e49;" d="M572 605 q10 -40 -22 -58 q-16 -9 -31 -4 q-17 6 -25 26 q-30 82 -86 156 q-19 27 7 47 q28 18 53 -4 q66 -73 104 -163 ZM562 199 q144 -131 358 -205 q20 -7 27 -24 q7 -16 0 -33 q-14 -39 -64 -26 q-223 84 -380 229 q-158 -147 -379 -229 q-49 -13 -64 26 q-7 17 0 33 q7 17 27 24 q213 75 357 206 q-170 187 -229 450 q-6 19 6 32 q10 12 28 15 q18 3 33 -5 q15 -8 19 -26 q48 -239 202 -408 q153 170 203 408 q3 17 19 26 q15 8 32 5 q18 -3 28 -15 q12 -14 7 -32 q-60 -264 -230 -451 Z" /><glyph glyph-name="" unicode="&#x4e4b;" d="M540 607 q82 -1 164 -1 q64 0 89 -38 q26 -39 -12 -94 q-60 -88 -170 -192 q-124 -117 -247 -189 q51 -42 118 -57 q80 -18 193 -12 q53 3 198 21 q22 2 35 -12 q12 -13 11 -32 q0 -33 -43 -42 q-273 -40 -419 1 q-127 36 -196 149 q-47 -90 -99 -149 q-17 -18 -37 -18 q-20 1 -34 13 q-27 25 4 58 q36 32 77 95 q39 60 50 97 q5 15 16 20 q12 6 27 2 q29 -9 27 -40 l0 -1 q10 -19 19 -34 q111 62 225 169 q106 100 154 179 q10 17 3 25 q-6 7 -23 7 q-227 2 -470 -2 q-21 0 -30 14 q-9 13 -7 30 q3 29 35 32 q128 0 255 1 l3 0 l-1 124 q0 21 15 31 q14 10 32 8 q35 -3 39 -39 l-1 -124 Z" /><glyph glyph-name="" unicode="&#x4e4c;" d="M709 137 q0 -32 -35 -32 l-557 0 q-16 0 -26 10 q-9 9 -9 21 q0 15 7 24 q9 12 28 12 l557 0 q18 0 27 -11 q8 -9 8 -24 ZM472 689 l7 0 q72 0 220 -2 q98 -1 90 -75 q-5 -60 -20 -113 q-11 -43 -45 -61 q-30 -16 -82 -16 q-74 0 -146 11 q-19 3 -28 16 q-9 12 -7 26 q5 31 48 26 q62 -11 132 -11 q20 0 31 6 q12 7 17 23 q11 40 14 76 q3 23 -23 23 q-173 6 -361 1 q-32 0 -34 -36 q-3 -105 0 -210 q1 -29 33 -29 q306 4 461 2 q66 -1 93 -27 q30 -29 24 -93 q-11 -108 -40 -209 q-32 -112 -197 -110 q-199 -4 -355 14 q-19 2 -27 16 q-7 12 -3 26 q6 30 45 26 q187 -19 331 -13 q59 2 87 17 q31 17 42 60 q23 82 32 178 q2 26 -8 37 q-9 9 -33 10 q-230 5 -460 0 q-55 -2 -80 17 q-28 21 -29 73 q-4 141 0 234 q2 38 28 61 q25 22 66 24 q30 1 89 1 q21 36 37 74 q5 14 19 17 q13 3 29 -3 q35 -12 25 -47 q-14 -28 -22 -40 Z" /><glyph glyph-name="" unicode="&#x4e4d;" d="M527 147 l0 -205 q-1 -19 -16 -28 q-15 -8 -32 -6 q-31 4 -34 34 l1 604 l-135 0 q-83 -123 -161 -191 q-19 -17 -37 -15 q-18 2 -29 14 q-21 25 6 53 q163 147 241 348 q8 20 25 24 q16 5 33 -3 q34 -15 22 -54 q-24 -54 -54 -103 l518 0 q21 -1 30 -13 q10 -13 8 -28 q-2 -28 -38 -32 l-349 0 l0 -126 l282 0 q18 -1 26 -12 q9 -11 9 -25 q-1 -31 -35 -35 l-282 0 l1 -129 l291 0 q18 -1 26 -12 q9 -11 9 -25 q-1 -31 -35 -35 l-291 0 Z" /><glyph glyph-name="" unicode="&#x4e50;" d="M350 220 q25 -20 4 -54 q-89 -113 -223 -181 q-39 -20 -60 3 q-11 14 -10 30 q2 19 20 28 q119 55 216 174 q10 12 27 11 q15 -1 26 -11 ZM934 50 q24 -35 -1 -60 q-12 -12 -29 -12 q-19 0 -31 17 q-78 109 -183 174 q-28 21 -7 49 q23 23 55 6 q51 -27 108 -77 q57 -51 88 -97 ZM559 318 l0 -254 q0 -88 -28 -123 q-28 -35 -97 -34 q-54 0 -101 9 q-17 3 -27 16 q-9 12 -9 26 q1 18 12 28 q12 11 33 7 q39 -9 83 -9 q30 0 41 14 q10 13 10 44 l0 276 q-79 0 -217 2 q-58 1 -82 16 q-33 20 -28 73 q6 79 24 184 q11 63 31 84 q23 24 81 27 q262 12 452 53 q44 9 54 -24 q5 -16 -2 -30 q-8 -15 -27 -18 q-223 -36 -459 -49 q-24 -1 -34 -14 q-9 -11 -14 -38 q-14 -80 -22 -169 q-1 -12 6 -17 q6 -5 19 -5 q138 -2 218 -2 l0 163 q4 40 40 42 q17 0 29 -9 q14 -11 14 -33 l0 -163 q152 0 290 3 q17 1 28 -11 q9 -10 9 -25 q0 -15 -9 -25 q-10 -12 -28 -12 q-138 -3 -290 -3 Z" /><glyph glyph-name="" unicode="&#x4e54;" d="M415 274 q0 -125 -53 -213 q-67 -112 -227 -155 q-45 -10 -58 20 q-8 16 0 33 q8 17 29 22 q135 38 185 119 q41 69 41 174 q0 37 44 37 q17 0 28 -10 q11 -10 11 -27 ZM670 276 l0 -335 q0 -17 -13 -28 q-12 -10 -28 -10 q-17 0 -28 9 q-13 10 -13 29 l0 335 q0 18 13 28 q13 10 30 9 q16 0 27 -9 q12 -10 12 -28 ZM581 479 q45 -51 117 -91 q102 -59 202 -68 q53 -5 41 -55 q-12 -35 -52 -32 q-115 10 -237 87 q-101 63 -156 149 q-32 -64 -78 -107 q-125 -107 -308 -135 q-42 -3 -49 32 q-4 17 4 30 q9 15 30 19 q163 21 262 104 q32 27 54 67 l-297 0 q-35 0 -35 38 q0 14 10 24 q10 10 25 10 l328 0 q15 52 16 104 q-120 -7 -245 -7 q-38 4 -40 34 q-2 15 8 26 q10 12 29 12 q381 4 549 46 q36 4 48 -24 q6 -15 -1 -28 q-8 -14 -28 -20 q-96 -23 -236 -34 q0 -55 -14 -109 l363 0 q33 -4 35 -34 q0 -16 -8 -26 q-9 -12 -27 -12 l-310 0 Z" /><glyph glyph-name="" unicode="&#x4e58;" d="M684 423 q83 29 136 58 q29 11 42 -19 q10 -26 -19 -43 q-70 -32 -159 -55 l0 -29 q0 -31 33 -34 q27 -6 65 1 q44 7 42 45 q1 17 12 25 q11 7 25 5 q28 -3 32 -32 q0 -91 -94 -104 q-46 -6 -101 -1 q-81 5 -80 83 q0 83 2 161 q1 16 13 23 q12 8 26 5 q24 -3 26 -28 q0 -31 -1 -61 ZM536 685 l0 -82 l338 0 q19 -1 27 -12 q9 -12 7 -26 q-3 -26 -34 -29 l-339 0 l-1 -220 q130 -166 380 -289 q21 -11 24 -28 q3 -17 -7 -31 q-22 -33 -66 -14 q-87 47 -171 114 q-90 71 -159 151 l4 -288 q-1 -19 -16 -28 q-16 -8 -34 -5 q-28 4 -31 33 l3 281 q-126 -152 -330 -268 q-23 -13 -42 -5 q-19 7 -26 24 q-11 27 24 48 q242 122 375 308 l-1 217 l-330 0 q-20 1 -28 12 q-9 11 -7 24 q3 28 35 31 l329 0 l0 78 q-163 -7 -265 -8 q-40 4 -40 34 q0 31 41 35 q345 0 544 30 q25 3 36 -10 q10 -13 7 -30 q-4 -23 -28 -28 q-105 -13 -219 -19 ZM313 346 l0 45 l-161 0 q-16 1 -23 11 q-7 9 -5 22 q2 24 28 27 l160 0 l0 29 q1 18 12 26 q12 8 26 6 q25 -3 28 -32 l0 -219 q-1 -17 -11 -25 q-11 -7 -25 -6 q-26 1 -30 31 l0 23 q-97 -32 -160 -47 q-18 -3 -28 8 q-10 11 -10 27 q-2 25 21 32 q100 19 178 42 Z" /><glyph glyph-name="" unicode="&#x4e5d;" d="M471 569 q80 0 120 -1 q55 -1 85 -31 q30 -30 25 -78 q-4 -44 -12 -96 q-28 -213 -21 -293 q4 -41 39 -47 q32 -5 73 1 q75 9 79 134 q2 26 16 36 q15 10 33 6 q37 -6 41 -45 q-4 -193 -155 -211 q-39 -5 -95 -1 q-107 8 -117 112 q-7 80 31 382 q3 23 -8 37 q-13 16 -41 17 q-64 0 -98 -1 q-18 -202 -84 -327 q-82 -155 -253 -238 q-24 -10 -41 -2 q-17 9 -23 27 q-12 31 23 52 q151 73 221 206 q56 107 70 280 q-72 -3 -217 -7 q-21 0 -30 13 q-10 13 -8 30 q2 33 38 38 q147 4 222 5 q2 54 2 166 q1 22 16 32 q15 10 34 8 q34 -2 38 -38 q0 -85 -3 -166 Z" /><glyph glyph-name="" unicode="&#x4e5f;" d="M574 445 l0 -290 q-1 -19 -15 -27 q-15 -8 -32 -6 q-30 4 -33 33 l0 253 q-46 -21 -149 -69 l0 -240 q0 -37 19 -56 q19 -19 63 -23 q161 -14 325 6 q82 10 94 125 q3 22 17 31 q13 8 30 5 q38 -7 40 -47 q-9 -91 -49 -137 q-40 -46 -119 -54 q-198 -22 -359 -4 q-77 8 -111 45 q-31 33 -31 96 q1 108 1 216 q-68 -31 -137 -65 q-22 -10 -38 0 q-15 10 -19 28 q-7 30 25 48 q85 38 169 77 l0 254 q1 21 16 30 q15 9 33 6 q31 -5 34 -37 q-2 -58 -2 -216 q89 40 148 67 l0 247 q1 20 15 28 q14 9 31 7 q30 -4 34 -35 l0 -211 q68 29 135 59 q43 18 81 0 q41 -19 42 -66 q5 -119 -8 -228 q-11 -87 -62 -114 q-48 -25 -141 -2 q-15 4 -21 18 q-6 13 -3 28 q6 37 46 30 q50 -16 72 -6 q22 10 29 51 q11 65 8 185 q0 16 -10 23 q-11 8 -27 1 q-70 -32 -141 -64 Z" /><glyph glyph-name="" unicode="&#x4e60;" d="M710 332 q6 -13 2 -28 q-5 -16 -22 -26 q-244 -123 -532 -206 q-49 -10 -63 22 q-7 16 -1 32 q7 18 27 23 q311 85 539 197 q35 12 50 -14 ZM868 604 q14 -283 -23 -505 q-15 -91 -65 -135 q-50 -44 -142 -47 q-84 -2 -141 14 q-14 5 -20 20 q-6 15 -2 30 q7 37 47 29 q55 -13 122 -10 q102 7 123 124 q34 221 19 466 q-4 49 -52 51 q-292 2 -564 -2 q-38 3 -39 38 q0 15 9 25 q11 11 30 12 q292 6 583 1 q53 -2 83 -30 q30 -29 32 -81 ZM507 367 q-12 -17 -30 -19 q-20 -3 -37 14 q-84 79 -186 121 q-30 17 -13 49 q17 28 53 17 q46 -15 111 -54 q65 -39 99 -73 q25 -26 3 -55 Z" /><glyph glyph-name="" unicode="&#x4e61;" d="M742 315 q31 57 50 116 q17 49 57 35 q18 -6 25 -21 q6 -14 2 -30 q-28 -108 -97 -206 q-68 -97 -155 -153 q-105 -70 -228 -106 q-101 -30 -249 -45 q-50 0 -53 33 q-2 16 8 30 q10 15 28 16 q145 16 242 45 q115 34 206 97 q63 43 117 116 q-249 -36 -420 -49 q-58 -4 -75 27 q-7 15 -3 32 q5 18 21 28 q174 105 305 201 q-159 -26 -277 -35 q-57 -6 -72 24 q-14 29 17 55 q151 109 270 242 q15 16 35 16 q17 0 30 -11 q13 -12 15 -27 q2 -17 -13 -30 q-94 -97 -206 -180 q-7 -5 -6 -9 q2 -3 12 -2 q122 12 300 40 q61 50 104 96 q16 18 36 15 q16 -2 30 -16 q24 -29 3 -55 q-208 -186 -456 -326 q-8 -4 -6 -9 q2 -5 12 -4 q133 12 391 50 Z" /><glyph glyph-name="" unicode="&#x4e66;" d="M888 571 q-12 -15 -30 -17 q-19 -2 -36 14 q-65 68 -141 107 q-28 18 -12 46 q19 31 54 17 q93 -42 164 -112 q24 -28 1 -55 ZM739 358 q14 -1 40 -1 q65 -1 93 -22 q28 -21 27 -69 q-2 -102 -11 -161 q-15 -99 -109 -103 q-94 -4 -163 12 q-18 4 -26 17 q-8 12 -6 26 q3 15 12 24 q11 10 26 6 q63 -17 120 -17 q56 0 64 47 q10 54 10 132 q0 37 -37 36 q-139 3 -318 3 l0 -349 q0 -15 -13 -25 q-12 -9 -28 -9 q-16 0 -28 8 q-14 10 -14 26 l0 348 q-157 0 -286 -3 q-16 -1 -26 10 q-9 10 -9 25 q0 16 8 26 q10 12 28 12 q16 0 285 3 l0 181 q-104 0 -214 -3 q-36 2 -36 35 q0 16 9 26 q10 11 27 11 q146 2 214 2 l0 137 q0 15 13 24 q13 9 30 9 q17 0 28 -8 q12 -9 12 -25 l0 -137 q69 0 217 -2 q49 -1 73 -25 q25 -25 18 -72 q-14 -91 -30 -155 ZM655 359 q18 70 30 145 q6 34 -32 35 q-132 2 -192 2 l0 -181 q67 -1 194 -1 Z" /><glyph glyph-name="" unicode="&#x4e70;" d="M463 466 q-22 -25 -60 2 q-80 58 -159 91 q-32 15 -22 46 q15 33 51 20 q85 -27 184 -95 q35 -29 6 -64 ZM409 321 q-24 -28 -61 -1 q-74 56 -163 89 q-32 15 -22 46 q13 33 49 22 q100 -31 188 -92 q35 -29 9 -64 ZM916 -72 q-21 -32 -59 -10 q-125 86 -281 148 q-14 5 -20 20 q-5 14 1 27 q16 31 55 19 q153 -54 288 -142 q38 -28 16 -62 ZM892 628 q-24 -83 -58 -149 q-9 -17 -29 -24 q-19 -6 -33 0 q-33 15 -17 49 q42 86 53 128 q5 19 1 25 q-5 7 -21 8 q-295 9 -647 1 q-13 -1 -23 11 q-9 11 -9 24 q-1 13 8 24 q9 11 22 11 q341 7 683 1 q49 -1 67 -31 q17 -28 3 -78 ZM598 270 l295 0 q15 0 26 -12 q11 -12 11 -25 q0 -16 -8 -26 q-9 -12 -28 -12 l-323 0 q-112 -245 -441 -287 q-43 -4 -50 29 q-4 16 5 30 q10 16 29 18 q135 14 226 69 q85 51 139 141 l-372 0 q-35 0 -35 40 q0 13 10 24 q10 11 25 11 l406 0 q30 94 30 304 q0 20 12 32 q12 12 33 11 q18 0 29 -13 q10 -11 10 -30 q0 -195 -29 -304 Z" /><glyph glyph-name="" unicode="&#x4e71;" d="M410 182 q0 38 -41 40 q-73 2 -141 0 q-41 -4 -42 -40 q-3 -60 0 -122 q3 -37 42 -41 q66 -7 140 0 q42 4 44 46 q2 39 -2 117 ZM698 -58 q-59 6 -88 34 q-30 29 -30 83 q0 605 2 669 q2 19 17 28 q14 8 32 6 q32 -3 36 -36 q-1 -99 -2 -198 q-1 -228 -3 -455 q0 -47 51 -52 q49 -6 89 2 q29 5 42 29 q15 28 14 89 q0 25 15 35 q14 9 32 6 q34 -5 39 -41 q1 -89 -26 -136 q-29 -51 -96 -60 q-63 -9 -124 -3 ZM336 289 q39 0 56 -1 q41 -2 67 -25 q27 -24 28 -61 q5 -117 3 -159 q-4 -82 -96 -94 q-78 -6 -191 0 q-46 3 -70 29 q-21 23 -23 63 q-2 49 0 157 q1 38 27 63 q25 25 65 27 q29 1 57 2 l0 134 l-161 0 q-38 4 -38 35 q0 33 38 38 l161 -1 l0 123 q-71 -9 -148 -13 q-21 0 -30 13 q-9 13 -7 29 q3 29 32 32 q185 3 339 60 q39 8 48 -29 q6 -29 -28 -45 q-48 -19 -129 -34 l0 -136 l165 1 q38 -4 39 -35 q2 -33 -39 -38 l-165 0 l0 -135 Z" /><glyph glyph-name="" unicode="&#x4e86;" d="M568 452 q42 -67 53 -162 q11 -90 -8 -183 q-23 -109 -108 -158 q-80 -46 -189 -25 q-26 6 -35 22 q-9 17 -4 35 q10 33 52 28 q74 -17 125 9 q56 29 73 106 q23 108 0 204 q-28 116 -116 152 q-16 7 -19 21 q-3 13 5 26 q16 30 55 21 q39 -14 67 -39 q91 60 156 122 q11 12 9 19 q-2 7 -18 8 q-179 4 -443 -3 q-22 0 -32 13 q-9 13 -7 29 q3 29 39 33 q207 5 486 0 q65 -1 82 -43 q16 -39 -21 -79 q-31 -33 -101 -86 q-60 -45 -101 -70 Z" /><glyph glyph-name="" unicode="&#x4e88;" d="M603 437 q189 0 220 -1 q52 -2 72 -36 q21 -36 -7 -81 q-52 -80 -128 -134 q-25 -15 -45 -11 q-21 4 -31 19 q-18 27 15 51 q62 40 106 96 q9 13 6 19 q-4 7 -21 7 l-236 0 l0 -230 l1 -91 q2 -167 -241 -128 q-24 5 -34 20 q-10 15 -8 32 q6 35 47 30 q84 -17 118 -3 q35 14 35 64 l0 306 q-278 -2 -344 -2 q-17 0 -26 12 q-8 11 -7 25 q2 29 33 33 q136 2 395 2 q-80 60 -163 92 q-31 16 -20 41 q14 29 52 21 q47 -14 117 -53 q99 54 155 99 q11 9 7 17 q-4 7 -17 8 q-166 2 -414 -4 q-42 4 -43 35 q-1 32 41 38 q245 4 460 0 q64 -1 81 -41 q16 -38 -23 -76 q-62 -54 -179 -121 q10 -8 15 -13 q20 -19 11 -42 Z" /><glyph glyph-name="" unicode="&#x4e89;" d="M798 294 q0 -35 -2 -79 q-5 -89 -112 -91 q-66 -2 -146 -2 l0 -7 l1 -79 q1 -67 -51 -101 q-62 -40 -184 -18 q-23 5 -33 19 q-10 14 -8 29 q5 36 47 33 q82 -16 114 -5 q33 11 33 59 l0 70 l-9 0 q-183 0 -226 1 q-18 1 -27 12 q-8 12 -6 26 q3 26 34 28 q46 -1 234 -1 l0 107 l-345 0 q-17 1 -26 11 q-8 10 -7 23 q1 27 33 31 l345 0 l0 97 q-98 -1 -197 -1 q-20 -1 -30 14 q-9 14 -4 30 q-19 -17 -50 -40 q-22 -16 -40 -12 q-18 4 -27 19 q-15 26 16 51 q65 41 132 111 q64 67 101 130 q12 19 28 22 q16 2 30 -7 q28 -20 10 -54 q-9 -13 -18 -26 q80 0 159 0 q39 -1 55 -27 q16 -26 -5 -57 q-24 -34 -74 -87 q73 -1 145 -1 q103 -2 108 -87 q1 -37 2 -74 l105 0 q17 -1 25 -11 q8 -11 8 -24 q-1 -28 -33 -32 l-105 0 ZM717 295 l-179 0 l0 -107 q101 0 130 1 q44 1 47 39 q2 36 2 67 ZM717 360 q0 28 -2 62 q-3 32 -44 34 q-66 0 -133 1 l0 -97 l179 0 ZM453 523 q54 57 71 85 q8 12 5 19 q-3 7 -15 7 q-36 0 -154 -2 q-47 -54 -108 -110 q3 1 8 1 l193 0 Z" /><glyph glyph-name="" unicode="&#x4e8b;" d="M815 257 l98 0 q18 -1 26 -13 q8 -12 6 -27 q-3 -25 -32 -28 l-98 0 q0 -16 -2 -40 q-6 -75 -100 -75 q-85 -1 -170 -2 l0 -58 q1 -55 -44 -82 q-52 -32 -155 -16 q-23 4 -33 18 q-9 14 -7 29 q7 35 50 30 q40 -9 72 -6 q39 2 41 49 l0 36 q-183 0 -263 1 q-17 1 -25 11 q-7 9 -6 22 q2 24 31 26 q148 -2 263 -2 l0 63 l-377 0 q-15 1 -22 10 q-8 9 -7 21 q1 25 29 28 l377 0 l0 56 q-112 1 -263 -1 q-15 0 -22 9 q-7 9 -6 21 q1 24 31 27 q76 1 260 1 l0 49 q-105 0 -162 3 q-53 2 -75 15 q-21 12 -24 42 q-2 28 1 59 q3 30 24 43 q23 14 74 15 q81 0 162 1 l0 52 l-312 -1 q-18 1 -27 12 q-8 11 -6 25 q2 26 33 29 l312 -1 l0 51 q1 19 12 29 q12 9 27 9 q33 -1 37 -38 l0 -51 l307 1 q18 -1 27 -11 q8 -11 7 -25 q-2 -27 -34 -30 l-307 1 l0 -52 q120 0 164 -1 q46 -1 69 -17 q21 -14 23 -41 q3 -31 0 -58 q-2 -29 -21 -42 q-21 -15 -70 -16 q-58 -3 -165 -3 l0 -49 q86 -1 171 -2 q96 -2 100 -70 q1 -10 1 -36 ZM740 193 l-197 0 l0 -63 q61 0 155 2 q36 1 41 33 q1 8 1 28 ZM740 252 q0 11 -1 23 q-1 16 -13 24 q-11 8 -28 8 q-44 1 -155 1 l0 -56 l197 0 ZM543 467 q81 0 143 2 q34 1 35 20 q2 15 0 30 q-2 19 -37 20 q-35 1 -141 1 l0 -73 ZM467 467 l0 73 q-109 0 -146 -1 q-33 -1 -36 -20 q-2 -15 0 -29 q1 -11 8 -15 q7 -5 30 -6 q31 -2 144 -2 Z" /><glyph glyph-name="" unicode="&#x4e8c;" d="M194 602 l591 0 q20 -1 29 -15 q9 -15 7 -33 q-2 -32 -36 -36 l-591 0 q-22 1 -31 15 q-9 14 -7 31 q3 34 38 38 ZM116 102 l767 0 q20 -1 29 -16 q10 -15 7 -34 q-3 -31 -36 -35 l-767 0 q-22 1 -31 15 q-9 14 -7 32 q3 34 38 38 Z" /><glyph glyph-name="" unicode="&#x4e8e;" d="M549 632 l0 -211 l344 1 q21 -1 30 -15 q10 -14 7 -31 q-3 -29 -37 -32 l-344 0 l0 -174 l2 -113 q1 -76 -53 -113 q-67 -46 -211 -20 q-27 6 -37 23 q-9 17 -4 36 q10 34 54 29 q82 -16 117 -7 q45 12 45 66 l0 273 l-352 0 q-23 1 -32 14 q-10 13 -7 29 q4 31 39 35 l352 -1 l0 211 l-273 0 q-21 1 -31 12 q-9 11 -9 26 q2 34 40 39 l625 0 q21 -1 30 -15 q10 -14 7 -31 q-3 -28 -37 -31 l-265 0 Z" /><glyph glyph-name="" unicode="&#x4e91;" d="M225 686 l541 0 q41 -5 40 -40 q-1 -33 -40 -37 l-541 0 q-20 1 -30 13 q-10 12 -9 27 q1 33 39 37 ZM739 35 q-102 -22 -277 -43 q-154 -19 -252 -25 q-43 -1 -56 28 q-13 30 20 59 q41 34 69 68 q85 100 166 243 l-285 -2 q-22 0 -31 14 q-10 14 -8 31 q3 29 39 33 l751 0 q20 -1 29 -13 q10 -12 9 -28 q-1 -33 -38 -37 l-366 2 q-62 -121 -196 -295 q-6 -7 -4 -11 q2 -4 10 -3 q197 13 371 41 q-45 50 -92 86 q-31 30 -9 54 q23 24 63 3 q51 -33 115 -101 q66 -70 94 -125 q13 -25 3 -45 q-9 -19 -28 -26 q-33 -12 -56 25 q-17 34 -41 67 Z" /><glyph glyph-name="" unicode="&#x4e92;" d="M678 48 l214 0 q41 -5 40 -40 q-1 -33 -40 -37 l-785 0 q-22 1 -32 14 q-10 14 -7 30 q3 30 39 33 l487 0 q8 49 21 142 q-132 -2 -276 1 q-60 1 -84 34 q-21 28 -10 69 q62 236 86 362 l-174 -1 q-20 1 -30 13 q-10 12 -9 27 q1 33 39 37 l685 0 q41 -5 40 -40 q-1 -33 -40 -37 l-424 1 q-1 -7 -28 -128 q118 0 236 1 q57 -1 85 -32 q24 -26 19 -67 q-33 -253 -52 -382 ZM625 263 q10 76 20 153 q2 18 -8 28 q-10 11 -32 12 q-59 1 -233 -1 q-10 -41 -41 -154 q-5 -17 5 -27 q10 -10 31 -10 q23 -1 258 -1 Z" /><glyph glyph-name="" unicode="&#x4e94;" d="M756 36 l141 1 q19 -1 29 -13 q9 -12 8 -28 q-1 -31 -37 -35 l-794 0 q-21 1 -30 12 q-10 11 -9 26 q2 33 39 38 l211 -1 q38 141 76 309 q-126 -2 -181 -2 q-22 1 -32 13 q-9 13 -7 29 q3 29 39 33 q118 2 198 2 q22 98 41 196 l-285 -1 q-20 1 -29 12 q-10 11 -9 26 q1 33 38 38 l668 0 q20 -1 30 -13 q10 -12 9 -28 q-2 -31 -39 -35 l-298 1 q-14 -77 -40 -195 q61 0 157 -2 q53 -1 83 -26 q32 -27 31 -76 q-5 -208 -8 -281 ZM671 36 q7 212 6 268 q-1 40 -45 41 q-47 1 -155 1 q-41 -180 -77 -310 l271 0 Z" /><glyph glyph-name="" unicode="&#x4e95;" d="M672 232 l0 -279 q-1 -21 -15 -30 q-14 -10 -31 -8 q-33 2 -37 38 l0 279 l-188 0 q-16 -118 -77 -198 q-70 -92 -195 -125 q-27 -6 -41 6 q-14 12 -16 31 q-2 29 26 39 q101 22 160 96 q50 62 64 151 l-209 -1 q-19 1 -29 12 q-9 11 -9 25 q0 33 38 38 l214 -1 q1 47 1 208 l-177 -1 q-21 1 -30 13 q-10 12 -8 27 q2 30 38 34 l177 -1 q-3 130 -3 140 q0 21 14 31 q15 9 33 7 q33 -3 38 -38 q1 -38 1 -140 l178 0 l0 142 q1 21 15 30 q14 10 31 8 q33 -3 37 -38 l-1 -142 l181 1 q20 -1 30 -12 q11 -12 10 -26 q-1 -32 -40 -36 l-181 1 l1 -208 l218 1 q20 -1 30 -13 q10 -13 9 -28 q-2 -30 -39 -34 l-218 1 ZM589 305 l0 208 l-179 0 q-2 -164 -4 -208 l183 0 Z" /><glyph glyph-name="" unicode="&#x4e98;" d="M341 118 q-110 4 -115 98 q-6 128 0 259 q2 42 30 68 q30 29 83 30 q140 4 325 -1 q56 -1 86 -30 q27 -26 29 -67 q7 -116 1 -254 q-7 -96 -120 -104 q-174 -5 -319 1 ZM155 741 l690 0 q20 -1 29 -12 q10 -11 10 -26 q1 -33 -39 -38 l-690 0 q-41 5 -40 39 q1 33 40 37 ZM892 -64 l-785 0 q-20 1 -30 12 q-10 12 -10 27 q0 34 40 39 l785 0 q21 -1 31 -13 q10 -13 9 -29 q-2 -32 -40 -36 ZM704 382 q0 32 -2 70 q-2 45 -56 49 q-160 6 -291 1 q-52 -1 -54 -51 q-1 -20 -1 -68 l404 -1 ZM704 317 l-404 0 q0 -53 1 -73 q3 -52 56 -54 q149 -7 289 -1 q54 2 56 56 q2 40 2 72 Z" /><glyph glyph-name="" unicode="&#x4e9a;" d="M301 228 q8 -33 -19 -51 q-15 -10 -32 -4 q-19 6 -23 29 q-32 164 -89 291 q-11 32 16 47 q13 7 27 4 q17 -3 24 -18 q61 -133 96 -298 ZM872 489 q-37 -171 -96 -293 q-9 -18 -27 -24 q-15 -5 -29 2 q-33 19 -13 54 q57 110 95 290 q5 16 19 19 q14 4 28 -1 q29 -9 23 -47 ZM651 5 l261 0 q16 0 26 -12 q10 -12 10 -27 q0 -38 -36 -38 l-815 0 q-37 5 -39 38 q0 14 10 26 q11 13 29 13 l258 0 l0 660 l-201 0 q-19 0 -29 13 q-9 11 -9 28 q0 14 9 24 q11 12 29 12 l699 0 q37 -5 38 -36 q0 -18 -8 -28 q-10 -13 -30 -13 l-202 0 l0 -660 ZM569 5 l0 660 l-132 0 l0 -660 l132 0 Z" /><glyph glyph-name="" unicode="&#x4e9b;" d="M760 141 l-524 0 q-21 1 -31 13 q-10 13 -8 28 q2 29 39 33 l524 0 q40 -5 39 -38 q0 -32 -39 -36 ZM882 -52 l-765 0 q-39 4 -39 36 q-1 34 39 39 l765 0 q20 -1 30 -13 q10 -13 8 -29 q-2 -29 -38 -33 ZM636 588 q93 41 164 85 q18 11 35 3 q17 -8 24 -26 q10 -26 -22 -47 q-88 -49 -201 -88 l0 -99 q0 -23 11 -35 q10 -11 32 -13 q52 -6 102 1 q34 6 46 27 q8 15 10 55 q0 20 13 28 q13 8 30 6 q33 -5 37 -38 q1 -67 -26 -103 q-29 -39 -98 -47 q-65 -7 -130 -1 q-104 11 -104 110 q0 208 2 320 q1 20 13 29 q12 9 28 8 q32 -1 36 -37 q0 -26 -2 -138 ZM383 396 q66 18 92 27 q37 8 46 -22 q9 -26 -27 -42 q-160 -55 -370 -97 q-26 -4 -39 9 q-13 14 -11 32 q1 26 32 33 q26 4 40 7 l0 301 q1 19 13 27 q12 9 28 8 q31 -2 35 -35 l0 -286 q63 13 85 19 l0 351 q1 19 14 28 q12 9 28 7 q30 -2 34 -35 l0 -119 l101 0 q20 -1 28 -13 q9 -11 7 -26 q-3 -27 -35 -30 l-101 0 l0 -144 Z" /><glyph glyph-name="" unicode="&#x4ea1;" d="M546 593 l336 0 q20 -1 29 -12 q10 -11 10 -26 q1 -33 -39 -38 l-590 0 q-3 -174 -1 -388 q1 -46 27 -67 q23 -19 75 -22 q199 -13 435 17 q27 2 40 -10 q12 -13 11 -31 q-2 -34 -45 -44 q-236 -28 -476 -8 q-70 5 -108 41 q-41 38 -42 106 q-2 69 1 406 l-96 0 q-19 1 -29 12 q-9 12 -8 27 q0 33 37 37 l346 0 l-1 139 q1 22 17 31 q16 10 35 7 q33 -4 37 -38 l-1 -139 Z" /><glyph glyph-name="" unicode="&#x4ea4;" d="M157 395 q110 48 181 148 q12 15 28 15 q16 1 29 -10 q29 -22 8 -57 q-35 -48 -96 -98 q-57 -47 -110 -73 q-27 -12 -45 -1 q-19 12 -23 32 q-5 28 28 44 ZM768 347 q-68 82 -166 142 q-31 22 -16 47 q18 30 59 15 q103 -55 188 -148 q16 -21 13 -40 q-4 -19 -19 -30 q-28 -19 -59 14 ZM556 142 q128 -110 328 -139 q24 -4 31 -19 q8 -15 3 -32 q-12 -37 -57 -33 q-207 35 -359 168 q-154 -141 -363 -176 q-29 -4 -45 12 q-16 16 -13 36 q2 25 37 32 q196 28 330 149 q-82 90 -118 191 q-7 23 4 37 q12 14 31 17 q28 4 41 -23 q30 -91 95 -167 q61 74 90 165 q8 21 23 27 q16 7 31 1 q34 -11 27 -47 q-37 -110 -116 -199 ZM543 664 l313 2 q20 0 29 -14 q9 -13 7 -30 q-3 -29 -36 -32 l-711 0 q-22 0 -32 14 q-10 13 -7 30 q3 29 39 32 l314 -2 l-1 87 q1 22 17 31 q15 10 34 7 q32 -4 35 -38 l-1 -87 Z" /><glyph glyph-name="" unicode="&#x4ea5;" d="M644 155 q104 -104 225 -147 q22 -9 28 -26 q6 -17 -2 -34 q-16 -35 -66 -21 q-126 55 -238 182 q-176 -145 -405 -195 q-28 -5 -44 10 q-16 15 -15 35 q1 26 36 35 q172 33 317 132 q140 95 238 240 q11 16 27 17 q15 2 29 -7 q33 -20 15 -54 q-64 -92 -145 -167 ZM544 645 l326 2 q21 -1 31 -14 q9 -13 8 -29 q-3 -31 -39 -35 l-416 2 q9 -17 -4 -33 q-60 -79 -111 -124 q-6 -5 -5 -8 q1 -3 10 -2 q140 14 198 22 q22 26 49 67 q11 16 27 17 q15 2 28 -7 q30 -18 16 -49 q-169 -254 -504 -358 q-27 -7 -43 6 q-16 13 -17 33 q-2 27 32 38 q205 51 345 182 q-133 -19 -228 -26 q-35 1 -44 28 q-8 27 20 48 q22 15 43 34 q57 57 109 131 l-245 -1 q-21 1 -31 13 q-10 13 -9 29 q2 32 40 36 l328 -2 l0 100 q1 21 16 31 q15 9 33 7 q33 -3 37 -38 l0 -100 Z" /><glyph glyph-name="" unicode="&#x4ea6;" d="M141 141 q-20 -19 -40 -18 q-20 2 -33 16 q-23 26 7 58 q102 88 150 216 q8 18 24 23 q15 4 30 -2 q35 -15 24 -54 q-63 -139 -162 -239 ZM922 220 q11 -27 2 -46 q-10 -20 -30 -27 q-33 -13 -56 27 q-47 101 -143 196 q-27 32 -1 54 q25 22 61 -3 q46 -39 92 -93 q52 -61 75 -108 ZM631 548 l2 -376 l3 -131 q2 -58 -40 -92 q-55 -44 -169 -23 q-21 4 -30 19 q-8 14 -5 30 q6 35 45 32 q57 -11 83 -4 q35 10 35 56 l-3 489 l-50 1 l-49 -1 q5 -227 -31 -355 q-63 -222 -252 -284 q-26 -9 -42 1 q-16 10 -20 28 q-6 31 23 45 q109 37 161 117 q52 80 68 179 q19 145 13 269 l-254 -3 q-21 1 -30 14 q-9 13 -6 29 q4 28 37 31 l338 0 l-1 127 q1 21 16 31 q15 9 34 7 q34 -3 38 -38 l-1 -127 l334 0 q20 -1 29 -14 q9 -13 7 -29 q-4 -28 -37 -31 l-246 3 Z" /><glyph glyph-name="" unicode="&#x4ea8;" d="M660 513 q-211 2 -314 0 q-30 -1 -34 -21 q-4 -12 0 -29 q3 -21 36 -22 q157 -3 312 0 q32 0 34 21 q2 16 0 30 q-2 21 -34 21 ZM333 385 q-92 4 -100 52 q-5 38 0 74 q2 23 17 36 q23 20 79 21 q214 4 357 0 q83 -3 88 -55 q4 -35 0 -70 q-3 -25 -17 -37 q-22 -19 -77 -21 q-177 -5 -347 0 ZM582 146 q40 -81 -2 -158 q-35 -63 -129 -79 q-81 -14 -175 11 q-21 6 -29 21 q-8 14 -4 29 q8 34 53 25 q51 -15 108 -14 q78 1 101 37 q29 45 12 88 q-20 48 -91 71 q-29 14 -16 36 q15 24 54 17 q45 -12 75 -36 q69 31 113 59 q18 15 -10 15 q-216 0 -429 -5 q-40 3 -41 32 q-1 30 40 35 q247 0 494 0 q62 -4 68 -37 q7 -34 -26 -58 q-52 -38 -166 -89 ZM544 687 l323 0 q18 -1 26 -12 q8 -12 6 -26 q-2 -26 -32 -29 l-732 0 q-35 4 -35 33 q0 30 35 34 l323 0 l0 65 q1 22 15 32 q15 11 33 9 q35 -3 39 -41 l-1 -65 Z" /><glyph glyph-name="" unicode="&#x4eab;" d="M660 513 q-211 2 -314 0 q-30 -1 -34 -21 q-4 -12 0 -29 q3 -21 36 -22 q157 -3 312 0 q32 0 34 21 q2 16 0 30 q-2 21 -34 21 ZM333 385 q-92 4 -100 52 q-5 38 0 74 q2 23 17 36 q23 20 79 21 q214 4 357 0 q83 -3 88 -55 q4 -35 0 -70 q-3 -25 -17 -37 q-22 -19 -77 -21 q-177 -5 -347 0 ZM614 99 q9 -56 -17 -108 q-32 -63 -112 -79 q-67 -13 -154 8 q-22 6 -30 19 q-8 14 -5 28 q7 32 48 27 q144 -35 177 23 q25 40 14 82 l-427 -2 q-19 0 -28 11 q-10 11 -8 26 q2 27 35 31 l376 -4 q-19 12 -47 18 q-28 10 -20 31 q10 28 53 23 q36 -9 63 -24 q55 23 96 49 q19 14 -9 14 q-186 0 -350 -2 q-18 0 -28 9 q-9 9 -9 21 q-1 27 37 31 q218 2 401 0 q61 -4 69 -36 q7 -31 -24 -56 q-68 -43 -134 -69 q4 -6 6 -8 l307 3 q34 -4 35 -33 q2 -31 -35 -35 l-280 2 ZM544 687 l323 0 q18 -1 26 -12 q8 -12 6 -26 q-2 -26 -32 -29 l-732 0 q-35 4 -35 33 q0 30 35 34 l323 0 l0 65 q1 22 15 32 q15 11 33 9 q35 -3 39 -41 l-1 -65 Z" /><glyph glyph-name="" unicode="&#x4eac;" d="M884 44 q19 -19 18 -40 q-2 -20 -16 -34 q-26 -25 -57 4 q-60 66 -180 118 q-31 18 -21 46 q11 32 50 23 q120 -44 206 -117 ZM351 103 q-98 -96 -217 -143 q-26 -8 -43 4 q-17 13 -20 32 q-5 29 30 42 q115 33 194 122 q30 26 55 -2 q23 -24 1 -55 ZM307 395 q-3 -35 0 -68 q4 -40 50 -41 q141 -3 291 0 q46 2 50 41 q2 24 0 69 q-2 39 -52 40 q-112 4 -289 0 q-23 0 -37 -13 q-11 -11 -13 -28 ZM548 217 l0 -100 l1 -85 q2 -63 -50 -98 q-52 -34 -167 -16 q-24 5 -32 20 q-9 15 -5 31 q8 35 48 30 q65 -15 94 -4 q30 11 30 52 l0 170 q-109 0 -131 1 q-52 1 -81 28 q-27 24 -29 65 q-2 53 0 103 q3 38 26 61 q29 29 83 30 q152 3 341 0 q46 -1 76 -27 q27 -23 29 -56 q2 -34 0 -110 q-2 -41 -27 -65 q-28 -28 -79 -29 q-22 -1 -127 -1 ZM545 658 l324 2 q21 -1 30 -15 q10 -13 7 -30 q-3 -29 -37 -33 l-369 2 l-370 -2 q-20 1 -30 12 q-10 12 -9 27 q0 34 39 39 l328 -2 l0 88 q1 21 16 31 q15 9 33 7 q33 -3 37 -38 l1 -88 Z" /><glyph glyph-name="" unicode="&#x4ead;" d="M657 530 q-155 3 -309 0 q-29 0 -32 -20 q-2 -15 0 -28 q1 -11 7 -16 q8 -6 26 -6 q156 -5 309 0 q30 0 31 20 q2 15 0 29 q-2 21 -32 21 ZM331 409 q-52 1 -73 16 q-16 12 -20 38 q-3 29 1 64 q3 25 20 37 q22 16 72 17 q174 3 347 0 q83 -3 90 -53 q4 -32 0 -65 q-3 -26 -22 -39 q-21 -14 -68 -15 q-177 -5 -347 0 ZM818 198 l0 51 q-1 27 -15 37 q-14 9 -50 10 q-263 4 -510 0 q-37 -1 -53 -13 q-13 -10 -15 -34 q0 -28 0 -55 q0 -18 -15 -26 q-14 -8 -32 -6 q-30 3 -33 33 q-1 39 0 82 q1 73 113 79 q348 4 582 0 q51 -1 80 -22 q30 -22 31 -63 q2 -49 0 -72 q-2 -21 -17 -30 q-15 -9 -33 -6 q-30 3 -33 35 ZM548 171 l0 -97 q0 -28 0 -55 q1 -60 -39 -86 q-52 -34 -174 -15 q-23 4 -33 18 q-9 13 -6 29 q7 35 49 31 q66 -12 91 -7 q35 8 35 51 l0 131 l-227 0 q-32 4 -32 31 q0 27 32 31 l506 0 q18 -1 26 -12 q8 -11 5 -25 q-4 -22 -31 -25 l-202 0 ZM544 695 l319 1 q17 -1 25 -11 q8 -10 8 -23 q-1 -27 -33 -31 l-724 0 q-35 4 -35 32 q0 29 35 33 l319 -1 l0 63 q1 22 15 32 q15 11 33 9 q35 -3 39 -41 l-1 -63 Z" /><glyph glyph-name="" unicode="&#x4eae;" d="M564 30 q1 45 1 91 q0 32 -33 35 q-48 2 -88 0 q-30 -3 -33 -42 q-8 -101 -100 -158 q-78 -48 -188 -51 q-26 -1 -38 13 q-12 14 -10 32 q2 27 34 33 q88 0 149 33 q75 41 74 120 q-3 39 20 63 q24 25 67 25 q88 2 136 0 q89 -6 89 -87 q0 -50 1 -95 q-1 -42 44 -49 q41 -5 81 2 q37 7 50 23 q12 15 13 52 q2 21 17 29 q15 8 33 4 q30 -5 34 -34 q0 -67 -30 -101 q-32 -36 -103 -43 q-57 -9 -113 -3 q-54 5 -80 31 q-26 26 -27 77 ZM802 181 q1 25 0 50 q0 26 -15 36 q-15 10 -49 10 q-247 5 -480 0 q-36 -1 -52 -12 q-14 -10 -16 -34 q0 -27 0 -54 q-1 -19 -16 -27 q-15 -9 -34 -5 q-27 4 -30 33 q-2 51 0 81 q1 36 29 57 q30 22 84 23 q330 4 552 0 q47 -1 77 -22 q33 -23 34 -64 q2 -49 0 -71 q-2 -22 -19 -31 q-16 -9 -34 -5 q-28 5 -31 35 ZM698 501 q-1 9 -8 14 q-8 5 -27 6 q-216 2 -320 0 q-33 -1 -36 -19 q-2 -16 0 -31 q3 -19 37 -21 q213 -2 319 0 q34 1 35 21 q3 10 0 30 ZM685 397 q-181 -5 -358 0 q-60 2 -82 21 q-13 11 -15 36 q-4 28 0 65 q2 24 15 35 q22 19 78 20 q221 4 368 0 q51 -1 71 -21 q12 -11 14 -34 q3 -33 0 -64 q-2 -25 -15 -37 q-20 -19 -76 -21 ZM544 697 l325 0 q17 -1 26 -12 q8 -11 7 -25 q-2 -28 -33 -32 l-736 0 q-20 1 -28 13 q-8 11 -6 26 q4 27 34 30 l325 0 l0 65 q1 23 16 33 q15 10 33 7 q34 -3 38 -40 l-1 -65 Z" /><glyph glyph-name="" unicode="&#x4eb2;" d="M348 135 q13 -25 -10 -46 q-90 -74 -218 -125 q-42 -16 -58 14 q-7 14 -3 30 q5 18 23 25 q122 45 213 119 q14 11 30 5 q15 -6 23 -22 ZM933 37 q28 -30 8 -57 q-12 -16 -29 -19 q-19 -3 -35 13 q-34 32 -89 65 q-48 29 -99 51 q-33 16 -22 43 q15 35 51 25 q117 -43 215 -121 ZM677 454 l222 0 q37 -3 38 -32 q0 -34 -38 -34 l-789 0 q-40 0 -40 35 q1 27 40 31 l247 0 q-7 4 -12 14 q-18 38 -54 78 q-10 11 -5 23 q4 10 18 18 q28 16 55 -1 q39 -31 68 -87 q7 -32 -22 -45 l179 0 q40 63 64 123 q7 15 26 19 q16 3 32 -1 q36 -14 26 -50 q-26 -53 -55 -91 ZM551 684 l291 0 q36 -3 37 -32 q0 -34 -37 -34 l-675 0 q-20 0 -30 10 q-9 9 -9 25 q2 27 39 31 l297 0 l0 63 q0 17 13 28 q12 10 29 10 q19 0 31 -9 q14 -10 14 -29 l0 -63 ZM548 214 l0 -196 q0 -46 -25 -74 q-25 -28 -70 -33 q-45 -5 -95 4 q-16 3 -24 15 q-7 10 -5 25 q2 14 11 24 q10 11 24 9 q41 -6 69 -5 q32 1 32 45 l0 186 l-298 0 q-19 0 -30 11 q-9 9 -9 26 q2 27 39 32 l298 0 l0 49 q0 18 14 28 q12 9 29 9 q17 0 28 -9 q12 -10 12 -28 l0 -49 l294 0 q36 -3 37 -32 q0 -37 -37 -37 l-294 0 Z" /><glyph glyph-name="" unicode="&#x4eba;" d="M533 563 q1 -2 1 -5 q14 -179 132 -335 q109 -144 246 -197 q23 -10 29 -28 q6 -20 -5 -38 q-20 -37 -75 -21 q-94 36 -199 153 q-116 128 -164 271 q-42 -144 -129 -252 q-96 -119 -239 -186 q-28 -11 -47 0 q-20 11 -25 32 q-7 30 30 50 q181 80 273 242 q79 138 87 323 q1 20 -4 123 q0 23 16 34 q16 11 36 9 q37 -2 42 -44 q0 -37 -4 -123 q0 -6 -1 -8 Z" /><glyph glyph-name="" unicode="&#x4ebf;" d="M943 110 q3 -67 -21 -109 q-35 -65 -132 -75 q-172 -15 -345 0 q-79 9 -99 64 q-19 52 20 118 q148 253 382 503 q11 12 8 19 q-3 7 -19 8 q-174 4 -325 -2 q-34 3 -37 36 q0 15 9 25 q11 12 30 13 q162 8 388 -1 q55 -2 67 -41 q12 -38 -27 -77 q-235 -239 -400 -511 q-20 -33 -12 -53 q8 -20 44 -24 q153 -17 305 0 q48 7 65 45 q10 24 10 62 q1 20 16 31 q15 10 32 8 q16 -2 28 -12 q12 -11 13 -27 ZM291 585 l-11 -645 q-6 -37 -39 -39 q-20 0 -31 8 q-14 10 -13 30 l12 517 q-42 -59 -88 -112 q-30 -33 -62 -9 q-30 27 -1 61 q150 182 222 362 q8 21 26 25 q17 4 37 -7 q30 -19 17 -51 q-29 -71 -69 -140 Z" /><glyph glyph-name="" unicode="&#x4ec0;" d="M678 460 l216 1 q22 0 33 -13 q10 -14 8 -30 q-2 -31 -41 -35 l-216 1 l1 -439 q-1 -22 -15 -32 q-15 -10 -33 -9 q-35 2 -39 41 l1 439 l-206 -1 q-21 1 -31 14 q-9 13 -7 30 q3 31 38 34 l206 -1 l-1 269 q1 23 15 34 q15 11 33 9 q35 -3 39 -43 l-1 -269 ZM295 553 l-13 -613 q-1 -20 -15 -30 q-14 -10 -32 -8 q-33 2 -37 37 l14 499 q-53 -65 -96 -103 q-39 -29 -63 -3 q-23 26 3 56 q156 138 245 352 q9 20 25 24 q16 5 32 -2 q36 -16 23 -56 q-34 -71 -86 -153 Z" /><glyph glyph-name="" unicode="&#x4ec1;" d="M418 615 l433 0 q22 -1 32 -15 q10 -14 7 -30 q-3 -30 -39 -34 l-433 0 q-22 1 -32 14 q-10 13 -8 30 q3 31 40 35 ZM372 54 l533 0 q22 -1 31 -15 q10 -15 7 -32 q-3 -29 -38 -32 l-533 0 q-22 1 -32 14 q-10 13 -8 30 q3 31 40 35 ZM284 541 l-11 -601 q-1 -21 -17 -31 q-16 -9 -35 -6 q-30 4 -33 36 l14 489 q-45 -56 -88 -94 q-39 -29 -63 -4 q-23 25 3 57 q157 139 243 353 q9 20 25 24 q17 5 33 -2 q36 -16 23 -56 q-43 -89 -94 -165 Z" /><glyph glyph-name="" unicode="&#x4ec5;" d="M668 183 q94 -100 258 -188 q18 -9 23 -27 q5 -15 -2 -30 q-8 -18 -25 -24 q-19 -7 -42 5 q-152 79 -263 199 q-111 -131 -248 -207 q-22 -14 -41 -7 q-17 6 -25 24 q-6 15 -1 29 q6 16 26 28 q129 74 235 197 q-135 176 -158 391 q0 38 33 43 q15 2 28 -5 q14 -8 16 -25 q29 -201 131 -339 q122 174 153 371 q3 20 -6 29 q-8 8 -29 9 q-174 4 -309 -2 q-37 4 -39 38 q0 32 40 38 q147 6 318 1 q61 -2 88 -30 q29 -30 19 -88 q-37 -233 -180 -430 ZM283 590 l-12 -650 q-4 -37 -37 -39 q-20 0 -31 8 q-14 10 -14 30 l13 511 q-43 -63 -82 -106 q-30 -33 -62 -9 q-30 23 -1 61 q131 154 204 362 q6 21 26 25 q18 4 37 -7 q30 -17 18 -51 q-23 -64 -59 -135 Z" /><glyph glyph-name="" unicode="&#x4ec7;" d="M593 554 l109 0 q51 -1 75 -28 q23 -25 18 -69 q-13 -131 -31 -407 q-3 -41 29 -44 q20 -3 46 1 q35 5 35 95 q1 20 15 29 q13 8 29 6 q32 -4 36 -37 q0 -154 -97 -166 q-41 -6 -84 -2 q-49 2 -71 27 q-23 26 -19 79 q19 310 28 407 q4 39 -35 37 q-43 0 -85 -1 q-10 -186 -53 -307 q-58 -163 -183 -249 q-19 -13 -37 -10 q-17 4 -27 18 q-20 27 8 53 q118 85 167 223 q36 101 45 272 q-60 -1 -132 -1 q-17 0 -25 12 q-8 12 -7 27 q1 29 33 33 q13 0 133 2 q2 89 0 181 q0 20 13 29 q15 10 34 7 q32 -3 36 -36 q-1 -91 -3 -181 ZM274 523 l-12 -583 q-1 -21 -17 -31 q-16 -9 -34 -6 q-30 4 -32 36 l14 476 q-39 -47 -76 -79 q-19 -16 -37 -16 q-17 0 -28 13 q-23 25 5 56 q156 137 242 350 q10 21 28 25 q18 3 34 -6 q31 -16 18 -53 q-41 -89 -105 -182 Z" /><glyph glyph-name="" unicode="&#x4eca;" d="M642 425 l-278 0 q-20 1 -29 13 q-9 12 -8 27 q2 30 37 34 l278 0 q19 -1 29 -12 q9 -12 9 -26 q-1 -32 -38 -36 ZM650 245 q-205 -1 -410 -2 q-20 0 -30 12 q-9 12 -8 27 q3 31 37 36 q94 2 436 2 q64 -1 85 -34 q20 -31 1 -84 q-26 -73 -97 -153 q-74 -84 -155 -124 q-24 -11 -44 -3 q-20 8 -27 25 q-13 28 26 49 q63 30 127 96 q65 68 82 123 q5 17 -2 24 q-6 6 -21 6 ZM897 451 q24 -16 26 -35 q3 -19 -9 -34 q-27 -31 -70 -8 q-127 85 -312 287 q-32 38 -64 0 q-64 -79 -148 -164 q-91 -92 -158 -142 q-30 -21 -53 -15 q-23 6 -31 26 q-12 29 22 55 q77 51 165 138 q79 78 143 159 q35 42 82 44 q50 2 93 -44 q157 -167 314 -267 Z" /><glyph glyph-name="" unicode="&#x4ecb;" d="M99 -21 q237 56 233 335 q0 103 -1 132 q1 22 17 31 q16 10 35 6 q30 -5 34 -37 q0 -106 -1 -134 q-2 -336 -284 -411 q-32 -7 -48 7 q-15 15 -14 36 q1 27 29 35 ZM676 453 l0 -509 q-1 -21 -15 -31 q-15 -9 -32 -8 q-35 3 -39 39 l0 509 q1 21 16 31 q15 9 33 7 q33 -3 37 -38 ZM413 721 q33 42 80 43 q48 1 89 -43 q154 -165 327 -253 q21 -12 23 -31 q2 -18 -10 -34 q-23 -32 -67 -12 q-165 102 -322 275 q-31 40 -63 0 q-140 -175 -323 -299 q-27 -17 -48 -11 q-21 7 -29 25 q-14 32 24 56 q81 42 175 128 q81 74 144 156 Z" /><glyph glyph-name="" unicode="&#x4ecd;" d="M575 658 q-13 -255 -48 -390 q-51 -197 -176 -318 q-17 -15 -34 -14 q-17 0 -29 11 q-25 23 -1 54 q123 119 169 300 q32 124 39 357 q-48 -1 -96 -1 q-18 0 -26 12 q-8 12 -6 27 q2 28 32 31 q163 4 309 2 q40 -1 61 -23 q23 -24 15 -66 q-14 -69 -29 -138 q-3 -17 17 -18 q22 1 42 0 q45 0 72 -28 q26 -27 26 -72 q0 -177 -36 -294 q-60 -213 -294 -152 q-22 6 -29 24 q-7 17 -1 35 q10 35 52 25 q70 -23 114 -8 q52 18 77 92 q33 91 35 266 q1 42 -38 44 q-28 -1 -57 0 q-39 0 -55 20 q-16 20 -8 55 q12 43 31 140 q5 27 -22 27 l-106 0 ZM264 539 l-12 -600 q-1 -19 -14 -29 q-14 -9 -30 -8 q-33 1 -37 37 l11 477 q-36 -50 -72 -84 q-37 -31 -62 -8 q-27 23 0 57 q152 149 225 370 q7 20 23 25 q15 6 32 0 q36 -14 27 -52 q-31 -82 -91 -185 Z" /><glyph glyph-name="" unicode="&#x4ece;" d="M688 574 q1 -5 1 -10 q7 -155 73 -305 q71 -162 180 -242 q20 -15 21 -36 q1 -19 -14 -33 q-26 -28 -68 -1 q-71 55 -132 168 q-57 106 -87 228 q-53 -264 -246 -416 q-19 -14 -36 -11 q-18 3 -28 17 q-20 26 7 54 q131 99 189 236 q49 116 56 286 q3 70 -1 223 q0 22 14 33 q14 10 32 9 q34 -2 39 -40 q1 -82 0 -160 ZM329 407 q13 2 25 -6 q42 -28 75 -59 q43 -40 68 -80 q13 -23 5 -42 q-7 -20 -25 -28 q-29 -14 -50 18 q-37 70 -109 130 q-51 -263 -200 -397 q-39 -27 -66 -4 q-14 11 -15 28 q-1 18 16 32 q174 150 204 494 q9 112 5 243 q0 20 14 30 q14 9 31 7 q34 -4 39 -40 q2 -134 -8 -248 q-3 -39 -9 -78 Z" /><glyph glyph-name="" unicode="&#x4ed3;" d="M895 116 q2 -62 -18 -103 q-16 -36 -48 -57 q-34 -22 -81 -23 q-220 -10 -421 -1 q-110 5 -113 116 q-5 165 1 313 q1 43 26 69 q25 27 66 28 q197 6 363 1 q104 -5 103 -98 q-2 -58 -10 -105 q-10 -61 -41 -88 q-29 -25 -88 -27 q-72 -4 -157 18 q-17 4 -24 19 q-6 12 -3 28 q5 32 45 26 q65 -17 124 -17 q54 -2 65 48 q7 41 7 92 q-1 30 -37 32 q-166 5 -311 -1 q-43 -1 -45 -51 q-4 -162 0 -272 q2 -51 51 -54 q209 -13 386 1 q51 3 64 43 q9 22 9 63 q0 19 15 29 q13 9 32 8 q16 0 28 -10 q11 -10 12 -27 ZM943 415 q-23 -34 -62 -14 q-204 112 -341 291 q-34 39 -66 -2 q-67 -86 -162 -168 q-78 -67 -186 -141 q-19 -13 -39 -9 q-17 4 -26 18 q-19 32 24 62 q204 121 331 290 q28 39 88 39 q55 0 89 -40 q77 -91 149 -150 q82 -67 179 -113 q43 -20 22 -63 Z" /><glyph glyph-name="" unicode="&#x4ed4;" d="M752 304 q13 -96 -13 -212 q-23 -98 -100 -146 q-83 -52 -196 -20 q-22 7 -29 24 q-6 17 0 34 q11 33 48 25 q70 -23 121 0 q57 26 75 103 q26 106 13 192 l-316 0 q-20 1 -30 12 q-9 12 -8 27 q3 29 38 33 l297 0 q-32 76 -101 112 q-16 8 -17 21 q-1 13 8 24 q20 25 57 10 q14 -7 29 -17 q59 43 109 93 q9 9 6 15 q-2 5 -13 5 q-77 4 -291 -3 q-38 3 -38 35 q-1 32 38 38 q150 4 322 0 q60 -1 78 -39 q18 -37 -18 -76 q-19 -22 -68 -62 q-42 -34 -72 -55 q37 -45 55 -101 l162 0 q19 -1 29 -12 q9 -12 8 -27 q-1 -29 -37 -33 l-146 0 ZM283 552 l-11 -611 q-1 -20 -16 -30 q-14 -10 -32 -8 q-34 2 -37 37 l14 491 q-46 -61 -84 -97 q-35 -29 -59 -8 q-28 26 -3 58 q77 76 133 162 q61 94 96 198 q9 21 26 26 q17 5 34 -3 q33 -15 22 -53 q-31 -75 -83 -162 Z" /><glyph glyph-name="" unicode="&#x4ed5;" d="M668 448 l234 1 q20 -1 29 -13 q10 -12 9 -27 q-2 -31 -38 -35 l-234 1 l-1 -357 l206 1 q19 -1 28 -12 q10 -12 9 -26 q-1 -32 -37 -36 l-477 0 q-20 1 -29 12 q-10 12 -9 26 q1 32 38 36 l188 -1 l0 357 l-203 -1 q-21 1 -30 14 q-10 13 -7 29 q3 29 37 32 l203 -1 l0 260 q1 21 15 31 q14 9 31 8 q34 -3 38 -39 l0 -260 ZM297 546 l-11 -597 q-1 -22 -17 -31 q-16 -10 -35 -6 q-30 4 -33 37 l14 484 q-58 -70 -96 -102 q-18 -16 -35 -15 q-17 1 -27 12 q-24 25 2 55 q164 146 241 344 q8 19 24 24 q16 4 33 -3 q36 -15 23 -55 q-30 -64 -83 -147 Z" /><glyph glyph-name="" unicode="&#x4ed6;" d="M683 453 l0 -323 q-1 -18 -14 -26 q-15 -9 -33 -5 q-26 4 -29 31 l0 281 q-56 -32 -113 -63 q0 -138 0 -275 q1 -56 59 -64 q118 -11 229 3 q45 7 62 31 q16 22 17 75 q1 21 16 31 q15 9 33 6 q30 -4 34 -37 q2 -158 -148 -179 q-123 -11 -256 -2 q-124 16 -124 122 q-1 57 -1 246 q-30 -17 -61 -34 q-33 -13 -47 15 q-14 29 15 50 q47 25 94 51 q1 128 1 256 q1 20 15 29 q13 9 29 7 q31 -2 35 -35 q-1 -107 -2 -214 q57 31 113 62 l0 239 q1 19 14 27 q12 9 28 8 q30 -3 34 -35 l0 -198 q39 21 71 39 q52 30 92 11 q40 -19 42 -73 q4 -100 -8 -211 q-11 -82 -48 -113 q-34 -28 -94 -17 q-19 4 -27 17 q-7 14 -4 29 q7 34 41 29 q28 -8 39 4 q12 13 19 65 q11 98 6 169 q-2 19 -12 25 q-8 5 -21 -1 q-80 -44 -96 -53 ZM277 549 l-12 -609 q-1 -20 -16 -30 q-14 -9 -31 -7 q-31 2 -34 36 l13 493 q-44 -59 -88 -101 q-40 -31 -64 -5 q-11 12 -11 26 q0 15 15 29 q152 144 237 361 q8 19 24 23 q16 4 31 -3 q35 -16 23 -54 q-31 -67 -87 -159 Z" /><glyph glyph-name="" unicode="&#x4ed8;" d="M400 307 q-30 20 -15 47 q17 28 58 16 q84 -36 146 -101 q16 -20 12 -39 q-4 -19 -19 -30 q-27 -21 -52 6 q-50 61 -130 101 ZM773 481 l0 -289 l2 -135 q2 -88 -67 -123 q-71 -36 -204 -7 q-23 6 -32 21 q-9 15 -5 31 q8 34 50 28 q174 -43 174 61 l0 413 l-306 -1 q-19 0 -29 12 q-9 11 -8 26 q1 31 37 35 l306 0 l0 178 q1 22 15 32 q14 9 32 7 q31 -3 35 -39 l0 -178 l131 0 q40 -5 40 -37 q0 -32 -40 -36 l-131 1 ZM291 547 l-12 -604 q-1 -21 -17 -31 q-16 -9 -35 -6 q-30 4 -33 36 l14 492 q-47 -59 -93 -100 q-19 -16 -36 -16 q-17 1 -27 12 q-24 25 2 57 q78 69 140 157 q66 94 105 195 q9 20 26 24 q17 5 33 -3 q34 -16 22 -56 q-30 -65 -89 -157 Z" /><glyph glyph-name="" unicode="&#x4ed9;" d="M687 9 q35 0 65 3 q70 4 71 70 q6 223 -2 453 q0 22 15 31 q15 10 34 6 q30 -4 35 -37 q6 -269 1 -469 q-1 -60 -40 -94 q-35 -31 -95 -34 q-123 -7 -252 0 q-122 6 -123 126 q-4 247 1 471 q1 21 13 30 q13 10 28 9 q35 -2 39 -39 q-7 -256 -1 -452 q1 -36 15 -52 q15 -17 53 -19 q29 -3 62 -3 l-1 718 q1 21 15 30 q15 9 32 7 q32 -4 36 -37 l-1 -718 ZM285 541 l-11 -601 q-1 -21 -17 -31 q-16 -9 -35 -6 q-30 4 -33 36 l14 489 q-47 -58 -88 -93 q-39 -29 -63 -3 q-23 26 3 56 q156 139 245 352 q9 20 25 24 q16 5 32 -2 q36 -16 23 -56 q-40 -83 -95 -165 Z" /><glyph glyph-name="" unicode="&#x4ee3;" d="M696 717 q65 -19 125 -65 q16 -16 16 -33 q-1 -17 -13 -29 q-23 -22 -55 3 q-20 19 -54 38 q-27 15 -45 21 q-31 16 -21 42 q10 28 47 23 ZM612 429 q30 -242 140 -376 q39 -47 69 -27 q30 20 47 99 q5 20 20 27 q15 7 32 2 q36 -10 31 -52 q-20 -82 -52 -122 q-32 -40 -69 -47 q-79 -9 -135 59 q-122 149 -163 427 l-155 -19 q-24 -2 -35 12 q-10 14 -7 32 q3 26 32 32 l156 19 q-10 102 -12 239 q1 19 16 28 q15 9 34 6 q34 -3 38 -40 q-2 -134 5 -223 l261 32 q22 2 33 -13 q11 -14 8 -32 q-3 -24 -32 -30 l-262 -33 ZM295 554 l-13 -614 q-1 -20 -15 -30 q-14 -10 -32 -8 q-33 2 -37 37 l14 500 q-51 -65 -97 -105 q-19 -16 -36 -16 q-17 1 -27 12 q-24 25 2 57 q78 69 140 157 q66 94 105 195 q9 20 26 24 q17 5 33 -3 q34 -16 22 -56 q-37 -77 -85 -150 Z" /><glyph glyph-name="" unicode="&#x4ee4;" d="M647 443 l-297 0 q-20 1 -30 12 q-10 11 -9 26 q2 31 39 35 l298 0 q19 -1 28 -11 q10 -10 10 -24 q2 -33 -39 -38 ZM409 722 q33 44 84 45 q52 1 95 -44 q85 -92 152 -148 q83 -70 172 -114 q22 -12 24 -31 q2 -18 -10 -34 q-23 -33 -68 -13 q-71 39 -165 125 q-79 72 -155 158 q-19 21 -35 22 q-18 1 -36 -22 q-141 -177 -325 -302 q-31 -18 -53 -9 q-22 9 -28 31 q-7 29 27 50 q82 42 176 129 q81 75 145 157 ZM561 24 q27 -23 40 -38 q15 -21 12 -40 q-4 -19 -18 -30 q-29 -21 -59 11 q-32 38 -94 89 q-57 46 -102 74 q-27 22 -10 46 q16 24 50 14 q40 -21 120 -77 q108 76 170 165 q11 17 5 24 q-5 5 -24 6 q-197 -2 -395 -3 q-18 1 -27 12 q-9 11 -8 25 q2 31 35 35 q162 2 435 0 q55 -1 74 -32 q20 -32 -7 -77 q-71 -113 -197 -204 Z" /><glyph glyph-name="" unicode="&#x4ee5;" d="M503 210 q-88 -53 -236 -115 q-38 -16 -64 2 q-27 18 -26 59 l-3 540 q1 21 17 30 q15 9 35 6 q31 -4 34 -34 l3 -491 q0 -9 5 -13 q6 -4 14 -1 q115 46 188 86 q36 15 50 -16 q14 -28 -17 -53 ZM396 538 q-32 22 -14 49 q17 26 57 12 q37 -16 76 -43 q42 -29 65 -57 q15 -21 9 -39 q-5 -19 -21 -29 q-27 -16 -51 11 q-19 25 -55 53 q-32 25 -66 43 ZM723 210 q130 -86 195 -183 q13 -22 5 -42 q-8 -20 -27 -28 q-28 -14 -52 17 q-64 97 -158 173 q-119 -176 -348 -219 q-25 -3 -38 14 q-13 16 -10 36 q3 24 33 30 q216 35 318 220 q96 174 84 469 q0 22 18 30 q18 7 39 2 q28 -7 31 -34 q3 -301 -90 -485 Z" /><glyph glyph-name="" unicode="&#x4eea;" d="M675 626 q9 -34 -22 -49 q-16 -8 -32 -3 q-16 6 -23 28 q-21 71 -61 132 q-18 32 8 47 q27 14 50 -10 q56 -67 80 -145 ZM681 182 q111 -135 242 -193 q18 -9 24 -25 q5 -14 -1 -29 q-7 -16 -23 -23 q-18 -8 -37 1 q-135 56 -254 201 q-114 -145 -269 -203 q-46 -14 -60 18 q-7 16 -2 31 q6 18 25 25 q146 51 256 196 q-157 232 -191 462 q0 37 34 44 q15 3 29 -4 q15 -8 17 -24 q28 -212 158 -408 q111 183 136 410 q1 18 18 25 q15 6 34 1 q33 -10 29 -43 q-17 -122 -57 -236 q-43 -124 -108 -226 ZM284 585 l-11 -645 q-6 -37 -37 -39 q-20 0 -31 8 q-15 10 -14 30 l12 512 q-39 -58 -83 -107 q-30 -33 -62 -9 q-30 23 -1 61 q132 157 213 362 q8 21 26 25 q17 4 37 -7 q30 -19 17 -51 q-24 -60 -66 -140 Z" /><glyph glyph-name="" unicode="&#x4eec;" d="M463 559 l0 -621 q0 -16 -13 -26 q-12 -9 -29 -9 q-16 0 -27 8 q-13 10 -13 27 l0 621 q0 16 13 25 q12 8 28 8 q17 0 28 -8 q13 -9 13 -25 ZM910 37 q-1 -60 -28 -89 q-27 -30 -85 -35 q-42 -4 -94 4 q-20 4 -29 18 q-9 13 -6 30 q6 34 43 31 q44 -10 73 -5 q22 1 32 14 q10 12 11 39 q6 271 -2 565 q-1 40 -46 42 q-39 2 -161 2 q-16 -1 -26 12 q-8 10 -9 25 q0 14 8 25 q9 12 27 13 q79 2 184 -1 q47 -2 74 -25 q30 -25 31 -72 q6 -296 3 -593 ZM529 632 q-12 -12 -27 -13 q-17 -1 -28 14 q-41 50 -84 77 q-26 24 -7 47 q18 21 50 9 q69 -34 104 -81 q19 -26 -8 -53 ZM284 593 l-11 -653 q-1 -17 -13 -28 q-11 -10 -27 -10 q-43 0 -42 37 l12 514 q-38 -56 -84 -109 q-30 -35 -61 -9 q-14 11 -14 29 q0 16 13 32 q141 170 204 362 q8 21 27 25 q18 4 36 -6 q26 -17 16 -52 q-23 -66 -56 -132 Z" /><glyph glyph-name="" unicode="&#x4ef2;" d="M674 214 l0 -273 q-1 -19 -17 -28 q-16 -8 -34 -4 q-28 4 -31 32 l0 273 q-82 2 -122 4 q-51 3 -79 29 q-27 25 -30 65 q-4 69 0 178 q2 37 25 62 q29 31 81 33 q39 1 125 1 l0 145 q1 21 16 29 q15 9 32 6 q31 -4 34 -35 l0 -145 q49 0 137 -2 q43 -1 72 -29 q27 -25 29 -58 q9 -98 0 -184 q-3 -39 -29 -64 q-29 -29 -77 -31 q-86 -4 -132 -4 ZM674 284 q36 0 106 2 q50 2 54 50 q4 77 0 129 q-3 46 -55 49 q-68 2 -105 2 l0 -232 ZM592 284 l0 232 q-48 -1 -97 -2 q-52 -3 -54 -49 q-5 -65 0 -129 q3 -46 55 -49 q45 -2 96 -3 ZM285 543 l-12 -603 q-1 -21 -17 -31 q-16 -9 -34 -6 q-30 4 -33 36 l14 491 q-44 -54 -87 -94 q-20 -16 -37 -15 q-17 2 -27 14 q-21 26 3 54 q75 67 138 157 q67 95 105 194 q9 20 25 24 q16 5 32 -2 q36 -16 23 -56 q-33 -71 -93 -163 Z" /><glyph glyph-name="" unicode="&#x4ef6;" d="M688 239 l0 -292 q-1 -20 -14 -30 q-13 -9 -29 -8 q-34 2 -38 38 l0 292 l-231 0 q-19 1 -28 12 q-10 11 -9 26 q1 31 37 35 l231 -1 l0 196 l-120 0 q-36 -82 -83 -142 q-15 -17 -32 -19 q-16 -3 -30 6 q-29 19 -8 51 q100 121 126 281 q4 20 17 28 q14 7 29 4 q36 -7 34 -44 q-13 -58 -26 -93 l93 0 l0 152 q1 20 14 30 q13 9 29 8 q34 -2 38 -38 l0 -152 l171 1 q38 -4 39 -35 q2 -33 -39 -38 l-171 0 l0 -196 l223 1 q19 -1 28 -12 q10 -11 9 -26 q0 -31 -37 -35 l-223 0 ZM294 551 l-11 -611 q-1 -21 -16 -30 q-15 -10 -33 -8 q-33 3 -36 37 l13 495 q-53 -66 -94 -103 q-40 -30 -64 -4 q-23 25 3 55 q78 73 139 161 q65 95 103 198 q8 20 25 25 q17 4 33 -3 q35 -15 23 -54 q-32 -73 -85 -158 Z" /><glyph glyph-name="" unicode="&#x4ef7;" d="M777 435 l0 -490 q-1 -19 -15 -28 q-14 -9 -32 -7 q-31 3 -35 35 l0 490 q1 20 15 29 q13 9 30 8 q33 -3 37 -37 ZM551 423 q2 -175 -19 -267 q-34 -147 -139 -234 q-22 -17 -41 -14 q-20 3 -31 18 q-18 26 12 55 q64 52 94 113 q30 60 38 124 q9 107 3 206 q0 21 15 31 q14 10 32 7 q32 -3 36 -39 ZM316 460 q97 76 210 249 q33 51 85 51 q51 0 93 -48 q124 -140 236 -226 q18 -13 18 -34 q0 -18 -14 -33 q-14 -14 -31 -15 q-20 -2 -38 15 q-93 84 -228 243 q-14 16 -30 17 q-17 1 -30 -18 q-103 -159 -212 -259 q-18 -16 -36 -12 q-18 3 -29 18 q-20 25 6 52 ZM279 530 l-11 -590 q-1 -21 -18 -31 q-16 -9 -35 -6 q-30 4 -32 36 l14 481 q-41 -50 -82 -86 q-18 -16 -37 -16 q-16 0 -28 12 q-11 11 -11 27 q0 17 15 30 q78 69 140 157 q66 94 105 195 q9 20 26 24 q17 5 33 -3 q34 -16 22 -56 q-41 -88 -101 -174 Z" /><glyph glyph-name="" unicode="&#x4efb;" d="M661 21 l200 1 q40 -5 39 -38 q-1 -31 -40 -35 l-468 0 q-20 1 -29 12 q-10 11 -9 26 q1 31 38 35 l187 -1 l0 291 l-213 -1 q-39 4 -38 38 q1 31 38 35 l213 -1 l0 215 q-102 -13 -169 -16 q-22 0 -32 13 q-10 13 -9 30 q3 29 34 33 q220 5 396 61 q25 7 40 -5 q14 -13 15 -31 q1 -26 -30 -37 q-66 -19 -163 -36 l0 -227 l233 1 q40 -5 40 -37 q0 -32 -40 -36 l-233 1 l0 -291 ZM276 544 l-11 -600 q-1 -21 -17 -30 q-16 -9 -35 -6 q-30 4 -33 36 l13 481 q-42 -55 -83 -92 q-18 -17 -35 -16 q-16 0 -27 11 q-24 25 0 55 q163 157 235 357 q8 21 25 25 q17 5 34 -3 q33 -15 22 -53 q-33 -74 -88 -165 Z" /><glyph glyph-name="" unicode="&#x4efd;" d="M775 685 q27 -82 65 -143 q44 -70 109 -122 q18 -15 19 -35 q1 -17 -12 -31 q-13 -13 -29 -14 q-19 -1 -37 14 q-61 53 -112 139 q-45 75 -71 155 q-9 29 -47 26 l-128 -4 q-38 4 -37 37 q0 31 36 35 l146 3 q75 -1 98 -60 ZM627 353 q-18 -162 -84 -270 q-67 -111 -176 -168 q-44 -19 -64 9 q-9 13 -5 29 q4 18 22 28 q96 50 155 137 q57 90 73 235 q-24 0 -78 -2 q-16 0 -26 12 q-9 11 -9 24 q0 3 2 9 q-26 -39 -50 -63 q-15 -15 -31 -16 q-16 0 -28 9 q-29 22 -4 55 q45 45 78 108 q30 57 44 115 q5 19 19 25 q14 6 28 1 q33 -9 29 -45 q-23 -89 -78 -176 q12 10 27 10 q208 2 274 0 q49 -1 75 -27 q26 -26 26 -74 q-2 -161 -19 -238 q-40 -176 -206 -164 q-27 1 -62 11 q-16 5 -23 20 q-6 14 -2 29 q4 17 15 25 q13 10 30 4 q28 -7 47 -8 q96 -11 121 96 q22 99 18 214 q-1 43 -43 45 q-32 1 -95 1 ZM276 545 l-10 -601 q-1 -17 -13 -28 q-12 -10 -29 -10 q-16 0 -27 9 q-13 11 -13 29 l13 491 q-46 -55 -89 -89 q-39 -31 -61 -2 q-10 11 -9 27 q1 18 16 30 q171 150 243 359 q6 20 23 25 q15 4 32 -4 q29 -17 17 -54 q-40 -99 -93 -182 Z" /><glyph glyph-name="" unicode="&#x4eff;" d="M684 629 l234 0 q16 0 27 -12 q10 -11 10 -26 q0 -16 -9 -26 q-11 -12 -28 -12 l-297 0 q-2 -66 -7 -118 q60 1 154 -1 q47 -1 73 -29 q25 -28 25 -76 q-2 -135 -30 -250 q-36 -156 -154 -160 q-51 -3 -116 19 q-33 12 -22 53 q5 17 18 25 q14 9 32 2 q41 -17 78 -17 q36 -1 57 24 q16 20 28 64 q25 102 27 230 q1 42 -41 44 q-70 2 -138 0 q-13 -79 -34 -145 q-60 -183 -194 -303 q-17 -17 -37 -15 q-19 2 -31 19 q-22 27 11 59 q128 101 178 271 q41 131 41 304 l-162 0 q-17 0 -27 12 q-10 12 -10 25 q0 16 9 27 q10 12 28 12 l225 0 l0 118 q0 17 14 28 q12 10 28 10 q16 0 28 -10 q12 -10 12 -28 l0 -118 ZM289 583 l-12 -643 q0 -18 -13 -28 q-13 -10 -29 -10 q-17 0 -27 9 q-12 10 -12 28 l13 518 q-43 -61 -89 -113 q-30 -33 -62 -9 q-30 23 -1 61 q148 177 223 362 q8 21 26 25 q17 4 37 -7 q30 -19 17 -51 q-31 -74 -71 -142 Z" /><glyph glyph-name="" unicode="&#x4f01;" d="M410 715 q33 45 83 46 q50 1 91 -46 q162 -182 331 -282 q20 -13 20 -33 q0 -19 -15 -34 q-26 -29 -67 -7 q-67 45 -161 133 q-90 85 -157 165 q-19 23 -35 23 q-15 0 -32 -23 q-59 -79 -150 -172 q-93 -95 -169 -152 q-28 -20 -50 -14 q-23 7 -32 27 q-13 29 21 54 q80 48 176 145 q82 83 146 170 ZM549 26 l311 0 q19 -1 28 -14 q9 -14 7 -30 q-3 -29 -35 -32 l-722 0 q-22 1 -32 14 q-10 14 -7 30 q3 29 39 32 l116 0 l-1 274 q1 21 14 31 q13 10 30 9 q35 -2 39 -40 l-1 -274 l131 0 l0 462 q1 21 14 31 q12 10 29 9 q35 0 40 -40 l0 -198 l215 1 q19 -1 28 -13 q9 -12 8 -28 q-2 -31 -36 -35 l-215 0 l0 -189 Z" /><glyph glyph-name="" unicode="&#x4f0a;" d="M866 445 q0 -59 -2 -111 q-4 -89 -106 -93 q-70 -2 -132 -2 q-20 -104 -71 -179 q-57 -84 -159 -138 q-25 -12 -43 -5 q-18 6 -24 23 q-11 27 22 48 q87 45 136 112 q42 58 60 139 q-80 0 -160 1 q-17 1 -25 11 q-8 11 -7 25 q1 30 33 33 q85 -1 170 -1 q4 32 6 98 q1 20 1 41 l-221 0 q-17 1 -24 12 q-8 11 -7 24 q2 28 31 31 l221 0 q-2 90 -4 130 q-78 -1 -156 -1 q-17 0 -26 11 q-8 12 -7 26 q2 28 33 32 q178 0 356 0 q49 -1 75 -24 q26 -23 28 -68 q1 -53 2 -105 l61 0 q17 -1 25 -13 q7 -13 5 -28 q-3 -26 -30 -29 l-61 0 ZM791 447 l-150 0 l0 -43 q0 -44 -5 -96 q80 0 108 1 q42 2 44 38 q1 8 3 100 ZM790 514 q0 50 -2 94 q-2 32 -42 35 q-53 0 -106 1 q2 -86 2 -130 l148 0 ZM265 540 l-11 -598 q-1 -20 -15 -29 q-15 -9 -32 -7 q-30 2 -33 36 l12 476 q-42 -58 -73 -87 q-17 -17 -36 -17 q-17 0 -28 12 q-24 26 3 55 q147 145 220 364 q8 22 25 27 q17 5 33 -3 q31 -14 21 -53 q-30 -79 -86 -176 Z" /><glyph glyph-name="" unicode="&#x4f0d;" d="M815 29 l93 1 q20 -1 29 -14 q10 -13 7 -29 q-3 -28 -36 -31 l-574 0 q-18 1 -27 13 q-8 12 -7 27 q2 30 34 34 l113 -1 q21 98 62 321 q-54 -1 -108 -1 q-20 1 -29 13 q-9 12 -7 27 q2 29 36 32 q60 0 120 1 q20 110 32 192 l-157 -1 q-19 1 -27 13 q-9 12 -8 27 q2 30 35 34 l460 0 q20 -1 29 -13 q9 -12 8 -27 q-2 -30 -37 -34 l-222 1 q-9 -61 -31 -191 q55 -1 110 -2 q49 -1 77 -25 q29 -25 28 -74 q1 -93 -3 -293 ZM735 29 q4 199 2 278 q0 42 -43 42 q-51 1 -103 2 q-35 -196 -63 -322 l207 0 ZM274 550 l-12 -610 q-1 -21 -17 -31 q-16 -9 -35 -6 q-30 4 -32 36 l13 486 q-43 -58 -80 -93 q-17 -17 -37 -17 q-18 0 -29 12 q-22 24 3 55 q150 146 228 363 q8 21 25 26 q17 5 34 -2 q33 -15 23 -53 q-33 -79 -84 -166 Z" /><glyph glyph-name="" unicode="&#x4f0f;" d="M865 612 q13 -19 8 -36 q-4 -17 -19 -25 q-26 -16 -51 14 q-26 38 -87 78 q-27 22 -10 46 q16 24 50 12 q23 -11 57 -38 q37 -29 52 -51 ZM662 427 q24 -136 92 -246 q69 -112 168 -174 q20 -12 23 -31 q3 -17 -8 -32 q-11 -16 -29 -20 q-21 -4 -42 10 q-81 55 -146 157 q-64 100 -96 223 q-60 -277 -252 -393 q-20 -11 -37 -6 q-17 5 -26 20 q-17 28 15 53 q116 71 176 191 q50 100 65 248 l-184 -3 q-20 0 -29 12 q-10 11 -9 27 q1 32 38 36 l189 -1 q1 17 1 35 q2 113 -2 196 q0 22 14 32 q13 10 31 8 q32 -2 38 -39 q4 -145 -1 -230 l0 -2 l226 1 q18 -1 28 -12 q9 -12 8 -27 q0 -32 -36 -36 l-215 3 ZM286 543 l-11 -603 q-1 -21 -17 -31 q-16 -9 -35 -6 q-30 4 -33 36 l14 493 q-52 -63 -89 -98 q-17 -17 -36 -17 q-17 0 -28 13 q-12 11 -12 26 q0 17 15 31 q75 67 139 157 q67 95 106 195 q9 20 25 24 q16 5 32 -3 q37 -15 24 -56 q-36 -76 -94 -161 Z" /><glyph glyph-name="" unicode="&#x4f11;" d="M673 472 q96 -178 257 -301 q18 -15 18 -33 q0 -19 -13 -32 q-25 -26 -65 2 q-126 106 -222 281 l5 -453 q-1 -19 -17 -28 q-15 -8 -34 -4 q-28 4 -30 32 l1 203 l4 245 q-85 -179 -205 -291 q-18 -16 -36 -14 q-18 2 -29 14 q-21 25 8 54 q145 123 236 325 l-184 -3 q-38 3 -38 35 q0 33 38 38 l205 0 l0 198 q1 21 16 29 q14 9 32 6 q30 -4 33 -35 l0 -198 l233 0 q20 -1 29 -15 q9 -14 6 -30 q-3 -26 -35 -28 l-213 3 ZM283 551 l-12 -611 q-1 -20 -14 -30 q-14 -9 -30 -8 q-33 1 -37 37 l10 489 q-46 -62 -86 -99 q-37 -30 -61 -7 q-26 25 0 57 q155 148 234 371 q8 20 24 25 q16 5 32 -2 q34 -15 25 -52 q-31 -77 -85 -170 Z" /><glyph glyph-name="" unicode="&#x4f17;" d="M945 414 q-20 -35 -71 -12 q-181 96 -332 277 q-41 43 -79 0 q-129 -176 -322 -281 q-54 -28 -75 3 q-10 13 -6 31 q4 19 26 31 q104 56 171 113 q65 56 152 161 q38 42 85 42 q51 0 93 -42 q152 -167 335 -260 q22 -12 27 -31 q5 -16 -4 -32 ZM683 349 q44 -131 98 -216 q58 -92 135 -146 q21 -15 24 -34 q3 -18 -10 -31 q-12 -13 -32 -15 q-23 -2 -41 13 q-131 96 -203 309 q-18 -53 -44 -103 q-63 -122 -168 -208 q-14 -13 -34 -13 q-18 0 -32 10 q-15 10 -16 26 q-1 18 17 33 q97 77 155 191 q65 127 74 280 q1 20 15 31 q12 10 29 9 q38 -3 42 -42 q-2 -48 -9 -94 ZM371 340 q77 -54 122 -133 q18 -37 -7 -61 q-14 -13 -32 -12 q-20 1 -31 22 q-32 63 -68 103 q-17 -66 -45 -125 q-59 -126 -162 -215 q-32 -24 -63 -5 q-17 10 -19 26 q-3 19 17 35 q89 75 142 186 q55 119 71 283 q2 21 16 32 q13 10 30 8 q37 -5 40 -43 q-4 -60 -11 -101 Z" /><glyph glyph-name="" unicode="&#x4f18;" d="M737 730 q63 -22 117 -73 q27 -29 7 -56 q-10 -13 -27 -15 q-18 -2 -34 12 q-34 37 -92 67 q-14 6 -17 21 q-3 13 4 25 q12 25 42 19 ZM643 558 l251 0 q16 0 27 -12 q10 -11 10 -27 q0 -31 -37 -35 l-255 0 q-6 -68 -10 -107 q9 20 38 20 q34 0 36 -37 q-5 -245 -4 -321 q0 -39 39 -43 q40 -5 82 2 q28 5 39 29 q7 17 7 62 q0 20 13 31 q11 10 27 9 q15 -1 26 -10 q12 -9 13 -25 q3 -71 -21 -117 q-22 -45 -84 -53 q-54 -7 -120 -2 q-100 7 -99 107 q0 198 4 319 q-18 -118 -58 -207 q-64 -145 -190 -226 q-17 -11 -36 -8 q-16 3 -27 16 q-23 27 12 57 q110 78 166 205 q58 126 68 299 l-179 0 q-17 0 -28 12 q-10 11 -10 25 q0 15 9 25 q11 12 29 12 l182 0 q1 92 0 188 q-1 17 12 28 q12 10 29 10 q17 0 29 -10 q12 -10 13 -28 q3 -95 -3 -188 ZM281 537 l-11 -598 q-1 -16 -13 -27 q-12 -10 -27 -10 q-17 0 -29 9 q-13 10 -13 28 l13 493 q-41 -48 -91 -90 q-38 -29 -62 -2 q-23 27 6 58 q183 162 253 360 q7 20 24 25 q16 5 31 -4 q32 -18 18 -54 q-35 -92 -99 -188 Z" /><glyph glyph-name="" unicode="&#x4f19;" d="M467 334 q-22 -36 -55 -30 q-17 4 -24 18 q-7 15 2 37 q34 91 21 186 q-3 18 8 29 q9 9 27 11 q14 2 26 -6 q13 -8 16 -23 q10 -53 5 -114 q-5 -64 -26 -108 ZM701 326 q22 -74 57 -135 q64 -118 176 -192 q37 -30 16 -62 q-10 -17 -27 -20 q-20 -4 -43 12 q-121 78 -191 232 q-25 55 -43 121 q-15 -63 -34 -113 q-72 -179 -227 -262 q-37 -19 -59 8 q-12 14 -10 29 q3 17 23 29 q142 81 202 230 q48 121 50 318 q0 151 -3 221 q-1 19 13 31 q12 11 28 11 q16 0 28 -10 q13 -11 14 -30 q5 -116 0 -229 q1 -58 12 -115 q98 82 164 166 q12 14 31 13 q17 -1 31 -14 q28 -28 -2 -63 q-78 -86 -189 -168 q-7 -6 -17 -8 ZM276 527 l-1 -589 q0 -17 -12 -27 q-11 -9 -27 -9 q-17 0 -29 9 q-14 10 -13 27 l8 493 q-44 -48 -92 -89 q-40 -30 -63 -2 q-10 12 -9 28 q1 18 16 30 q96 83 153 162 q63 87 102 198 q6 20 24 25 q16 5 31 -4 q30 -18 17 -54 q-43 -109 -105 -198 Z" /><glyph glyph-name="" unicode="&#x4f1a;" d="M653 419 l-297 0 q-21 1 -30 14 q-10 13 -7 29 q3 29 37 32 l297 0 q21 -1 30 -13 q10 -12 9 -27 q-2 -31 -39 -35 ZM413 722 q34 44 80 45 q47 1 89 -45 q157 -169 327 -256 q21 -12 24 -30 q2 -19 -9 -35 q-23 -34 -68 -13 q-69 39 -164 121 q-91 78 -160 156 q-18 21 -32 21 q-13 0 -29 -21 q-138 -174 -325 -301 q-29 -19 -51 -10 q-22 9 -29 30 q-9 29 27 51 q83 43 176 129 q81 75 144 158 ZM718 0 q-222 -42 -460 -60 q-40 0 -50 28 q-10 28 19 55 q26 22 61 67 q56 73 93 145 l-203 -2 q-20 0 -30 11 q-9 11 -9 26 q1 33 39 38 l640 0 q40 -5 40 -38 q1 -33 -39 -37 l-342 2 q-59 -101 -130 -195 q-5 -6 -3 -10 q2 -4 9 -4 q148 9 315 33 q-41 41 -86 72 q-29 25 -9 48 q21 23 57 7 q52 -31 108 -85 q59 -57 91 -111 q13 -25 3 -44 q-9 -19 -29 -25 q-29 -10 -48 20 q-21 37 -37 59 Z" /><glyph glyph-name="" unicode="&#x4f1d;" d="M430 675 l382 0 q38 -4 39 -36 q2 -34 -39 -39 l-382 0 q-42 5 -39 39 q2 32 39 36 ZM798 25 q-211 -50 -408 -73 q-36 -2 -48 25 q-12 28 14 59 q29 33 51 75 q62 111 114 247 l-166 -1 q-20 1 -30 12 q-9 11 -9 25 q1 32 39 37 l530 0 q40 -5 39 -38 q0 -32 -39 -36 l-274 1 q-53 -137 -144 -305 q-4 -8 -3 -11 q2 -3 10 -2 q146 20 291 49 q-27 48 -65 96 q-12 16 -9 30 q4 14 17 22 q27 17 55 -10 q43 -51 79 -109 q44 -70 63 -127 q8 -29 -7 -47 q-15 -18 -36 -19 q-28 -2 -40 32 q-9 36 -24 68 ZM269 549 l-12 -609 q-1 -21 -17 -31 q-16 -9 -35 -6 q-29 4 -32 36 l14 492 q-38 -49 -77 -87 q-18 -18 -38 -17 q-18 1 -29 15 q-21 24 5 53 q145 133 225 342 q9 20 25 25 q17 4 33 -3 q34 -16 22 -55 q-36 -79 -84 -155 Z" /><glyph glyph-name="" unicode="&#x4f1f;" d="M646 256 l0 -316 q0 -17 -14 -28 q-13 -10 -30 -9 q-17 0 -28 9 q-13 10 -13 28 l0 316 q-108 -1 -216 -1 q-37 4 -38 36 q0 16 9 26 q10 12 29 12 l216 0 l0 93 l-143 0 q-36 3 -38 32 q0 16 9 27 q10 12 29 12 l143 0 l0 85 l-177 0 q-19 0 -30 12 q-9 10 -9 25 q0 15 10 25 q11 11 29 11 l177 0 l0 95 q0 17 13 28 q12 10 27 10 q18 1 31 -9 q14 -11 14 -29 l0 -95 l209 0 q38 -5 39 -37 q0 -32 -39 -36 l-209 0 l0 -85 l164 0 q37 -4 38 -37 q0 -14 -9 -23 q-11 -11 -30 -11 l-163 0 l0 -93 l160 0 q63 -1 86 -18 q28 -21 28 -78 q0 -76 -11 -131 q-14 -71 -84 -83 q-46 -9 -106 3 q-33 11 -31 44 q3 17 12 27 q11 11 29 7 q29 -7 65 -5 q21 0 29 8 q8 7 11 27 q7 36 7 91 q0 33 -45 35 l-150 0 ZM280 579 l-12 -639 q-1 -19 -14 -30 q-11 -9 -29 -9 q-18 0 -30 10 q-14 11 -13 28 l12 499 q-38 -54 -74 -94 q-30 -33 -62 -9 q-29 27 -1 61 q131 160 213 362 q8 21 26 25 q17 4 37 -7 q30 -19 17 -51 q-35 -83 -70 -146 Z" /><glyph glyph-name="" unicode="&#x4f20;" d="M690 28 q34 -36 52 -61 q13 -17 7 -34 q-5 -15 -21 -24 q-17 -9 -36 -6 q-21 3 -34 21 q-85 107 -191 172 q-14 9 -14 23 q0 14 12 25 q25 21 64 4 q48 -25 101 -66 q91 72 136 141 q9 13 3 19 q-5 5 -21 5 q-103 1 -245 -3 q-58 -2 -76 22 q-17 23 2 64 q23 48 42 93 l-124 0 q-38 3 -38 35 q0 15 9 25 q11 12 29 12 l155 0 q23 54 42 108 l-140 0 q-39 4 -39 33 q0 16 9 26 q11 12 30 12 l166 0 q14 39 27 78 q6 17 22 26 q16 8 32 6 q18 -3 27 -16 q10 -14 4 -36 q-10 -29 -20 -58 l189 0 q37 -4 38 -35 q0 -15 -9 -25 q-10 -11 -29 -11 l-214 0 q-32 -85 -42 -108 l319 0 q37 -4 38 -36 q0 -15 -9 -25 q-10 -11 -29 -11 l-349 0 q-20 -45 -41 -90 q-5 -12 -1 -15 q4 -3 18 -3 q120 0 239 0 q67 1 87 -36 q19 -35 -13 -80 q-75 -105 -164 -171 ZM280 575 l-12 -635 q-1 -18 -14 -29 q-11 -9 -28 -10 q-18 -1 -30 9 q-13 10 -13 29 l13 500 q-34 -48 -76 -95 q-30 -33 -62 -9 q-29 27 -1 61 q134 158 213 362 q8 21 26 25 q17 4 37 -7 q30 -19 17 -51 q-27 -69 -70 -150 Z" /><glyph glyph-name="" unicode="&#x4f24;" d="M639 427 q157 -3 158 -3 q51 -1 80 -28 q30 -29 28 -80 q-5 -171 -41 -277 q-19 -55 -63 -88 q-43 -32 -96 -34 q-44 -6 -97 11 q-45 19 -30 57 q12 35 53 24 q48 -17 82 -11 q52 8 72 67 q35 100 36 240 q1 21 -12 33 q-12 11 -35 12 q-48 1 -137 1 q-23 -274 -244 -433 q-42 -24 -67 4 q-12 13 -10 29 q3 18 23 33 q98 65 149 150 q54 89 64 217 q-74 -2 -149 -3 q-16 0 -27 12 q-10 11 -10 26 q0 15 9 26 q10 12 28 12 q100 2 152 2 l0 84 q4 37 38 39 q18 0 31 -9 q15 -11 15 -30 l0 -83 ZM513 662 l393 0 q17 0 27 -12 q9 -11 9 -25 q0 -15 -9 -26 q-10 -12 -27 -12 l-431 0 q-38 -65 -87 -119 q-30 -33 -64 -9 q-26 23 -2 53 q95 111 140 244 q8 18 25 24 q15 5 32 -3 q32 -15 20 -48 q-15 -42 -26 -67 ZM280 579 l-12 -639 q-6 -37 -37 -39 q-20 0 -31 8 q-14 10 -14 30 l13 506 q-35 -51 -79 -101 q-30 -33 -62 -9 q-30 23 -1 61 q129 154 213 362 q8 21 26 25 q17 4 37 -7 q30 -19 17 -51 q-35 -83 -70 -146 Z" /><glyph glyph-name="" unicode="&#x4f26;" d="M491 257 q146 59 270 142 q38 18 64 -9 q12 -13 9 -30 q-3 -18 -24 -32 q-135 -86 -319 -144 q0 -85 1 -130 q0 -22 11 -34 q11 -13 37 -17 q100 -10 211 2 q40 7 57 36 q14 24 15 69 q1 20 15 31 q12 10 29 10 q18 -1 29 -11 q12 -11 13 -30 q2 -77 -35 -123 q-39 -49 -116 -57 q-121 -8 -237 0 q-109 7 -111 109 q-3 149 2 395 q0 5 2 11 q-9 -8 -29 -24 q-44 -29 -72 0 q-12 13 -12 28 q0 18 15 30 q78 64 129 119 q55 59 105 135 q31 50 76 50 q50 -1 82 -46 q93 -143 228 -232 q21 -14 23 -35 q2 -18 -12 -34 q-27 -34 -77 0 q-129 104 -214 245 q-11 17 -24 16 q-12 -1 -23 -18 q-75 -125 -170 -212 q8 2 15 2 q17 0 29 -10 q12 -10 11 -27 q-1 -72 -3 -175 ZM280 557 l-12 -617 q-5 -37 -37 -39 q-20 0 -31 8 q-14 10 -14 30 l13 499 q-30 -39 -79 -94 q-29 -32 -61 -10 q-30 22 -2 62 q142 165 227 362 q9 21 27 25 q17 4 37 -7 q32 -18 17 -51 q-34 -85 -85 -168 Z" /><glyph glyph-name="" unicode="&#x4f2a;" d="M425 715 q57 -35 81 -81 q11 -38 -21 -54 q-28 -13 -44 16 q-19 35 -63 75 q-19 19 0 40 q21 18 47 4 ZM625 542 q79 -1 157 -2 q58 -2 89 -26 q35 -27 37 -83 q8 -221 -23 -339 q-18 -77 -62 -119 q-43 -41 -108 -48 q-51 -8 -119 11 q-20 5 -28 22 q-8 17 -2 37 q10 33 50 23 q53 -11 76 -11 q83 -3 111 105 q31 108 23 305 q-3 43 -50 45 q-46 2 -154 2 q-5 -77 -14 -132 q3 5 8 8 q25 21 49 0 q72 -58 106 -125 q12 -38 -14 -53 q-15 -11 -33 -7 q-19 4 -25 23 q-27 62 -87 117 q-4 4 -8 12 q-49 -276 -231 -399 q-17 -12 -37 -7 q-19 4 -29 18 q-24 31 16 60 q114 77 167 214 q41 107 50 271 q-112 -2 -166 -3 q-17 0 -28 12 q-10 11 -10 28 q0 15 9 25 q10 11 28 12 q75 3 169 3 l0 31 l0 173 q0 17 12 27 q12 10 27 10 q19 0 31 -9 q13 -10 13 -29 l0 -171 l0 -31 ZM287 574 l-12 -633 q-1 -16 -12 -27 q-12 -11 -28 -12 q-18 0 -30 9 q-14 10 -13 29 l14 516 q-48 -63 -99 -111 q-42 -31 -67 -5 q-23 23 5 57 q162 161 240 360 q7 18 26 24 q16 5 32 -2 q32 -13 21 -53 q-28 -69 -77 -152 Z" /><glyph glyph-name="" unicode="&#x4f2f;" d="M806 261 l-324 0 q0 -102 3 -195 q1 -28 15 -41 q16 -15 49 -16 q121 -9 198 0 q53 5 55 57 q4 81 4 195 ZM805 330 q-2 115 -4 165 q-1 25 -15 38 q-13 12 -38 14 q-106 2 -210 0 q-53 -3 -53 -52 q-3 -75 -3 -165 l323 0 ZM656 616 l3 0 q58 0 107 -3 q55 -2 86 -30 q30 -27 32 -69 q8 -243 0 -467 q-2 -46 -33 -75 q-33 -30 -88 -34 q-127 -8 -240 -1 q-56 4 -87 35 q-30 30 -31 75 q-5 206 0 466 q2 43 30 70 q31 29 83 30 q27 1 54 2 q22 74 28 126 q4 23 22 30 q19 8 39 2 q36 -9 32 -43 q-14 -56 -37 -114 ZM285 568 l-12 -621 q-1 -21 -17 -30 q-16 -9 -35 -6 q-30 4 -33 36 l14 493 q-43 -59 -86 -101 q-38 -31 -63 -7 q-25 24 0 56 q150 145 227 361 q8 21 26 26 q17 5 34 -3 q32 -15 21 -52 q-30 -73 -76 -152 Z" /><glyph glyph-name="" unicode="&#x4f34;" d="M533 570 q11 -23 2 -41 q-9 -18 -28 -24 q-27 -10 -45 20 q-39 71 -79 99 q-25 24 -4 46 q21 21 55 7 q54 -37 99 -107 ZM877 636 q-61 -90 -97 -122 q-32 -24 -56 -5 q-24 19 -2 49 q53 60 83 121 q10 17 26 19 q17 1 31 -8 q32 -21 15 -54 ZM665 190 l2 -250 q-1 -20 -17 -28 q-15 -9 -34 -6 q-30 4 -33 34 l2 250 l-224 -1 q-20 1 -30 13 q-9 13 -7 28 q3 28 37 32 l224 -1 l1 117 l-185 -1 q-21 1 -31 13 q-9 12 -7 27 q3 28 38 31 l184 -1 l-2 290 q1 21 15 30 q15 10 33 7 q32 -3 36 -37 l-2 -290 l194 1 q38 -4 39 -34 q1 -32 -39 -37 l-195 1 l1 -117 l238 1 q22 -1 31 -14 q10 -13 7 -28 q-4 -28 -39 -31 l-237 1 ZM285 556 l-12 -616 q-1 -21 -17 -31 q-16 -9 -35 -6 q-29 4 -32 36 l14 487 q-48 -65 -81 -98 q-18 -17 -35 -18 q-18 0 -30 10 q-26 23 1 56 q154 158 222 368 q7 20 23 26 q16 5 32 -1 q37 -13 27 -54 q-29 -73 -77 -159 Z" /><glyph glyph-name="" unicode="&#x4f38;" d="M810 442 q0 60 -1 89 q-2 45 -52 46 q-52 2 -92 2 q1 -69 1 -137 l144 0 ZM810 379 l-144 0 q0 -102 -1 -152 q65 0 92 1 q51 2 52 47 q1 52 1 104 ZM668 158 l0 -218 q-1 -20 -16 -29 q-15 -8 -33 -6 q-31 3 -35 35 l0 218 q-62 2 -99 3 q-52 1 -81 29 q-26 25 -28 69 q-5 123 0 289 q1 47 33 72 q29 23 77 25 q58 2 98 2 l0 90 q1 21 16 30 q15 9 33 7 q31 -5 35 -37 l0 -90 q43 0 111 -2 q52 -1 81 -28 q27 -25 29 -68 q7 -157 0 -289 q-2 -40 -27 -66 q-30 -31 -84 -33 q-51 -3 -110 -3 ZM587 227 l0 152 l-135 0 q0 -33 2 -105 q3 -44 54 -46 q22 -1 79 -1 ZM587 442 l0 137 q-40 -1 -80 -2 q-25 -1 -39 -15 q-12 -13 -13 -32 q-1 -44 -3 -88 l135 0 ZM276 553 l-12 -613 q-1 -21 -17 -31 q-16 -9 -35 -6 q-30 4 -33 36 l14 492 q-49 -64 -87 -99 q-34 -28 -59 -10 q-15 9 -17 27 q-2 18 14 33 q161 155 233 361 q8 20 25 25 q16 5 33 -2 q35 -15 23 -54 q-30 -71 -82 -159 Z" /><glyph glyph-name="" unicode="&#x4f3c;" d="M532 536 q-26 25 -7 47 q20 21 52 6 q69 -40 119 -103 q12 -20 7 -37 q-6 -17 -21 -26 q-27 -16 -49 12 q-41 60 -101 101 ZM473 684 l0 -445 q0 -9 5 -12 q5 -3 13 0 q72 37 106 62 q25 13 40 -10 q17 -25 -4 -47 q-80 -57 -155 -92 q-32 -16 -57 0 q-25 16 -25 51 l-2 493 q1 20 17 28 q15 8 33 4 q26 -5 29 -32 ZM769 199 q8 -4 11 -6 q113 -89 160 -178 q13 -26 0 -47 q-13 -21 -35 -25 q-27 -7 -43 25 q-46 99 -126 171 q-88 -140 -252 -206 q-28 -11 -46 -3 q-18 8 -23 24 q-8 29 27 47 q210 84 281 284 q50 144 41 412 q1 23 16 32 q16 10 34 7 q30 -4 34 -37 q7 -321 -79 -500 ZM273 571 l-13 -621 q-1 -19 -15 -28 q-13 -9 -30 -8 q-32 2 -35 36 l13 514 q-37 -45 -79 -83 q-37 -29 -60 -4 q-24 25 -1 52 q145 130 229 316 q10 19 26 22 q15 3 30 -6 q34 -18 19 -55 q-47 -81 -84 -135 Z" /><glyph glyph-name="" unicode="&#x4f3d;" d="M836 537 q0 34 -24 37 q-24 3 -47 0 q-11 -1 -18 -13 q-6 -10 -6 -24 q-5 -319 0 -479 q2 -36 26 -39 q19 -3 43 0 q26 3 26 41 q7 238 0 477 ZM832 -53 q-46 -7 -94 0 q-33 3 -52 29 q-19 26 -20 65 q-3 255 0 513 q1 39 21 63 q20 24 57 26 q36 4 89 0 q34 -1 56 -25 q22 -24 22 -60 q3 -256 0 -517 q0 -41 -20 -65 q-21 -25 -59 -29 ZM463 570 l54 0 q92 -2 92 -96 q1 -142 -1 -197 q-5 -117 -23 -195 q-42 -185 -193 -132 q-15 7 -19 22 q-4 15 2 30 q12 35 44 22 q33 -15 54 0 q25 17 39 78 q16 66 21 177 q3 70 2 179 q-1 22 -10 32 q-9 9 -26 10 q-18 0 -37 1 q-3 -171 -32 -303 q-37 -164 -113 -261 q-27 -30 -55 -15 q-29 17 -10 52 q73 99 106 247 q26 115 30 279 q-33 -1 -66 -2 q-20 0 -29 12 q-9 12 -7 27 q3 28 35 32 q34 0 68 1 q0 82 -1 165 q0 21 14 30 q13 9 30 6 q29 -4 32 -36 q0 -107 -1 -165 ZM249 552 l-12 -612 q-1 -21 -17 -30 q-15 -9 -33 -6 q-28 4 -30 36 l11 467 q-36 -54 -61 -82 q-34 -32 -61 -12 q-27 21 -3 55 q138 162 197 385 q6 20 20 26 q15 7 31 2 q37 -11 30 -50 q-27 -87 -72 -179 Z" /><glyph glyph-name="" unicode="&#x4f46;" d="M528 712 q88 4 223 0 q44 -2 75 -29 q32 -28 34 -70 q8 -181 0 -380 q-9 -93 -111 -104 q-102 -5 -214 0 q-108 9 -113 103 q-7 165 0 382 q2 40 26 65 q28 29 80 33 ZM912 -50 l-548 0 q-20 1 -30 12 q-10 12 -9 26 q1 32 39 36 l548 0 q18 -1 28 -12 q9 -12 8 -26 q0 -32 -36 -36 ZM784 402 l-287 0 q0 -87 4 -152 q2 -27 13 -37 q11 -10 43 -13 q86 -6 169 0 q28 3 41 16 q12 12 13 37 q2 47 4 149 ZM784 469 q-2 84 -4 124 q-1 46 -52 51 q-88 6 -173 0 q-52 -6 -54 -51 q-2 -40 -4 -124 l287 0 ZM285 541 l-11 -600 q-1 -21 -17 -31 q-16 -9 -35 -6 q-30 4 -33 36 l14 487 q-54 -65 -87 -93 q-18 -15 -35 -15 q-16 0 -27 11 q-25 26 1 57 q156 138 243 352 q9 21 27 25 q18 3 35 -6 q31 -16 18 -53 q-38 -82 -93 -164 Z" /><glyph glyph-name="" unicode="&#x4f4d;" d="M486 121 q-17 144 -74 285 q-7 19 4 32 q11 12 30 15 q30 4 44 -24 q55 -150 79 -290 q4 -27 -11 -41 q-15 -15 -35 -14 q-30 0 -37 37 ZM686 23 l217 1 q19 -1 29 -13 q9 -12 8 -27 q-1 -30 -37 -34 l-564 0 q-20 1 -30 12 q-10 12 -9 26 q1 32 39 36 l268 -1 q79 225 106 409 q4 20 20 28 q17 7 35 2 q38 -8 35 -48 q-34 -171 -117 -391 ZM663 585 l199 1 q21 -1 31 -13 q10 -13 8 -29 q-2 -29 -39 -33 l-474 0 q-21 1 -30 13 q-10 12 -9 27 q2 31 39 35 l192 -1 l-1 144 q1 21 15 30 q15 10 32 8 q34 -2 38 -38 l-1 -144 ZM279 531 l-11 -591 q-1 -21 -17 -31 q-16 -9 -35 -6 q-29 4 -32 36 l14 481 q-44 -52 -81 -86 q-19 -16 -35 -15 q-17 2 -28 13 q-23 26 2 55 q157 137 244 353 q9 20 25 24 q16 5 32 -2 q36 -16 23 -56 q-43 -91 -101 -175 Z" /><glyph glyph-name="" unicode="&#x4f4e;" d="M724 375 q33 -239 91 -330 q28 -41 48 -19 q17 19 24 74 q3 15 16 21 q12 6 27 4 q32 -4 34 -42 q-6 -65 -30 -102 q-24 -36 -57 -46 q-70 -18 -120 53 q-74 117 -109 385 l-170 -5 l0 -271 q0 -9 5 -13 q4 -3 12 0 q57 29 122 69 q27 10 40 -17 q12 -27 -10 -46 q-22 -15 -43 -27 q15 3 29 -5 q50 -35 80 -84 q11 -20 6 -37 q-5 -16 -19 -24 q-25 -13 -47 19 q-26 46 -59 75 q-25 23 -8 44 q-66 -41 -105 -58 q-34 -16 -59 0 q-25 16 -25 53 l1 537 q1 54 26 82 q25 28 77 34 q157 17 274 55 q27 8 43 -3 q16 -11 17 -30 q3 -28 -35 -42 q-43 -12 -99 -22 q3 -98 14 -214 l151 6 q22 0 32 -12 q10 -13 8 -28 q-2 -26 -38 -30 l-144 -4 ZM640 441 q-8 77 -17 203 q-57 -8 -90 -11 q-33 -4 -45 -21 q-10 -14 -10 -45 l0 -131 l162 5 ZM276 546 l-12 -606 q-1 -20 -14 -30 q-14 -9 -30 -8 q-33 1 -37 37 l11 486 q-44 -60 -82 -95 q-38 -30 -62 -8 q-13 10 -14 26 q-1 18 14 32 q154 147 234 368 q8 21 25 25 q17 5 34 -4 q31 -15 21 -51 q-35 -84 -88 -172 Z" /><glyph glyph-name="" unicode="&#x4f4f;" d="M523 709 q-31 14 -19 41 q14 30 52 26 q33 -9 79 -33 q50 -26 73 -49 q16 -17 14 -36 q-2 -18 -16 -31 q-25 -25 -57 2 q-42 44 -126 80 ZM666 17 l244 1 q19 0 28 -12 q10 -11 9 -26 q0 -31 -38 -35 l-560 0 q-42 5 -40 38 q1 31 40 35 l235 -1 l0 228 l-160 -1 q-39 4 -40 34 q-2 32 40 37 l160 -1 l0 184 l-184 -1 q-20 1 -30 11 q-10 10 -10 24 q-2 33 40 38 l466 0 q41 -5 40 -38 q-1 -31 -40 -35 l-200 1 l0 -184 l163 1 q38 -4 39 -34 q2 -32 -39 -37 l-163 1 l0 -228 ZM285 541 l-11 -601 q-1 -21 -17 -31 q-16 -9 -35 -6 q-30 4 -33 36 l14 489 q-47 -58 -88 -93 q-39 -29 -63 -3 q-23 26 3 56 q156 138 245 352 q9 20 25 24 q16 5 32 -2 q36 -16 23 -56 q-40 -83 -95 -165 Z" /><glyph glyph-name="" unicode="&#x4f50;" d="M695 16 l207 1 q18 -1 28 -11 q9 -11 9 -25 q0 -32 -37 -36 l-494 0 q-38 4 -38 35 q0 32 38 37 l208 -1 l0 237 l-129 -1 q-55 -93 -114 -143 q-19 -15 -38 -14 q-18 1 -29 14 q-22 23 7 53 q132 116 194 328 l-138 -1 q-19 1 -29 12 q-9 11 -9 25 q0 32 38 37 l157 -1 q18 80 24 159 q2 21 16 29 q15 9 32 6 q37 -5 38 -41 q-8 -68 -28 -153 l284 1 q21 -1 30 -14 q10 -13 7 -29 q-3 -28 -37 -31 l-304 1 q-25 -84 -64 -167 l322 0 q38 -4 39 -34 q2 -33 -39 -37 l-151 1 l0 -237 ZM278 535 l-11 -592 q-1 -20 -15 -29 q-14 -9 -31 -8 q-32 2 -35 36 l12 478 q-45 -58 -89 -98 q-37 -28 -62 -6 q-12 10 -12 26 q0 17 14 31 q77 72 138 163 q65 98 101 202 q7 18 22 23 q16 6 33 -1 q36 -14 25 -52 q-33 -81 -90 -173 Z" /><glyph glyph-name="" unicode="&#x4f51;" d="M794 238 q-3 41 -48 44 q-79 4 -147 0 q-46 -3 -48 -43 q-7 -102 -3 -186 q3 -46 50 -50 q56 -6 145 0 q48 3 51 50 q4 90 0 185 ZM639 583 l253 1 q19 -1 29 -12 q9 -11 9 -25 q0 -32 -38 -37 l-276 1 q-35 -95 -75 -171 q15 5 36 7 q76 4 189 0 q47 -1 75 -26 q28 -24 29 -65 q7 -134 2 -224 q-2 -41 -29 -67 q-28 -27 -77 -31 q-83 -8 -189 0 q-53 4 -79 32 q-23 25 -25 67 q-3 71 2 199 q-49 -70 -100 -112 q-18 -15 -36 -13 q-18 1 -28 13 q-23 24 7 55 q141 120 216 336 l-165 -1 q-40 5 -39 38 q0 32 39 36 l187 -1 q19 72 30 149 q4 21 19 29 q14 7 31 4 q37 -8 35 -45 q-11 -66 -32 -137 ZM278 545 l-11 -598 q-1 -20 -16 -30 q-14 -9 -32 -7 q-31 2 -34 36 l12 482 q-50 -65 -87 -98 q-36 -28 -61 -7 q-14 12 -15 27 q-1 17 15 32 q156 144 239 364 q8 19 24 24 q15 4 32 -2 q36 -15 25 -53 q-36 -83 -91 -170 Z" /><glyph glyph-name="" unicode="&#x4f53;" d="M672 497 q95 -170 273 -303 q17 -12 18 -30 q1 -16 -10 -29 q-12 -14 -28 -16 q-19 -2 -38 13 q-133 112 -239 296 l3 -204 l0 -33 l99 1 q35 -4 36 -33 q1 -31 -36 -35 l-99 0 l0 -185 q-1 -18 -14 -27 q-14 -8 -30 -6 q-30 3 -33 33 l0 185 l-93 0 q-37 3 -37 32 q0 31 37 36 l93 -1 l0 32 l4 204 q-86 -179 -224 -308 q-16 -14 -32 -12 q-16 2 -26 14 q-21 26 5 53 q155 125 248 323 l-184 -4 q-40 4 -38 38 q2 31 37 35 l208 0 l0 180 q1 20 15 28 q14 9 31 7 q31 -4 35 -35 l0 -180 l235 0 q19 -1 28 -13 q9 -13 7 -28 q-2 -29 -35 -32 l-216 4 ZM283 553 l-12 -613 q-1 -21 -16 -30 q-14 -10 -31 -7 q-31 3 -34 37 l11 489 q-46 -62 -86 -99 q-37 -28 -62 -7 q-13 11 -14 26 q-1 17 14 31 q155 147 233 368 q8 21 25 25 q18 5 34 -3 q31 -15 21 -50 q-34 -83 -83 -167 Z" /><glyph glyph-name="" unicode="&#x4f55;" d="M551 431 q-43 2 -81 0 q-33 -3 -36 -39 q-3 -65 0 -129 q3 -31 36 -35 q38 -3 82 0 q16 2 23 8 q10 8 11 27 q3 64 0 129 q-1 37 -35 39 ZM362 413 q2 36 24 59 q22 23 57 25 q66 3 132 0 q34 -2 57 -21 q26 -21 27 -57 q2 -89 0 -170 q-7 -83 -85 -90 q-63 -5 -130 0 q-75 7 -82 89 q-2 74 0 165 ZM837 615 q-2 -285 0 -443 l1 -127 q2 -68 -53 -102 q-66 -41 -203 -21 q-23 4 -33 19 q-10 15 -7 32 q5 34 45 31 q87 -15 126 -3 q41 12 41 58 q1 278 2 556 l-347 -1 q-20 1 -29 12 q-10 12 -9 27 q1 32 38 36 l496 0 q40 -5 40 -38 q0 -33 -40 -37 l-68 1 ZM277 546 l-7 -605 q-1 -21 -18 -30 q-16 -9 -36 -6 q-31 4 -33 36 l14 493 q-48 -60 -88 -95 q-41 -28 -65 -3 q-24 25 5 57 q158 142 236 346 q9 20 25 24 q16 5 32 -2 q36 -16 23 -56 q-39 -82 -88 -159 Z" /><glyph glyph-name="" unicode="&#x4f59;" d="M408 724 q33 43 84 44 q52 1 94 -44 q157 -168 327 -256 q22 -12 24 -31 q2 -19 -10 -35 q-23 -33 -67 -13 q-69 40 -164 122 q-91 79 -160 156 q-35 45 -70 0 q-65 -84 -148 -163 q-89 -85 -171 -139 q-29 -18 -52 -9 q-23 8 -31 30 q-11 29 25 51 q82 43 175 129 q79 74 144 158 ZM866 45 q19 -22 14 -44 q-4 -21 -22 -32 q-29 -20 -57 12 q-54 76 -159 135 q-29 21 -16 48 q16 34 57 19 q110 -57 183 -138 ZM352 124 q-76 -103 -180 -161 q-23 -13 -42 -6 q-20 7 -27 26 q-12 29 22 51 q101 46 162 141 q12 16 28 16 q16 0 29 -10 q27 -22 8 -57 ZM547 247 l0 -134 l1 -74 q2 -76 -50 -109 q-54 -34 -158 -19 q-24 4 -32 19 q-9 15 -5 32 q8 34 47 31 q68 -13 93 1 q24 14 24 61 l1 192 l-278 -2 q-18 1 -27 11 q-9 11 -9 24 q0 32 36 36 l278 -1 l-1 104 l-117 -1 q-37 4 -36 35 q0 31 36 35 l307 0 q20 -1 28 -13 q9 -13 6 -28 q-3 -26 -34 -29 l-110 1 l0 -104 l270 1 q18 -1 27 -12 q9 -11 8 -25 q-1 -30 -35 -34 l-270 2 Z" /><glyph glyph-name="" unicode="&#x4f5b;" d="M735 247 l0 -301 q-1 -19 -14 -27 q-13 -8 -29 -6 q-29 3 -32 33 l0 301 l-91 0 q-29 -208 -187 -319 q-42 -24 -65 5 q-21 26 10 54 q73 54 112 115 q40 62 55 145 q-31 -1 -83 -1 q-43 0 -62 22 q-17 20 -11 58 q8 43 19 94 q8 34 28 47 q18 12 55 13 q32 0 64 1 l0 101 q-57 -1 -114 -2 q-17 1 -25 11 q-9 11 -8 25 q1 29 34 34 l112 0 q0 36 -1 73 q4 38 38 38 q34 0 39 -39 l0 -72 l81 0 l0 82 q1 21 15 30 q13 8 30 5 q27 -4 30 -35 l0 -83 l68 0 q44 -1 66 -18 q22 -17 24 -53 q2 -59 0 -92 q-3 -37 -28 -54 q-23 -15 -69 -16 l-61 0 l0 -104 l100 0 q90 2 90 -85 q-1 -58 -15 -118 q-30 -93 -136 -72 q-15 3 -22 15 q-6 11 -4 25 q3 31 35 31 q28 -8 42 1 q12 7 17 28 q10 29 10 77 q0 35 -35 33 l-82 0 ZM735 479 q20 -1 50 -1 q38 0 39 24 q3 38 0 56 q-2 12 -8 17 q-8 6 -27 6 q-27 0 -54 1 l0 -103 ZM660 311 l0 106 l-83 0 l0 -53 q0 -36 -1 -53 l84 0 ZM660 480 l0 102 l-82 0 q0 -68 -1 -102 l83 0 ZM504 418 q-24 -1 -49 -1 q-28 3 -33 -20 q-6 -17 -12 -64 q-2 -13 4 -18 q6 -5 24 -5 l64 0 q2 34 2 53 l0 55 ZM273 555 l-12 -615 q-1 -19 -15 -28 q-13 -10 -30 -9 q-33 1 -36 37 l12 489 q-46 -62 -82 -97 q-16 -17 -34 -18 q-15 -1 -28 10 q-27 23 0 57 q152 149 225 370 q7 19 22 25 q17 6 34 -1 q35 -14 26 -52 q-35 -87 -82 -168 Z" /><glyph glyph-name="" unicode="&#x4f5c;" d="M646 129 l0 -184 q-1 -21 -13 -31 q-13 -10 -29 -9 q-34 0 -39 40 l0 579 l-51 0 q-43 -85 -111 -175 q-15 -19 -32 -21 q-16 -2 -29 7 q-27 20 -4 55 q125 151 175 348 q6 20 21 26 q15 7 31 3 q36 -10 29 -48 q-18 -56 -46 -122 l360 0 q19 -1 28 -13 q9 -13 7 -28 q-2 -28 -35 -32 l-262 0 l0 -123 l216 0 q19 -1 28 -13 q9 -13 7 -28 q-2 -28 -35 -32 l-216 0 l0 -126 l227 0 q18 -1 27 -13 q9 -11 8 -26 q-2 -30 -35 -34 l-227 0 ZM303 564 l-11 -624 q-2 -21 -16 -31 q-14 -9 -32 -7 q-30 3 -34 37 l10 505 q-59 -77 -106 -117 q-39 -29 -62 -3 q-23 27 2 55 q161 142 248 363 q8 19 23 24 q16 4 32 -3 q35 -15 24 -53 q-28 -64 -78 -146 Z" /><glyph glyph-name="" unicode="&#x4f5f;" d="M719 -86 q-85 56 -221 86 q-21 3 -30 18 q-8 13 -3 28 q12 31 53 28 q54 -6 130 -32 q80 -27 121 -55 q38 -30 19 -62 q-23 -36 -69 -11 ZM734 181 q33 -28 11 -57 q-24 -30 -61 -7 q-51 39 -117 65 q-18 7 -24 20 q-6 13 3 26 q13 22 50 16 q78 -19 138 -63 ZM691 402 q93 -81 239 -117 q20 -4 28 -19 q8 -14 3 -29 q-5 -16 -19 -23 q-16 -8 -39 -2 q-144 39 -261 141 q-110 -103 -264 -167 q-45 -13 -57 21 q-5 14 0 25 q6 13 24 20 q139 54 244 150 q-56 59 -88 126 q-42 -55 -99 -109 q-31 -23 -60 -1 q-25 23 4 50 q122 111 199 290 q9 21 30 26 q18 5 35 -5 q29 -17 16 -44 q-14 -29 -17 -35 q44 1 128 1 q54 -1 78 -32 q24 -32 2 -79 q-46 -100 -126 -188 ZM639 452 q71 81 96 153 q6 16 -1 23 q-7 7 -25 8 q-45 2 -136 0 q-11 -19 -25 -41 q28 -73 91 -143 ZM280 558 l-12 -618 q-6 -37 -37 -39 q-20 0 -31 8 q-14 10 -14 30 l13 499 q-45 -57 -79 -94 q-30 -33 -62 -9 q-30 27 -1 61 q149 167 231 362 q8 19 27 24 q18 5 36 -5 q32 -19 17 -52 q-35 -79 -88 -167 Z" /><glyph glyph-name="" unicode="&#x4f60;" d="M825 352 q82 -103 124 -224 q11 -38 -21 -59 q-18 -12 -36 -5 q-19 7 -27 34 q-39 120 -108 217 q-16 34 13 50 q28 15 55 -13 ZM546 318 q-34 -135 -113 -242 q-28 -35 -61 -19 q-36 18 -12 61 q73 100 111 223 q4 16 19 23 q15 7 30 3 q31 -7 26 -49 ZM699 542 l0 -491 q0 -66 -21 -99 q-25 -39 -87 -45 q-40 -5 -102 6 q-20 4 -30 18 q-9 13 -8 30 q1 19 12 30 q13 13 32 7 q43 -10 68 -9 q30 -2 43 14 q13 16 13 54 l0 486 l-7 0 q-72 0 -105 -1 q-42 -82 -81 -131 q-31 -30 -62 -10 q-27 20 -3 53 q100 129 142 299 q4 16 20 23 q15 6 33 1 q16 -5 23 -19 q8 -16 0 -41 q-15 -51 -39 -104 q159 1 313 -2 q38 -2 60 -26 q23 -25 16 -63 q-10 -51 -36 -99 q-23 -31 -56 -19 q-31 11 -18 47 q21 37 30 63 q4 14 -1 20 q-6 6 -21 6 q-76 2 -128 2 ZM300 565 l-12 -625 q-5 -37 -38 -39 q-19 0 -31 9 q-14 10 -13 29 l12 515 q-50 -62 -106 -112 q-19 -17 -38 -16 q-16 1 -27 14 q-20 27 7 58 q178 164 259 360 q9 19 25 24 q14 5 30 -4 q15 -7 21 -21 q8 -16 0 -33 q-37 -82 -89 -159 Z" /><glyph glyph-name="" unicode="&#x4f63;" d="M833 290 l0 159 l-145 0 l0 -159 l145 0 ZM833 224 l-145 0 l0 -199 q-4 -38 -39 -39 q-16 0 -26 9 q-12 10 -12 30 l0 199 l-144 0 q-15 -168 -64 -287 q-9 -23 -27 -31 q-16 -8 -34 -2 q-17 6 -24 20 q-8 16 2 36 q71 149 77 411 q1 69 -3 259 q0 113 116 116 q144 5 295 0 q100 -4 102 -104 q7 -275 3 -588 q-1 -76 -27 -110 q-29 -38 -99 -37 q-26 0 -59 6 q-15 2 -23 18 q-7 15 -5 32 q2 14 12 23 q11 10 25 7 q40 -6 51 -6 q24 1 35 15 q10 13 11 39 q2 112 2 183 ZM832 515 q-1 61 -3 114 q0 23 -11 34 q-11 10 -35 12 q-60 2 -95 2 l0 -162 l144 0 ZM611 290 l0 159 l-137 0 l0 -74 q0 -27 -2 -85 l139 0 ZM611 515 l0 162 q-34 0 -88 -2 q-51 -2 -50 -54 q1 -53 1 -106 l137 0 ZM285 553 l-11 -613 q-6 -37 -39 -39 q-17 0 -28 9 q-13 10 -13 29 l12 501 q-50 -60 -96 -98 q-38 -32 -62 -2 q-10 12 -9 28 q1 18 15 30 q175 158 245 360 q6 19 24 24 q15 4 31 -4 q32 -18 18 -54 q-38 -93 -87 -171 Z" /><glyph glyph-name="" unicode="&#x4f69;" d="M981 94 q-19 -130 -70 -153 q-53 -24 -90 47 q-44 107 -46 290 q-3 190 2 330 q1 54 -51 56 q-101 5 -252 -1 q-51 -2 -51 -59 q1 -32 1 -64 q5 -193 -4 -305 q-15 -194 -70 -289 q-12 -19 -28 -24 q-16 -4 -30 2 q-33 17 -13 59 q57 92 71 282 q8 110 1 301 q-2 40 -2 54 q-1 45 22 75 q27 35 77 37 q171 5 307 0 q47 -2 74 -30 q26 -28 25 -77 q0 -31 -4 -123 q-7 -172 -4 -251 q4 -141 32 -207 q7 -17 14 -12 q17 11 21 78 q2 18 13 25 q11 6 25 3 q30 -6 30 -44 ZM632 461 q11 -1 30 -1 q70 -3 71 -84 q1 -75 1 -149 q1 -33 1 -66 q1 -51 -22 -75 q-26 -26 -79 -13 q-1 0 -5 2 l0 -119 q-4 -32 -30 -32 q-26 0 -30 33 l0 444 q-10 -1 -24 -1 q-29 -1 -29 -36 q-3 -116 -1 -281 q-2 -32 -25 -32 q-22 0 -25 32 q-2 146 0 294 q1 43 18 62 q17 20 57 21 q17 0 26 1 l0 72 l-77 0 q-19 1 -27 11 q-8 11 -6 24 q3 26 34 29 l224 0 q32 -4 32 -32 q0 -28 -32 -32 l-82 0 l0 -72 ZM629 132 q6 2 10 1 q25 -3 34 2 q12 8 12 35 q0 97 -1 194 q0 35 -30 36 q-15 0 -25 1 l0 -269 ZM266 557 l-10 -617 q-1 -20 -16 -29 q-14 -9 -32 -7 q-28 3 -31 36 l13 492 q-40 -58 -80 -101 q-16 -17 -34 -18 q-16 -1 -29 11 q-24 24 1 57 q146 148 219 370 q7 21 23 26 q16 5 32 -2 q31 -14 23 -51 q-32 -83 -79 -167 Z" /><glyph glyph-name="" unicode="&#x4f73;" d="M669 225 l179 1 q38 -4 39 -34 q2 -32 -39 -37 l-179 1 l-1 -140 l245 1 q21 -1 30 -13 q10 -12 8 -27 q-2 -28 -38 -31 l-566 0 q-20 1 -30 12 q-9 12 -8 26 q3 29 38 33 l241 -1 l-1 140 l-172 -1 q-37 4 -37 35 q0 32 37 36 l172 -1 l0 78 q1 21 15 30 q14 9 32 6 q31 -3 35 -36 l0 -78 ZM669 624 l169 1 q39 -4 39 -35 q1 -31 -39 -35 l-170 1 l0 -125 l215 1 q21 -1 30 -13 q10 -12 8 -27 q-2 -28 -38 -31 l-493 0 q-37 4 -37 35 q0 32 37 36 l198 -1 l0 125 l-163 -1 q-20 1 -29 13 q-9 12 -7 26 q2 28 36 31 l162 -1 l0 110 q1 21 15 30 q14 9 32 6 q31 -3 35 -36 l0 -110 ZM285 539 l-12 -598 q-1 -20 -15 -29 q-15 -10 -32 -8 q-33 2 -37 37 l14 485 q-44 -55 -86 -92 q-35 -30 -64 -3 q-11 10 -11 26 q0 17 15 30 q165 149 243 352 q8 20 24 24 q16 5 32 -2 q36 -15 23 -56 q-38 -78 -94 -166 Z" /><glyph glyph-name="" unicode="&#x4f7f;" d="M672 590 l0 -74 q75 0 130 -3 q85 -3 92 -70 q4 -46 0 -104 q-3 -36 -26 -56 q-24 -21 -67 -23 q-9 0 -136 -3 q-12 -106 -58 -180 q128 -75 307 -78 q20 -1 30 -12 q9 -12 8 -28 q-1 -37 -52 -40 q-194 7 -340 100 q-76 -75 -212 -107 q-24 -5 -38 9 q-14 14 -13 33 q1 24 31 32 q108 21 171 79 q-53 46 -88 101 q-13 28 13 44 q26 17 46 -6 q29 -45 74 -83 q33 54 45 137 q-52 0 -122 2 q-83 7 -89 77 q-3 46 1 103 q2 30 25 50 q25 22 63 23 q56 3 129 3 l0 74 l-207 -1 q-18 0 -27 11 q-9 12 -8 26 q1 31 35 35 l207 -1 q0 40 -1 80 q1 21 12 31 q11 10 26 10 q33 0 38 -39 q1 -26 1 -82 l224 1 q18 -1 28 -12 q9 -11 8 -26 q-1 -31 -35 -34 l-225 1 ZM672 452 l0 -81 q0 -25 -1 -50 q50 0 114 2 q32 2 35 32 q3 33 0 64 q-2 30 -37 31 q-62 2 -111 2 ZM596 452 q-48 0 -108 -2 q-34 -1 -36 -33 q-3 -29 -1 -64 q2 -28 35 -30 q62 -2 108 -2 q2 36 2 55 l0 76 ZM276 560 l-11 -619 q-1 -22 -17 -31 q-16 -9 -34 -6 q-28 4 -30 36 l12 495 q-45 -63 -86 -103 q-17 -18 -36 -18 q-17 0 -29 13 q-23 22 4 54 q74 75 131 167 q62 100 93 203 q8 20 24 26 q16 5 32 -2 q35 -14 26 -52 q-29 -75 -79 -163 Z" /><glyph glyph-name="" unicode="&#x4f8b;" d="M905 727 q0 -404 1 -552 q0 -40 3 -142 q1 -60 -43 -92 q-52 -39 -152 -20 q-20 4 -28 18 q-8 14 -6 30 q5 34 40 31 q53 -11 74 -5 q32 9 32 55 q3 242 -2 677 q0 22 15 32 q14 10 31 7 q31 -3 35 -39 ZM746 667 l0 -518 q-1 -18 -14 -26 q-13 -8 -29 -6 q-29 3 -32 32 l0 518 q1 19 12 28 q12 10 27 9 q32 -1 36 -37 ZM518 320 q17 68 22 131 q3 28 -25 28 q-35 -1 -70 -1 q-37 -123 -95 -217 q-12 -19 -28 -23 q-16 -4 -29 2 q-30 16 -12 52 q103 152 134 365 l-56 -1 q-18 1 -27 12 q-8 10 -8 24 q1 30 35 34 l246 0 q37 -4 37 -35 q0 -31 -37 -35 l-119 1 q-7 -50 -22 -111 q67 0 75 1 q40 -1 61 -22 q24 -24 18 -68 q-21 -166 -82 -297 q-68 -147 -179 -235 q-21 -16 -40 -13 q-18 4 -28 19 q-17 26 15 53 q125 88 190 263 q-32 18 -71 31 q-16 5 -20 18 q-5 14 1 29 q13 31 49 24 q36 -13 65 -29 ZM247 566 l-13 -625 q-1 -19 -14 -28 q-13 -10 -29 -9 q-34 0 -37 37 l11 491 q-29 -42 -54 -71 q-16 -18 -32 -19 q-16 -1 -28 8 q-27 22 -6 54 q131 148 196 345 q8 21 25 25 q17 4 33 -4 q32 -16 21 -52 q-33 -77 -73 -152 Z" /><glyph glyph-name="" unicode="&#x4f8f;" d="M677 332 q95 -138 262 -245 q17 -11 18 -31 q1 -19 -11 -33 q-27 -29 -62 -4 q-126 92 -229 240 l4 -198 l0 -118 q-1 -19 -15 -27 q-15 -8 -32 -5 q-29 3 -32 32 l0 116 l4 199 q-88 -153 -218 -256 q-18 -14 -36 -11 q-17 2 -28 15 q-22 26 10 54 q155 109 246 272 l-201 -3 q-19 0 -27 11 q-9 11 -8 25 q2 30 35 34 l223 -1 l0 133 l-125 0 q-30 -55 -55 -86 q-28 -30 -56 -13 q-30 18 -8 55 q68 83 109 217 q6 17 20 22 q13 5 28 0 q33 -10 26 -47 q-13 -41 -30 -79 l91 0 l0 134 q1 19 15 28 q14 8 30 6 q30 -4 34 -34 l0 -134 l177 0 q20 -1 28 -13 q9 -12 6 -27 q-3 -26 -34 -29 l-177 0 l0 -133 l233 1 q19 -1 27 -13 q8 -13 6 -28 q-3 -27 -33 -29 l-215 3 ZM273 554 l-12 -610 q-1 -20 -16 -29 q-14 -9 -31 -7 q-31 2 -34 36 l12 485 q-46 -62 -82 -97 q-34 -32 -63 -7 q-26 23 1 56 q152 147 225 368 q7 19 23 24 q15 5 32 -1 q36 -13 27 -51 q-34 -84 -82 -167 Z" /><glyph glyph-name="" unicode="&#x4f91;" d="M784 121 l-253 0 q1 -88 2 -176 q0 -21 -15 -31 q-14 -9 -31 -6 q-28 4 -31 37 q0 253 1 377 q-46 -61 -82 -91 q-20 -14 -37 -11 q-17 3 -26 16 q-18 26 10 56 q117 97 194 258 l-146 0 q-39 4 -39 36 q-1 33 39 38 l178 0 q24 64 38 125 q5 20 21 26 q16 7 33 2 q36 -10 31 -45 q-14 -50 -38 -108 l268 0 q21 -1 30 -13 q10 -12 8 -27 q-2 -30 -38 -34 l-300 0 q-13 -28 -43 -82 q116 4 196 0 q50 -1 77 -27 q25 -24 27 -68 q1 -110 2 -220 q1 -38 1 -121 q0 -142 -182 -109 q-19 4 -27 18 q-8 13 -5 29 q6 32 40 30 q49 -10 70 -3 q26 9 27 50 l0 74 ZM784 180 l0 82 l-253 0 l0 -82 l253 0 ZM783 321 q-1 14 -1 41 q-3 40 -44 41 q-83 7 -162 0 q-43 -2 -43 -41 q0 -21 -1 -41 l251 0 ZM277 545 l-10 -605 q-1 -19 -15 -29 q-14 -9 -31 -8 q-33 2 -36 37 l12 487 q-45 -59 -85 -96 q-31 -28 -59 -9 q-14 10 -16 27 q-2 19 14 34 q154 144 235 364 q8 21 25 25 q18 3 34 -5 q31 -16 21 -51 q-35 -83 -89 -171 Z" /><glyph glyph-name="" unicode="&#x4f9b;" d="M874 -76 q-48 27 -97 66 q-54 44 -91 90 q-22 35 3 53 q27 21 56 -4 q74 -88 176 -133 q20 -10 23 -27 q3 -17 -7 -32 q-20 -31 -63 -13 ZM363 -83 q-24 -12 -42 -3 q-18 9 -23 28 q-8 27 23 45 q112 49 185 140 q13 15 30 15 q16 0 28 -11 q26 -23 5 -54 q-38 -45 -100 -92 q-56 -43 -106 -68 ZM771 551 l100 0 q21 0 30 -13 q10 -12 8 -27 q-2 -28 -38 -32 l-100 0 l-1 -218 l131 1 q38 -4 39 -35 q2 -32 -39 -37 l-539 0 q-37 4 -38 35 q-1 32 38 37 l110 -1 l-1 218 l-78 0 q-37 4 -38 35 q-1 33 38 37 l78 0 l0 168 q1 20 15 29 q14 8 32 6 q31 -3 35 -35 l-1 -169 l139 0 l-1 169 q1 20 15 29 q15 9 33 6 q30 -4 34 -35 l-1 -168 ZM692 260 l-1 220 l-139 0 l-1 -219 l141 -1 ZM279 531 l-11 -587 q-1 -21 -17 -31 q-16 -9 -35 -6 q-30 4 -32 36 l14 479 q-44 -51 -83 -86 q-37 -27 -60 -6 q-14 11 -15 27 q-1 18 15 32 q156 137 245 349 q9 21 27 25 q18 4 35 -5 q31 -16 18 -53 q-41 -88 -101 -174 Z" /><glyph glyph-name="" unicode="&#x4f9d;" d="M733 288 q70 -178 201 -260 q20 -12 23 -32 q2 -18 -9 -33 q-11 -14 -27 -17 q-19 -4 -37 9 q-109 73 -183 231 q-64 137 -87 306 q-38 -72 -75 -124 l0 -341 q0 -9 4 -12 q4 -3 11 0 q54 20 121 58 q26 8 39 -18 q12 -26 -10 -44 q-73 -43 -163 -79 q-32 -13 -55 2 q-23 15 -22 49 l0 295 q-44 -45 -99 -86 q-19 -13 -35 -11 q-16 3 -25 16 q-19 26 11 51 q83 56 141 124 q50 59 104 155 l-185 -2 q-22 0 -31 14 q-10 13 -7 29 q4 28 39 31 l198 0 l0 128 q1 20 15 29 q15 9 33 7 q32 -3 36 -36 l0 -128 l239 1 q19 -1 29 -12 q9 -12 8 -27 q0 -32 -37 -36 l-220 2 q11 -99 35 -179 q63 31 137 85 q18 12 35 4 q17 -7 24 -25 q12 -25 -18 -48 q-68 -43 -158 -76 ZM277 534 l-11 -594 q-1 -21 -17 -31 q-16 -9 -34 -6 q-29 4 -32 36 l14 482 q-39 -50 -80 -87 q-40 -30 -65 -4 q-11 10 -11 26 q0 17 14 30 q154 139 239 355 q8 20 25 25 q17 5 33 -2 q35 -15 23 -54 q-40 -90 -98 -176 Z" /><glyph glyph-name="" unicode="&#x4fa0;" d="M450 386 q-20 50 -56 88 q-18 25 4 42 q23 17 46 2 q45 -41 71 -94 q12 -42 -20 -56 q-27 -13 -45 18 ZM757 342 l144 0 q20 -1 28 -14 q9 -13 6 -28 q-3 -28 -34 -31 l-239 2 q34 -89 99 -158 q67 -72 159 -111 q21 -10 25 -28 q4 -18 -6 -34 q-18 -32 -62 -16 q-78 35 -149 112 q-73 79 -115 176 q-71 -220 -276 -301 q-21 -8 -36 2 q-15 11 -20 28 q-8 29 23 44 q194 74 247 286 l-207 -2 q-20 0 -29 13 q-10 13 -7 29 q3 28 36 31 l221 0 q5 39 7 110 l0 103 l-190 -1 q-20 0 -29 12 q-9 12 -8 27 q2 29 37 33 l190 -1 q0 52 -1 105 q0 21 14 31 q13 9 30 7 q31 -3 36 -37 l0 -106 l210 1 q18 -1 27 -13 q8 -11 7 -26 q-2 -30 -34 -33 l-210 1 l0 -100 q-2 -64 -8 -113 l40 0 q43 73 73 162 q6 18 22 23 q14 5 30 -2 q16 -6 23 -18 q8 -14 0 -29 q-29 -65 -74 -136 ZM276 545 l-11 -604 q-1 -22 -17 -31 q-16 -9 -34 -6 q-28 4 -31 36 l12 488 q-50 -64 -84 -94 q-37 -29 -61 -6 q-13 12 -14 27 q-1 18 16 32 q77 72 137 162 q65 97 100 201 q7 20 23 24 q15 5 31 -2 q35 -16 24 -54 q-34 -79 -91 -173 Z" /><glyph glyph-name="" unicode="&#x4fa6;" d="M676 363 l0 -64 q0 -162 -94 -265 q-72 -79 -204 -124 q-29 -9 -49 -1 q-17 7 -22 24 q-5 14 2 28 q8 15 26 20 q131 38 191 108 q68 78 68 210 l0 65 q0 19 13 29 q11 9 28 9 q16 0 28 -10 q13 -11 13 -29 ZM936 -76 q-15 -14 -35 -15 q-22 -1 -41 18 q-59 56 -186 134 q-24 21 -4 45 q21 23 53 7 q122 -59 214 -140 q21 -26 -1 -49 ZM658 521 q82 0 125 -1 q108 -4 109 -88 q3 -167 0 -279 q-1 -16 -14 -26 q-12 -9 -28 -9 q-17 1 -27 9 q-12 10 -12 27 q3 126 0 254 q0 20 -12 29 q-11 8 -36 9 q-102 4 -255 0 q-23 -1 -33 -9 q-12 -9 -12 -30 q-3 -127 0 -253 q0 -15 -12 -25 q-11 -9 -27 -10 q-16 -1 -28 8 q-13 10 -14 27 q-3 90 1 272 q1 46 33 70 q29 22 80 24 q26 1 79 1 l0 224 q5 35 37 37 q18 1 31 -8 q15 -10 15 -29 l0 -66 l246 0 q36 -4 37 -35 q1 -14 -8 -25 q-10 -12 -29 -12 l-246 0 l0 -86 ZM291 547 l-11 -607 q-5 -37 -38 -39 q-20 0 -31 8 q-14 10 -13 30 l12 504 q-42 -50 -90 -99 q-33 -31 -61 -10 q-14 11 -16 26 q-2 18 14 36 q158 159 258 362 q10 20 29 24 q17 4 35 -6 q29 -17 17 -51 q-43 -90 -105 -178 Z" /><glyph glyph-name="" unicode="&#x4fa7;" d="M589 -22 q-55 82 -102 128 q-22 26 -4 44 q17 15 39 4 q71 -52 126 -124 q21 -37 -4 -61 q-13 -11 -27 -10 q-16 1 -28 19 ZM430 334 l0 243 q0 18 11 29 q10 10 25 10 q14 0 25 -10 q12 -11 12 -29 l0 -243 q0 -121 -40 -230 q-46 -127 -132 -186 q-44 -25 -64 3 q-10 13 -5 31 q5 19 27 34 q73 50 110 156 q31 89 31 192 ZM620 237 q-5 -34 -33 -34 q-14 0 -22 8 q-10 10 -9 27 q5 170 0 394 q-1 20 -10 29 q-9 8 -28 9 q-52 2 -105 0 q-36 -2 -36 -39 q-3 -194 0 -393 q1 -16 -10 -26 q-10 -9 -22 -9 q-32 2 -32 34 q-2 277 0 417 q1 89 87 92 q67 3 133 0 q85 -3 87 -89 q5 -168 0 -420 ZM910 743 l0 -705 q0 -95 -76 -117 q-47 -13 -113 -2 q-17 3 -27 17 q-9 13 -8 29 q1 41 52 33 q44 -8 62 -1 q32 9 32 52 l0 694 q5 40 39 41 q35 0 39 -41 ZM764 683 l0 -529 q0 -15 -12 -25 q-10 -8 -25 -9 q-15 -1 -26 8 q-12 9 -12 26 l0 529 q5 35 36 38 q16 0 27 -9 q12 -10 12 -29 ZM239 564 l-11 -625 q0 -17 -13 -28 q-13 -11 -29 -10 q-16 1 -25 9 q-11 10 -11 28 l12 478 q-30 -47 -63 -83 q-16 -18 -36 -19 q-18 -1 -30 11 q-18 25 5 57 q69 74 117 177 q39 83 70 202 q4 18 19 26 q14 8 30 3 q35 -9 27 -53 q-29 -99 -62 -173 Z" /><glyph glyph-name="" unicode="&#x4fa8;" d="M568 282 q0 -138 -42 -222 q-46 -92 -155 -151 q-46 -18 -65 13 q-19 27 15 48 q98 50 134 124 q31 64 31 188 q0 17 14 29 q12 10 28 10 q17 0 28 -9 q12 -10 12 -30 ZM771 284 l0 -334 q-2 -36 -38 -38 q-18 -1 -30 9 q-13 11 -13 29 l0 334 q4 34 37 37 q18 0 30 -9 q14 -10 14 -28 ZM725 490 q75 -109 201 -162 q21 -9 28 -24 q6 -14 -2 -27 q-18 -32 -57 -20 q-73 25 -143 93 q-62 60 -109 140 l-38 0 q-76 -167 -240 -251 q-39 -14 -56 15 q-17 27 20 49 q134 67 193 187 l-140 0 q-18 0 -29 12 q-10 11 -9 25 q0 13 9 23 q11 12 29 12 l169 0 q12 40 21 87 q0 4 2 8 q-66 -5 -155 -7 q-43 3 -46 33 q-2 15 8 26 q11 12 33 13 q127 3 194 10 q87 10 195 37 q37 6 49 -20 q8 -14 0 -28 q-9 -16 -34 -22 q-91 -24 -174 -34 q15 -13 9 -34 q-11 -45 -20 -69 l242 0 q16 0 27 -11 q10 -10 10 -23 q0 -15 -8 -25 q-10 -13 -29 -13 l-150 0 ZM280 579 l-11 -639 q-6 -37 -37 -39 q-20 0 -31 8 q-15 10 -14 30 l12 506 q-41 -59 -79 -101 q-28 -32 -62 -9 q-30 23 -1 61 q137 165 213 362 q8 21 27 25 q18 4 37 -8 q29 -19 16 -50 q-35 -83 -70 -146 Z" /><glyph glyph-name="" unicode="&#x4faf;" d="M757 565 l119 1 q18 0 27 -12 q8 -11 6 -26 q-2 -26 -33 -29 l-509 0 q-17 1 -25 11 q-8 10 -8 23 q0 29 33 33 l312 -1 q8 82 8 83 q1 14 -6 20 q-6 5 -22 5 q-99 -1 -198 -1 q-35 4 -35 34 q0 30 36 35 q110 -1 219 -1 q45 0 67 -24 q21 -23 18 -61 q-4 -45 -9 -90 ZM672 182 q34 -64 99 -114 q57 -44 129 -70 q20 -8 26 -24 q6 -15 0 -30 q-13 -34 -59 -21 q-74 27 -144 91 q-66 61 -99 125 q-33 -81 -93 -136 q-69 -64 -172 -90 q-23 -5 -36 8 q-14 14 -13 33 q2 23 31 32 q172 43 221 196 l-198 -3 q-18 1 -26 11 q-8 11 -8 24 q2 29 34 33 l211 -1 q0 1 3 26 q1 22 1 84 l-92 -1 q-33 -52 -61 -80 q-28 -23 -53 -6 q-29 20 -7 47 q64 66 100 157 q7 14 20 17 q13 3 27 -3 q30 -12 22 -43 q-3 -7 -11 -23 l295 0 q18 -1 26 -12 q8 -11 6 -25 q-2 -25 -32 -29 l-161 1 q2 -50 -2 -82 q-2 -18 -3 -28 l233 1 q17 -1 25 -11 q8 -11 8 -24 q-1 -29 -33 -33 l-214 3 ZM281 548 l-12 -608 q-1 -22 -17 -31 q-15 -9 -33 -6 q-29 4 -31 36 l11 491 q-43 -57 -89 -100 q-19 -17 -37 -17 q-17 0 -29 14 q-22 28 5 55 q157 143 241 362 q8 20 23 24 q16 5 32 -1 q36 -15 25 -53 q-36 -81 -89 -166 Z" /><glyph glyph-name="" unicode="&#x4fb5;" d="M842 228 l0 59 q-1 24 -11 34 q-12 12 -42 13 q-177 0 -354 0 q-30 -1 -42 -13 q-11 -11 -13 -35 q-2 -25 0 -60 q0 -18 -14 -27 q-13 -8 -29 -6 q-29 2 -33 33 q0 45 0 91 q2 36 27 57 q27 22 76 23 q274 3 417 0 q45 -1 70 -23 q26 -23 27 -65 q0 -41 0 -81 q-2 -19 -16 -27 q-14 -8 -31 -6 q-29 3 -32 33 ZM762 579 l-320 0 q-16 0 -24 9 q-8 8 -8 19 q0 24 32 28 l320 0 q0 22 -1 29 q-2 30 -39 31 q-151 0 -303 0 q-33 3 -35 29 q-3 30 36 35 q87 -1 313 -1 q51 0 78 -24 q24 -22 26 -60 q4 -70 0 -138 q-5 -81 -99 -82 q-210 -2 -325 -1 q-34 5 -34 32 q0 27 33 31 q168 -2 310 0 q38 2 39 32 q1 8 1 31 ZM679 50 q95 -46 223 -56 q23 -2 33 -16 q9 -13 5 -29 q-7 -33 -56 -33 q-133 13 -269 90 q-115 -69 -279 -99 q-27 -4 -41 8 q-13 12 -13 29 q0 27 35 35 q140 20 235 68 q-49 35 -86 78 q-19 29 7 48 q26 19 49 -2 q38 -48 93 -85 q57 43 87 95 q7 12 4 18 q-3 8 -18 8 q-69 2 -244 -2 q-18 1 -26 13 q-8 12 -5 26 q3 25 31 27 q140 0 279 0 q58 -2 74 -34 q14 -28 -11 -67 q-44 -69 -107 -120 ZM254 584 l-12 -643 q-1 -19 -15 -29 q-14 -9 -31 -8 q-32 2 -35 37 l12 519 q-33 -45 -67 -82 q-15 -18 -35 -19 q-17 -1 -30 10 q-22 21 0 54 q135 141 211 333 q9 19 25 23 q16 3 31 -4 q35 -18 21 -56 q-42 -80 -75 -135 Z" /><glyph glyph-name="" unicode="&#x4fbf;" d="M822 391 l-151 0 q0 -45 -3 -88 q37 0 103 2 q46 1 49 41 q2 24 2 45 ZM822 447 q-1 21 -2 42 q-1 37 -48 38 q-31 1 -100 1 q0 -55 -1 -81 l151 0 ZM672 589 q46 0 126 -2 q45 -1 71 -24 q23 -21 25 -54 q6 -106 0 -177 q-2 -37 -26 -60 q-27 -25 -74 -27 q-64 -3 -133 -3 q-13 -97 -57 -164 q127 -75 304 -76 q21 -1 31 -14 q10 -13 7 -30 q-5 -34 -52 -37 q-194 7 -339 98 q-76 -74 -215 -107 q-24 -5 -37 7 q-14 13 -15 31 q-1 26 32 36 q108 22 174 78 q-56 48 -91 105 q-15 29 12 45 q26 17 49 -8 q30 -46 78 -86 q31 48 45 122 q-59 2 -97 3 q-102 6 -105 85 q-6 95 0 173 q1 35 23 57 q27 26 79 27 q55 1 109 2 q0 35 -1 71 l-191 -2 q-20 1 -30 12 q-9 12 -8 27 q3 29 38 33 l486 0 q38 -4 39 -35 q2 -32 -39 -37 l-219 2 q1 -36 1 -71 ZM597 447 l0 81 q-62 0 -90 -1 q-26 -1 -38 -10 q-11 -9 -13 -30 q0 -20 -1 -40 l142 0 ZM597 391 l-142 0 q1 -23 1 -46 q2 -42 51 -40 q54 -2 87 -2 q3 43 3 88 ZM273 554 l-11 -613 q-1 -22 -17 -31 q-16 -9 -34 -6 q-28 4 -30 36 l12 491 q-44 -62 -83 -99 q-17 -17 -36 -18 q-16 -1 -28 12 q-24 24 2 55 q152 149 225 370 q8 20 24 26 q16 5 32 -2 q35 -14 26 -52 q-32 -82 -82 -169 Z" /><glyph glyph-name="" unicode="&#x4fc3;" d="M536 476 q99 -6 203 0 q48 3 51 44 q0 82 -1 107 q-3 37 -49 40 q-87 5 -205 0 q-46 -1 -50 -40 q-3 -55 0 -108 q1 -40 51 -43 ZM678 6 q72 -11 231 2 q19 0 29 -12 q9 -13 7 -29 q-2 -29 -37 -37 q-205 -21 -310 18 q-101 38 -140 144 q-39 -110 -78 -159 q-28 -29 -57 -13 q-31 18 -8 56 q50 64 78 152 q26 81 31 173 q1 19 15 27 q13 8 29 6 q34 -3 36 -39 q-4 -43 -17 -101 q25 -119 112 -164 l0 374 q-58 2 -85 3 q-53 4 -80 30 q-24 23 -26 62 q-2 97 2 147 q6 82 102 90 q128 4 250 0 q42 -2 72 -25 q30 -24 33 -60 q4 -84 1 -150 q-2 -40 -28 -64 q-29 -26 -80 -30 q-28 -1 -83 -3 l0 -122 l175 0 q36 -4 36 -35 q0 -31 -36 -35 l-175 0 l1 -206 ZM283 554 l-12 -614 q-1 -20 -14 -30 q-14 -9 -30 -8 q-33 1 -37 37 l11 491 q-52 -67 -87 -100 q-18 -17 -37 -17 q-16 0 -28 13 q-10 10 -10 25 q0 17 14 29 q74 71 135 166 q64 99 98 202 q7 19 22 24 q16 6 33 -1 q36 -14 26 -53 q-29 -71 -84 -164 Z" /><glyph glyph-name="" unicode="&#x4fca;" d="M681 462 q-26 21 -10 43 q17 24 52 9 q41 -23 83 -56 q48 -38 73 -73 q13 -18 8 -35 q-5 -16 -19 -25 q-26 -16 -51 12 q-51 71 -136 125 ZM537 460 q-63 -99 -155 -160 q-39 -18 -55 14 q-14 26 15 49 q79 51 130 135 q11 15 25 16 q14 2 27 -6 q27 -18 13 -48 ZM772 563 q-144 -22 -362 -41 q-33 0 -40 27 q-7 26 17 45 q26 16 48 40 q46 48 92 125 q21 29 48 17 q34 -14 22 -47 q-45 -74 -93 -123 q-6 -6 -4 -9 q2 -4 10 -3 q100 7 214 24 q-19 19 -37 34 q-21 21 -2 42 q18 21 49 5 q76 -55 128 -129 q12 -20 7 -37 q-6 -17 -21 -25 q-28 -15 -51 17 q-12 23 -25 38 ZM688 72 q91 -60 221 -77 q19 -3 27 -16 q8 -13 5 -28 q-7 -36 -55 -34 q-140 20 -247 104 q-102 -90 -242 -118 q-28 -4 -43 9 q-14 13 -12 31 q1 23 31 30 q119 19 210 98 q-52 56 -80 116 q-53 -69 -122 -131 q-33 -24 -52 -1 q-22 25 3 53 q139 126 211 283 q7 14 21 18 q12 3 26 -4 q32 -16 16 -52 q-9 -20 -20 -40 q67 1 134 3 q48 1 67 -28 q18 -28 -2 -66 q-45 -88 -97 -150 ZM630 119 q45 53 71 111 q7 16 1 22 q-5 5 -20 4 q-8 -1 -131 -1 q-2 -4 -5 -8 q29 -73 84 -128 ZM270 556 l-10 -615 q-1 -22 -17 -31 q-16 -9 -34 -6 q-28 4 -31 36 l11 493 q-39 -56 -79 -94 q-33 -31 -62 -8 q-27 27 0 58 q148 147 226 364 q9 21 26 25 q17 4 33 -4 q32 -16 21 -52 q-37 -84 -84 -166 Z" /><glyph glyph-name="" unicode="&#x4fdd;" d="M761 633 q-2 37 -45 38 q-62 2 -179 0 q-44 -1 -46 -41 q-5 -44 -1 -105 q1 -38 48 -40 q88 -5 176 0 q48 3 49 44 q0 85 -2 104 ZM685 265 q100 -123 247 -207 q33 -20 14 -56 q-9 -16 -26 -21 q-19 -5 -39 8 q-119 77 -225 213 l4 -260 q0 -20 -15 -29 q-15 -9 -32 -6 q-29 4 -32 35 l4 258 q-92 -140 -216 -226 q-20 -13 -38 -9 q-17 5 -26 19 q-16 26 15 50 q145 91 235 231 l-187 -4 q-20 0 -28 12 q-9 11 -7 26 q3 28 35 32 l213 -1 l0 56 q0 19 17 29 q-46 0 -87 3 q-95 5 -98 94 q-3 60 1 137 q6 83 96 91 q99 4 231 0 q42 -2 69 -25 q28 -24 30 -62 q5 -53 3 -139 q-2 -41 -27 -66 q-27 -26 -75 -30 q-43 -3 -98 -3 q17 -10 17 -29 l0 -56 l232 1 q17 -1 26 -12 q8 -11 7 -25 q-1 -30 -33 -33 l-207 4 ZM289 546 l-12 -606 q-1 -21 -17 -31 q-16 -9 -34 -6 q-30 4 -33 36 l13 494 q-51 -63 -91 -97 q-36 -28 -60 -7 q-14 10 -15 27 q-1 18 15 33 q156 138 245 352 q9 20 25 24 q16 5 32 -3 q36 -15 23 -56 q-34 -72 -91 -160 Z" /><glyph glyph-name="" unicode="&#x4fde;" d="M673 355 l0 -279 q0 -16 -12 -27 q-11 -10 -27 -10 q-16 0 -27 9 q-12 10 -12 28 l0 279 q5 37 39 39 q16 0 27 -10 q12 -11 12 -29 ZM852 393 l0 -356 q0 -79 -49 -103 q-19 -14 -62 -18 q-40 -4 -78 3 q-34 4 -34 41 q0 41 42 37 q44 -8 73 -4 q31 5 31 50 l0 351 q0 18 11 29 q10 9 25 11 q16 1 28 -9 q13 -11 13 -32 ZM722 510 q1 -29 -36 -33 l-357 0 q-16 0 -25 10 q-9 10 -9 22 q0 29 34 33 l357 0 q36 -3 36 -32 ZM944 474 q-19 -34 -62 -17 q-174 69 -343 236 q-36 33 -67 0 q-152 -160 -347 -250 q-47 -18 -64 14 q-9 16 -3 32 q7 17 29 26 q94 40 166 91 q63 44 161 134 q36 33 86 35 q53 0 91 -35 q90 -77 159 -121 q74 -47 168 -85 q21 -8 28 -26 q7 -17 -2 -34 ZM423 99 l-194 0 q0 -69 2 -159 q0 -16 -12 -27 q-11 -10 -27 -11 q-14 -1 -25 8 q-13 10 -14 29 q-5 133 0 395 q1 43 29 66 q23 20 62 22 q87 5 163 0 q83 -4 86 -85 q8 -202 3 -325 q-3 -67 -42 -86 q-39 -21 -107 -8 q-13 2 -20 13 q-8 11 -6 25 q1 14 10 22 q10 9 24 7 q22 -4 38 -3 q15 2 21 10 q6 9 8 31 q1 16 1 76 ZM423 152 q0 51 -1 75 l-193 0 l0 -75 l194 0 ZM421 280 q0 23 -1 46 q-2 30 -34 32 q-60 3 -123 0 q-29 -2 -32 -32 q0 -23 -1 -46 l191 0 Z" /></font>
</defs>
</svg>
