<svg xmlns="http://www.w3.org/2000/svg" xml:space="preserve" id="图层_1" x="0" y="0" shape-rendering="crispEdges" version="1.1" viewBox="0 0 32 32">
  <style>
    .st0{fill:#060608}.st1{fill:#4e94a3}.st2{fill:#93ccd7}.st4{fill:#dae0ea}.st5{fill:#4a5462}.st7{fill:#131123}.st8{fill:#222034}.st9{fill:#cbdbfc}
  </style>
  <path d="M9 6h17V5H7v1h1zm17 0v13h1V6z" class="st0"/>
  <path d="M14 8h10v2h1V7H12v1h1z" class="st1"/>
  <path d="M14 10h10V8H12v2h1z" class="st2"/>
  <path d="M7 10V6H6v5h1zm6 2v1h1v1h3v-1h-1v-1h-1v-1h2v2h1v-1h1v1h1v1h3v-1h-1v-1h-1v-1h2v2h1v-2h1v-1H12v1h1z" class="st0"/>
  <path fill="#fff" d="M17 11h-2v1h1v1h1v-1zm6 0h-2v1h1v1h1v-1z"/>
  <path d="M6 12v-1H5v3h1v-1z" class="st0"/>
  <path d="M8 13v1h1v-3H8v1z" class="st4"/>
  <path d="M8 14v-3H6v3h1z" class="st5"/>
  <path d="M15 15h1v1h-1zm4 1h-3v1h4v-1z" class="st0"/>
  <path d="M24 16v-3h-1v1h-3v-1h-1v-1h-1v1h-1v1h-3v-1h-1v-2h-1v7h12v-2zm-5 1h-3v-1h-1v-1h1v1h4v1h-1z" class="st2"/>
  <path d="M25 16v-5h-1v7h1v-1z" class="st1"/>
  <path d="M7 17v-3H6v5h1v-1z" class="st0"/>
  <path d="M26 17V6H11v13h15v-2zm-2 1H12V7h13v11h-1z" class="st4"/>
  <path fill="#8b93af" d="M9 19h2V6H7v5h2v3H7v5h1z"/>
  <path d="M10 19H7v1h4v-1z" class="st0"/>
  <path d="M18 20h2v-1h-3v1z" class="st5"/>
  <path d="M21 19h-1v1h2v-1z" class="st7"/>
  <path d="M24 19h-2v1h4v-1h-1zm-13 1h1v1h-1z" class="st0"/>
  <path d="M12 20h1v1h-1z" class="st8"/>
  <path d="M17 20h1v1h-1z" class="st9"/>
  <path fill="#ac3232" d="M18 20v2h1v-2z"/>
  <path d="M19 20h1v1h-1z" class="st9"/>
  <path d="M21 20h-1v1h-1v1h-1v-1h-1v-1h-3v4h6v-2h1v1h1v-2h-1z" class="st8"/>
  <path d="M21 20h1v1h-1zm-10 2v-1h-1v3h1v-1z" class="st0"/>
  <path d="M11 23h1v-2h-1v1z" class="st8"/>
  <path d="M22 23v1h1v-3h-1v1z" class="st0"/>
  <path d="M11 23h1v1h-1z" class="st4"/>
  <path d="M21 23v-1h-1v2h-6v-4h3v-1h-6v1h2v6h1v-1h5v1h1v-1h1v-1z" class="st7"/>
  <path d="M21 23h1v1h-1z" class="st4"/>
  <path d="M21 24h1v1h-1zm-8 1v-4h-1v3h-1v1h1v2h1v-1zm6 0h-5v2h1v-1h3v1h1v-1zm1 1v1h1v-2h-1z" class="st0"/>
  <path d="M13 26h1v1h-1zm6 0h1v1h-1z" class="st4"/>
  <path d="M13 27h1v1h-1zm6 0h1v1h-1z" class="st0"/>
</svg>
